<mxfile host="app.diagrams.net" modified="2022-09-21T16:16:40.878Z" agent="5.0 (Macintosh; Intel Mac OS X 10_15_7) AppleWebKit/537.36 (KHTML, like Gecko) Chrome/105.0.0.0 Safari/537.36" etag="EE2GNFEtJLgIa0i2eb6x" version="20.3.3" type="github">
  <diagram id="FymihVF0uA9fh8CjDAsM" name="Page-1">
    <mxGraphModel dx="1018" dy="659" grid="1" gridSize="10" guides="1" tooltips="1" connect="1" arrows="1" fold="1" page="1" pageScale="1" pageWidth="850" pageHeight="1100" math="0" shadow="0">
      <root>
        <mxCell id="0" />
        <mxCell id="1" parent="0" />
        <mxCell id="xSvWMtBVdoCeq4DZCb4L-1" value="&lt;font style=&quot;font-size: 16px;&quot;&gt;Proposer&lt;/font&gt;" style="shape=umlActor;verticalLabelPosition=bottom;verticalAlign=top;html=1;outlineConnect=0;" vertex="1" parent="1">
          <mxGeometry x="20" y="310" width="30" height="60" as="geometry" />
        </mxCell>
        <mxCell id="xSvWMtBVdoCeq4DZCb4L-7" value="" style="shape=image;verticalLabelPosition=bottom;labelBackgroundColor=default;verticalAlign=top;aspect=fixed;imageAspect=0;image=data:image/png,iVBORw0KGgoAAAANSUhEUgAAAlIAAAD8CAYAAAC8VkrEAAAMbWlDQ1BJQ0MgUHJvZmlsZQAASImVVwdYU8kWnluSkJAQIICAlNCbIFIDSAmhBZBeBBshCSSUGBOCir0sKrh2EQEbuiqi2FZA7NiVRbH3xYKKsi7qYkPlTUhA133leyff3PvnzJn/lMzk3gMA/QNPKs1DtQHIlxTIEsKDmaPT0pmkpwCBHzoYCrx4fLmUHRcXDaAM3P8u725AWyhXnZVc/5z/r6IrEMr5ACBjIc4UyPn5EB8HAK/iS2UFABCVeqvJBVIlng2xngwGCPEqJc5W4e1KnKnCh/ttkhI4EF8GQIPK48myAdC6B/XMQn425NH6DLGrRCCWAEAfBnEAX8QTQKyMfVh+/kQlLofYHtpLIYbxAFbmd5zZf+PPHOTn8bIHsSqvftEIEculebyp/2dp/rfk5ykGfNjCQRXJIhKU+cMa3sqdGKXEVIi7JJkxscpaQ/xBLFDVHQCUIlJEJKvsURO+nAPrBwwgdhXwQqIgNoE4TJIXE63WZ2aJw7gQw92CThEXcJMgNoR4oVAemqi22SibmKD2hdZnyThstf4cT9bvV+nrgSI3ma3mfyMSctX8mFaRKCkVYgrE1oXilBiItSB2kecmRqltRhaJODEDNjJFgjJ+a4gThJLwYBU/VpglC0tQ25fkywfyxTaKxNwYNd5XIEqKUNUHO8Xn9ccPc8EuCyXs5AEeoXx09EAuAmFIqCp37LlQkpyo5vkgLQhOUK3FKdK8OLU9binMC1fqLSH2kBcmqtfiKQVwc6r48SxpQVySKk68KIcXGaeKB18GogEHhAAmUMCRCSaCHCBu7Wrogt9UM2GAB2QgGwiBs1ozsCK1f0YCr4mgCPwBkRDIB9cF988KQSHUfxnUqq7OIKt/trB/RS54CnE+iAJ58Luif5Vk0FsKeAI14n9458HBh/HmwaGc//f6Ae03DRtqotUaxYBHJn3AkhhKDCFGEMOIDrgxHoD74dHwGgSHG87CfQby+GZPeEpoIzwiXCe0E25PEM+V/RDlKNAO+cPUtcj8vha4LeT0xINxf8gOmXED3Bg44x7QDxsPhJ49oZajjltZFeYP3H/L4LtfQ21HdiWj5CHkILL9jyu1HLU8B1mUtf6+PqpYMwfrzRmc+dE/57vqC+A96kdLbCG2HzuLncDOY4exBsDEjmGNWAt2RIkHd9eT/t014C2hP55cyCP+hz+e2qeyknLXWtdO18+quQLhlALlweNMlE6VibNFBUw2fDoImVwJ32UY083VzQ0A5bNG9ff1Nr7/GYIYtHzTzfsdAP9jfX19h77pIo8BsNcbHv+D33T2LAB0NAE4d5CvkBWqdLjyQoD/EnR40oyAGbAC9jAfN+AF/EAQCAWRIBYkgTQwHlZZBPe5DEwG08EcUAxKwTKwGlSADWAz2A52gX2gARwGJ8AZcBFcBtfBXbh7OsBL0A3egV4EQUgIDWEgRog5YoM4IW4ICwlAQpFoJAFJQzKQbESCKJDpyDykFFmBVCCbkBpkL3IQOYGcR9qQ28hDpBN5g3xCMZSK6qGmqC06HGWhbDQKTULHodnoJLQInY8uQcvRanQnWo+eQC+i19F29CXagwFMEzPALDBnjIVxsFgsHcvCZNhMrAQrw6qxOqwJ/s5XsXasC/uIE3EGzsSd4Q6OwJNxPj4Jn4kvxivw7Xg9fgq/ij/Eu/GvBBrBhOBE8CVwCaMJ2YTJhGJCGWEr4QDhNDxLHYR3RCLRgGhH9IZnMY2YQ5xGXExcR9xNPE5sIz4m9pBIJCOSE8mfFEvikQpIxaS1pJ2kY6QrpA7SBw1NDXMNN40wjXQNicZcjTKNHRpHNa5oPNPoJWuTbci+5FiygDyVvJS8hdxEvkTuIPdSdCh2FH9KEiWHModSTqmjnKbco7zV1NS01PTRjNcUa87WLNfco3lO86HmR6ou1ZHKoY6lKqhLqNuox6m3qW9pNJotLYiWTiugLaHV0E7SHtA+aDG0XLS4WgKtWVqVWvVaV7Re0cl0GzqbPp5eRC+j76dfondpk7VttTnaPO2Z2pXaB7VvavfoMHRG6MTq5Oss1tmhc17nuS5J11Y3VFegO193s+5J3ccMjGHF4DD4jHmMLYzTjA49op6dHlcvR69Ub5deq163vq6+h36K/hT9Sv0j+u0GmIGtAdcgz2CpwT6DGwafhpgOYQ8RDlk0pG7IlSHvDYcaBhkKDUsMdxteN/xkxDQKNco1Wm7UYHTfGDd2NI43nmy83vi0cddQvaF+Q/lDS4buG3rHBDVxNEkwmWay2aTFpMfUzDTcVGq61vSkaZeZgVmQWY7ZKrOjZp3mDPMAc7H5KvNj5i+Y+kw2M49ZzjzF7LYwsYiwUFhssmi16LW0s0y2nGu52/K+FcWKZZVltcqq2arb2tx6lPV061rrOzZkG5aNyGaNzVmb97Z2tqm2C2wbbJ/bGdpx7Yrsau3u2dPsA+0n2VfbX3MgOrAcch3WOVx2RB09HUWOlY6XnFAnLyex0zqntmGEYT7DJMOqh910pjqznQuda50fuhi4RLvMdWlweTXcenj68OXDzw7/6urpmue6xfXuCN0RkSPmjmga8cbN0Y3vVul2zZ3mHuY+y73R/bWHk4fQY73HLU+G5yjPBZ7Nnl+8vL1kXnVend7W3hneVd43WXqsONZi1jkfgk+wzyyfwz4ffb18C3z3+f7p5+yX67fD7/lIu5HCkVtGPva39Of5b/JvD2AGZARsDGgPtAjkBVYHPgqyChIEbQ16xnZg57B3sl8FuwbLgg8Ev+f4cmZwjodgIeEhJSGtobqhyaEVoQ/CLMOyw2rDusM9w6eFH48gRERFLI+4yTXl8rk13O5I78gZkaeiqFGJURVRj6Ido2XRTaPQUZGjVo66F2MTI4lpiAWx3NiVsffj7OImxR2KJ8bHxVfGP00YkTA94WwiI3FC4o7Ed0nBSUuT7ibbJyuSm1PoKWNTalLep4akrkhtHz189IzRF9OM08Rpjemk9JT0rek9Y0LHrB7TMdZzbPHYG+Psxk0Zd3688fi88Ucm0CfwJuzPIGSkZuzI+MyL5VXzejK5mVWZ3XwOfw3/pSBIsErQKfQXrhA+y/LPWpH1PNs/e2V2pyhQVCbqEnPEFeLXORE5G3Le58bmbsvty0vN252vkZ+Rf1CiK8mVnJpoNnHKxDapk7RY2j7Jd9LqSd2yKNlWOSIfJ28s0IMv9S0Ke8VPioeFAYWVhR8mp0zeP0VnimRKy1THqYumPisKK/plGj6NP615usX0OdMfzmDP2DQTmZk5s3mW1az5szpmh8/ePocyJ3fOb3Nd566Y+9e81HlN803nz57/+Kfwn2qLtYplxTcX+C3YsBBfKF7Yush90dpFX0sEJRdKXUvLSj8v5i++8POIn8t/7luStaR1qdfS9cuIyyTLbiwPXL59hc6KohWPV45aWb+Kuapk1V+rJ6w+X+ZRtmENZY1iTXt5dHnjWuu1y9Z+rhBVXK8MrtxdZVK1qOr9OsG6K+uD1tdtMN1QuuHTRvHGW5vCN9VX21aXbSZuLtz8dEvKlrO/sH6p2Wq8tXTrl22Sbe3bE7afqvGuqdlhsmNpLVqrqO3cOXbn5V0huxrrnOs27TbYXboH7FHsebE3Y++NfVH7mvez9tf9avNr1QHGgZJ6pH5qfXeDqKG9Ma2x7WDkweYmv6YDh1wObTtscbjyiP6RpUcpR+cf7TtWdKznuPR414nsE4+bJzTfPTn65LVT8adaT0edPncm7MzJs+yzx875nzt83vf8wQusCw0XvS7Wt3i2HPjN87cDrV6t9Ze8LzVe9rnc1Day7eiVwCsnroZcPXONe+3i9ZjrbTeSb9y6OfZm+y3Bree3826/vlN4p/fu7HuEeyX3te+XPTB5UP27w++7273ajzwMedjyKPHR3cf8xy+fyJ987pj/lPa07Jn5s5rnbs8Pd4Z1Xn4x5kXHS+nL3q7iP3T+qHpl/+rXP4P+bOke3d3xWva6783it0Zvt/3l8VdzT1zPg3f573rfl3ww+rD9I+vj2U+pn571Tv5M+lz+xeFL09eor/f68vv6pDwZr/9VAIMDzcoC4M02AGhpADBg30YZo+oF+wVR9a/9CPwnrOoX+8ULgDr4/h7fBd9ubgKwZwtsvyA/HfaqcTQAknwA6u4+ONQiz3J3U3FRYZ9CeNDX9xb2bKSVAHxZ1tfXW93X92UzDBb2jsclqh5UKUTYM2yM+ZKZnwn+jaj60+9y/PEOlBF4gB/v/wLn2JDQ/9dpQgAAAIplWElmTU0AKgAAAAgABAEaAAUAAAABAAAAPgEbAAUAAAABAAAARgEoAAMAAAABAAIAAIdpAAQAAAABAAAATgAAAAAAAACQAAAAAQAAAJAAAAABAAOShgAHAAAAEgAAAHigAgAEAAAAAQAAAlKgAwAEAAAAAQAAAPwAAAAAQVNDSUkAAABTY3JlZW5zaG90zv1OHwAAAAlwSFlzAAAWJQAAFiUBSVIk8AAAAdZpVFh0WE1MOmNvbS5hZG9iZS54bXAAAAAAADx4OnhtcG1ldGEgeG1sbnM6eD0iYWRvYmU6bnM6bWV0YS8iIHg6eG1wdGs9IlhNUCBDb3JlIDYuMC4wIj4KICAgPHJkZjpSREYgeG1sbnM6cmRmPSJodHRwOi8vd3d3LnczLm9yZy8xOTk5LzAyLzIyLXJkZi1zeW50YXgtbnMjIj4KICAgICAgPHJkZjpEZXNjcmlwdGlvbiByZGY6YWJvdXQ9IiIKICAgICAgICAgICAgeG1sbnM6ZXhpZj0iaHR0cDovL25zLmFkb2JlLmNvbS9leGlmLzEuMC8iPgogICAgICAgICA8ZXhpZjpQaXhlbFlEaW1lbnNpb24+MjUyPC9leGlmOlBpeGVsWURpbWVuc2lvbj4KICAgICAgICAgPGV4aWY6UGl4ZWxYRGltZW5zaW9uPjU5NDwvZXhpZjpQaXhlbFhEaW1lbnNpb24+CiAgICAgICAgIDxleGlmOlVzZXJDb21tZW50PlNjcmVlbnNob3Q8L2V4aWY6VXNlckNvbW1lbnQ+CiAgICAgIDwvcmRmOkRlc2NyaXB0aW9uPgogICA8L3JkZjpSREY+CjwveDp4bXBtZXRhPgqMoOLPAAAAHGlET1QAAAACAAAAAAAAAH4AAAAoAAAAfgAAAH4AAL5BG4M1KQAAQABJREFUeAHsXQWAVsUTn6M5uvtoDJCjQxoFaRCl21aMvyJ2KwYgKl0SihIikkpJhygNUkp353EcB9z/95t9+33vvvvuCAFR38K9772t2ZmdnZ03O7sv5Oy56BgR/HdCSAhuYkLkEuJ4a0MIslxKFII4kz0GeTQvnpkzUQhKIE4Dq0NeuYQbFGS6uy7GhSAvsyED/sydPumjB9+jv8d/7jHjjT9P/njy15t/vPkXugL/32L6R8jZc+dVi/GpO1Z6QwkKgaYUQ20pxkxqfnWHuMRAV2Ka/qcO5ArMnwhJlxBnKtQr86qChVhVsFijSffgk2aghSGHKqEe/T3+88YfBoQnf1QsePLXP8V48483/95K+kfI2UgoUjp/U9c1Q9Wn3lCGQaFig2lsUi0QeXCrOR0dS7mbZRI58ZoBOlQIIiADEUzdLOcPTpwDzLxraGZTNzN68D36e/znjT9P/njy15t/vPmXVqhbVP8IiYRFSt96qb6o1sPGGiXHUZeMlcSVxnhVeRwlyCpHphytULRGQeHS9QjEUqFiJocQMayLlin8ULny4CsVQAhDUI/+Hv+ZEWb4wQwSP29w4PBJL2QdJ3jjj3zjyR9P/nrzjzf/3lz9I+RsFBQp+9avEpumJEpmXKj4YHKPSQSxHWOYU1PsvI/fREzXAhTjFGIQZk66+cFVFQTUQRMW/7M6LcM43HvwjdVBaeLRX8mgjOHxnzf+PPnjyV9v/vHm31tb/4CPFJzNqeiossQ3OjN5+TQeR6eiczjVH+TUeU4VIdWIqEDBpUdTTJpPk7JrfaYoa9LAOhhMMjUpD75Hf/AAeMzjP2/8UXn05A/kIuUrg94aIepQRseJeSP15C8p480/hldIC2/+NWPF52vkPJI0DM6ouq76R0gElvaU+NbhyVGOYoNEDmcEcxnOWKH8OTj96Wh3fpiibXcQYJWXoKgl0omSiSYjBeYl5PTgkyakMeji0d8RBOQi8gkDaeP8ePznjT+ME8sZhi0scxgecTjGN5948seTv978482/N1L/gEUqClLIUYV458xZjGMsFSfO7zSs6XyGHxuoADmGKib5hJtN5y/jzYKfiVU9gbG80UKs0IOvVCBJQBPekyYe/T3+88afJ388+evNP978y8kRc6OZHJ0Z8hbSP3j8gU+fsUtx2kxzMWn+GZ6ZGWeuLqwYa7SkWEnM4TM+Q0tglsBgYCDWg2+1KB+JDG08+lsN0+M/M7xiDTLlFm/8efIHcsIIXJ8cMY+UIlj88uSvN/+QIQKCN/9iuJAuf0H/cJb2lJQqm62iozvrGB1HbTKWEmtlckrG7hqns1SBQoXq94KrGdRotCpcKIkIMzF68JUYIINHf8NKHv9hcHBYeONPGcKREEoPWmo9+WM4w08XJZO5ePLX4RkjUL35x8zZ3vxrxsyN0D+waw9Le2qTAu9ZSls2xKyODXWOKGckWRJGRqpvdgTzNyDoYZuok9VRybNCz1eI8FT7Yz348+AbCpJgPnqC+T36e/zHIWK4A1dv/Hnyx5O/3vzjCIVY84VPSOi8wTMfmezNvzdH/4BFKtqQPC7VHV1J7UroFGYwwfQfrmoqZoc5aZT4uNU3AJ9phWVMCVM69rN9W9AssXvdg6+U8+hv2MrhMR834dnjP7yHeOPPkz/O2PDkrzf/gBW8+dcYIVTf0KHBi/911K2PXC/9w3wixhmABGzEsiuCDaBSdIm/yEDrEXbgaZTmd9J1kVEzOLEuAY8YE0ycnsWpZioHQVsMmTz4nBZcBPHo7/Hff3T87du3T/bu3S9JkiSWkiVKevJHxQIunvy94fPP+fNRsmbNWp2R7rjjNkmdKo3Hfx7/xav/6CdiQjAwY3Dgpmpqllg+K5KqdL4noxDxyox20c4qRLSe4J7/kcyDNvm9OMZdwq+cj5ZL0ReQAHiM1yqQJzFkQ4pUqA8FGcfCvDcP+PU/6YNetDDuXHkdWPHBN0Yy5A+Ef5Pw9+Cz4zz6u/kvOuI0Tv6PO/4SJ00miZIkA704Dv57/H/x4gV5sHlr2bZtq5QpU1qGDhmkI12JoRdv/F+t/PXkDxnnyuTPiZMnpFr1e5E/Rtq1bS1durzg8Z+OO3vxxp97/KlFyqosSiLqMuQ1FeAkll9VMQlGsPvjoSZhhHKQmi8yc1KAYqR1sDzTTJ6D476T7X2+YFFlSlsTf8NHjpTQAgWZ/YbBN61R8HHgG0yRdovDP3vskFyIOheLxkp/ND1luiySNEWKWGlu+v8b8FfkTBc6fXjl/Hc98T8fcUaiTh8nd8fmf7yPpEibUZKnDNW0y9G/b+3cZDnFRdFy+K9g1fpS541BGuVrtw5M5jbBxAfAx0CMb/z56kFx930w+Fc6/i9euCj96ufV8Z+ndHVp/NGo6wJ//IQJ8t77HyqiI4cNlRIlSziC4crwjzx+SI5s3SjHdm2R5KnSSeqsOSRrobskedr0Wuf1wj9O/99k+t9o+H8umCoL+r6hPFrnjQGSq3hFw3w+Hvp7+e9G4j9g4BAZOGiwjpWJP3wv+fLnw3C+Mv4LNv+5ec59/1fG343E30olX1tvQflzy+DP4w/8IwODAoyCK2iIGUF7mIKZViVzdKZx9EMalScU9PEVHlSZQpyf8DYDY0T2f/ed7PziCzU4McaXD/fFh4+Q0MKFbyh8B52g8Nk+anA3Ev/rAf/H9x6VrYumm8mbbWalDCAmDzhNlTmn5ClZWUq17CwZwgo5HWTofz3g/5X+/zfBXzt5uCzo90Yc+ptRIZI0ZWrJeVdZKdXsCckVXkm7KBj+vaFImd5hH/r5r0Dl+lLvrSHs1Os2/oLBZ5wvuOBf6fi/CAtz/3r5lP+yFSkuzfr86B/XOsAVqoK4UvgRZ05L7Tr1JSIiUipWLCcD+vdHnVcmf7Yuni7zvnhFzp44om0yAsrP/7ff84BU6fyepEidzt9OS4BrwP9q5N+V4n9q33bZt/5X7few0pUxpnNdMf6W2vw1CNoYw6oqo0EOUkS7x+Ku+f38Z/t/88/jZeYn/0PqJan/5mApULkeCl6b/L9S/G/U/HO18E+ePCV169eXM2cipUb1KtL7s146P/xX8L/e8//V0v+fBN/4SDmDiQxsJwKDBAebidNBR0HDHKAIbuUSVvb4yzL6WQeMLzwEBJY0S4AXICAvnjip+VnJ/jFj5ODEiZqfilSqQgVNGmOU6tcXPiWHChJ7Y+FoC/yw9PEWhU9FattCTFbx0J+CnRRnuKfLp3LHfS1x5yzB/gvw/yv8Z7tdeZyMwOD88NbyOu8vx3/rJ4+QuX3eiMP/bvprPaj1jtoPyj0vfqYdE8h/J/fuMMIZmS9GnZXRT9ynxQrcXVfqvTPE1yb2qR7OyRHCPo6n/934WPg3sv9jsATXr15+Hf9Z7wiX5r2nGbC+K1t+dfw3Zuw4+eij7kqvAf2+kLvvrsSuSxB/QTt+/fYz+fXrzzWvD7w+xYbfdsRiSZcrr8lyjf1/I+m/bspXMr/3a4p/o25fSVjZmpfF/0rkLysJ5D83vwTj/82zx8us7lCkQKe6bw+SAlXq31L8dzXzz7Xg37NXL/n6628V/x8mjpf8+fP9p/C3PHG58Xej+O8fA18tUkolv1whc3Lg0FXJCG2gQ4GDBz4zcEJDhF5Vf3LVoRlcF2PP4vTFP1OGpfcOGSJ7vhrJaqT4MFikChUytTp13Wj4cE1RHAlfATs/Nwv/a4H/03uPyVYoUqR/6RadJXPBorrFNfr8OTlz5KD8MWeiLmdY8rccOFOyFCiKqSwu/a8F/vXs/38y/DW0SPV9U9mmQIVaUuSeJspDly5elLPHD8ueVYtk529ztRvIXlWf+1juqt8mFv8H4h997qwMbFRElSQqUnWpSIFH6Wd4I8ZfIHw2luPyavj/4oULMsCxSGUpEi4t+gQqUhzetCddGf9dAqJNmj4gO3fsktBUobJo/lw4mye5LP6Lh30oK8bAcqUIiJRq/pTkK3+PZMxXRCKPHZWDW9fJytG95fjOP6TtiEWSNmc++mzfkuN//VSjSBGVRt2+lnzlal4Wf8pK7Tz8BIaroX9g/5/cs112/DJbq8xXoaZkyAX3C4TrIf9vVfq7+X/jho3SqnV7xbld21bSFb5S/yX8b3X5Q369Vv3jevKfY5GicmOUHA6R2GOSKYlUFKrGw0Ts4COz6ZfyVMi7S2gGI43t6NZkmwf1a5kY2T30S9k7cgQqDJG7hg+HRaow7m8efKcLFP7fgf+1wP/pAyhS839S+jfE22recjUgZC1tlXwy7d2HZPvSmSBliJRt86yU79hV70lbpa9D/2uBr8xxnfr/nwx//ZQRMq/va8rLpVo8IxUfehm0ZfDz/+rxQ2XRoHc0KvvtpeXBLyYh3c//gfhfOBcpgxoV1hryV4JF6m0s7SH/jRp/gfA54Wr79IqLhoThx0Bx7Fc3P3LGSNbbYJHC0p5aoFRAOHypP859AvgT/oqVK+Thhx9DLpH27dpKlxeeuyz+EceOyLAWJbS1JPY9XXrIHXVgibXjwoF/6WK0bJgxVm6r3liShnJzizWh/z3yLz7462GRmtcHFikEjvGwsvcAK79V7XrJ3/jg257SBoD6tzL/mbnE3WLeg1bXyH/B+L9hkwdl184dkgo8M2fOTEmRLKWpHnBuBvz/Ov3/CfhDkTLf2nNkqBE+qoZClKkgMlMDBxWFmw0UoOf275dzO3dKJJiM5ZPnzCWpi9wuyXNkN5nJ0wgqplgXPPBiHB5nht1fDpG9I0ZojuL4DS1Inx7kuwz884cPScTmLRJ15LBcOHFCkmXOIinzhUmKvPkkaZp0qI9t12pxCQ4/Jvq8nFq7RqIOHJDzhw9L4uTJJWmmTJIyLL+kug0KnU/NVdS0Hjf+jDi9caNE7d4tUYcOAt4lLZ8ie05JXayYJMKuK6VpPPC1gaSPMTWYvARwGfx/fP8xXdpDTgjZUZK3bHXeIkDgQXjQsX/Hstky9Y0OWmdY2RrSGMJYla0A+rN9F2AFOYa39KM7N8mZQ/skQ+7Ckin/bZI+rACSsZ0Sgc1kCMQ/CjvODm5aKRFH9suZowckWWg6yRhWGH+FJFXGbNrfLBdf/2vFDv5RZ07I8V1/4G8rLGv74ReSTdLlyCc5ipaTxLBIMATC5zPbdubwPjm6Y5Mc270NLJZIMsEKkTHvbRKaMQuLBYXPSfXE3m2oNAb5ssFBPL1Enz0jBzeukYNbVknK9BlBh6KSDcpBMPzXYWlvHpxwmVa65dOqSFn6a0vRuKiIkzK4KS2G6Bv0y1MzdkLwJlEhrHlY2NX/0ZFnZVDDIopUgcp14CM1lM0PCp/xFn/eXzgfKUfhWH1s2xaJhEUsTdZcsMbcJhnyFAL9Esfb/274rPDCuXNyYt82Ob57i5zYs0OSw5coXfY8kh39kDx1WoLyBcKPgUVKfaRQOMttJWCRoiKFFFfjLsFaemLfLt/4T5czTJIkS24Qc+HPMp9/3luGj/wKaTEydNAgKVu2zGXxXzrsY1ij+ij/337Pg1Lrpc9jwb8S/lMggH8hKgoW3c3gp41qyUqTDXQEL2UEHUMcPrQEcKEoJ+HXdOFCNDYZpJHUWXLIJdDlyLbfZd/vy4HKJfDSnZKjWFnsxEwep/+jzpySiGOUISRdiGyY/q2s/mGw3ld/9iP42pW3IDVL4iRJJX2u/G4SK8116Tf6ohwC/54EvSMwJlllprCCkj5PEVjhwhLkP2bmruqIYweU/iqLfJAFYzK7JEpsxiKj3fjzifIgAlZx3qfLnldlagQ2xxzcsBz03II2FJAshUtI+px5TekA/tcKXfLvHHbOHd2xWY5hbHNskJ8zFbxT0mTOQfBx4LvHH9vB8cc2ZgA80v0cZMzO3+bL6YO7Vaaky51fwkpVkSTJQx1eZKVoVMD807tPP/ly2HCClIH9+8Jvr4LeB+Lvhm8bt3fvPomOjvKNv/TpMkiG9M4cdRn8Lf2ZjYHw3OFK4DP/1fB/MPw9+IbqCdHf5SPl7haSns6d1CbsN5q015XhzmzYIH++/75E7drt9LVJc3JI+sqVpUCXF6HgZEYdxqxvaqIs5RsO6gfD7hk6GBapkdrK4rBIhapFio/B4R9fslh2Yxv02T+3ahnyO/leG6W1iuRs105yPfwIBrxVAuLCPzJ3nuzo3VeiD3PQ2+DHP2mGDFLk448lzZ3FkBgX/4gtW2THZ5/JmbXr4sBnLfwj/tmaNEkQf2LpD3748eHPmtUitYCTlUjjD0ZJnnLVcReb/tuWzpAf336YWSR3iUrSuPtYpydj03/Lz9/LrE+e1Xym1UpMfc5TpqrU6tpbQjNkAo5GQdM8yHJi91ZZ0P8t2Q2hFEh/i38+KHC1Xu4tKbGDjcs6wfqf+F/AJPvbqM8wEfYFXD98wyWJVKGp8PArUvS+1khH7QZVbeNFWHAWDHxbfv9xtKbZJEvJcu1ekLKtnxMBLwTC3/nrfJnyehuth5MVFasF/d7SZ14s/DvrtJCqz3STJElTaKyFT0VqAXykiH/plsYiFQj/3KnjMvTB4loX4T/x43bUg2UqVEL+D+z/aLVIQZFCyF+pjtR/+0vcxeU/koHB8v++db/KT1Cwz8HB2tKfbWHIkLuA3PfWEMmCSQjvMLHGXyD8zT//IPPgmxMdeUbbHDj+izfuKFWfft+wCuoifB5T0B8+Uoyk0tkMS3uW/oiE39c5mfruw7Jn+XyFnxcTV733hkniZKFx8GfntmzdVjZu3KTwFy+YL2nSpIrDfwrAgX8Bk9SABngBQyRxbtJjnOQMv1vv8YjfuOM/PvobOj4ukUpH5jJcQ/7nklbdtwbrS4YbPvs/OjJCBjW+TWEWrNZQwps+IpNfaaN0ZAvIS6wpM+jTAFbGVFlyxur/jTPGyM+fdtHWss0Mlv+C9X/6XAWk7bAFvv4njEsXzsvPPZ+XbUtny3n0n+1/N/zUOcKkwTtDJVOBO2PBtxCZ9/Cf62XsU3WCwq+HsgUqwYcvgP9YjpG/QKFdjnHM5FZwKVg5rr9smTNJ6/KNPzxVfeYjKdawA0o5FWkD/FxzMTpafhnZXVaNG4iUuPxf6sEnpUKnlzCsk8YrfxYPfEdWT+CLSIi0GTZPDm9eLTM+eQ79YCjL3iV8bgpp0f8nKKb5NC8u+uue/+bMmy/PPw+rPvI/9tgj0vnJJ0wuNDk++WfpH16yrEK0+L/wv2ekY8cO8dJfK9aWxT//osIrhn81/G/6kVWTMh589/ingUIZ3/lRKrn6XxUpFerIYIgH0vMeUld/tTirVDEse0Z/I7v7DYBEZi2sLkYSY6v3xchI80xA6IhiAwdI6qJFEYcI3QtK1nWKMAvC7qGwSEGR4ktp+IiRkrIQrSDxw+dS4O6RIyBAWKeBnyxLFjl/6JC/sUhKW7KU3N69O86mwltvAPzjv/wim7q+aBrgXJPlgGDDm/j540d98It89IlkrFRJUTQi1eB/DtantW3bycVzEQ4yMVAYsyp80w5WGiI5W7eSsCefjANfSRYLOrKgjYbWZN748QfSMu19OJsv+EnxbwRFKqxsNdMOp7P4FvbDi830bZhgynd4Scq2pbOon/4x6NzZPZ6XzbO/15aQ/jRRJ0E/XsCkgCZAfsFSkyELJsapkjpbHl//kwq7MSlOfh2KjSKDC/6nRF5aM6LPnUEOrUBS482xySdjYd3CROeCr0BxoSVp4sstYf3YpvAt/4VmyCxnjx124mIkT5nq0uTDUShhuJATePT5CPn+ucbAc4NpB9qfNEXqWPAJJwxb8htiS77SFc/aZPzSf2nK6+2YRTJjW/wRTCAWvsVfzfaIrfjom1Km2ePI6Ye/bupwmQ9FijWWbgGL1MOvOu1gjZzYomU+lv5+n/YtioVg23gFadrjOx985rLB9v950G5wo9uUfAUq1pX68JFie938R/oTf8v/6gyMCcJhIC2bMn0WKAMYEwwO/zf5eLTu5rT4m0Rz5REG0z94XLYtwZIxkXf6P1loGkzKpx34ZgLqPHNvLPjEs3/dfAo/K3ykmvedhkpZQYycP3saltGOsMr8iscYyQ9fsvuwhT5JMiql/mDxP3X6pFSpWlNRCcsTJlMmTbgs/rQEfd2hssJPmS6zPDRuJcrzJcpQzuIfjP9sCwifLxUzuz8TC3/y/9kTh2Ph3xj8nKcE4Lnk33lsohnc9E4FSatP5InjUKJOmepd8ocRefGC0RB+T+6wZe4kmfnR04Bjxr+lv+U/0/9WAYByDKWu7Yj5BkXiif/RUVgWdqyZTgeqkpAEy1CRp44iD+lhQr13vpQCd0MhcoKlP+Ef+fN3Gdu5jo7/QPh1sWsvf5UGsfpfgbNqjL8lQz9U5YnwsxQuKof/WIdk8IIj/33wcNPsi8mS/Y5SGuWGH3n8iEx5sz0Un7WokhO6wTt5ylTgxQiiqvI/x11l5H6MJ31hduCbRFYZIovwgrV6ApbGAb/Wq71l1sf2hVFbrCRW4Lg88PlkyXFnaRQPLn8PHDwkderURXoiCS9RXL4aNixW/xu4wFPbYeCbhxjkLxsL//8996x06tjegtZfN/6Xk/+B41/hBMHfwnfT34zKWKA9+KDA9aC/3yIFKusbrpIW3YmBxzcx0yGMjJEIWILWdeqo9xzcORo1kZxgCiozDFEHDsrhqZOh7HwlxQcOklR3QpFiFcph0MkJAJyg3+JDglWkmINLe6mwtEeeYKFg8HcPHSqHJmMANntQMlSrIaHZYeJNnlRLRGzaJFs/+kgit/6pw6HQy69IlvoN4sDf8PQzcnr1SsAJUUUnOxxbE+HsJbbzUsRZOb50iezHrqE8jz0q6cqUQ92mReY3RBW/3bCksXyWGjUl7wvPCy1YDDE4cPTMhvWy//sJkqpAAcnVoVMc+G78tZC9AP7l6M/KaHnYupBv/VBWa7eUtPkKsulQYiLl9IE9smnmWMWfb0B0/r2/x1gIVMcfxKH/ljmYNDj5IvCN7J4uPfVNk2943Da+aND7ULLGA1wiKaTnGfHNUEerltm1Yp5MerWthDfoILfVaa5LeQoDWSKO7JOFg7vJ1nl4E8Xzbfc2hWXqC5SL2//TP3hCeE4NQ0ooT7Vf/FxyFC+vpvYLmIQPbFmrRwykwlJJY1WkiClDjKya8KUsHvCO8BzZ0PSZsQw2GIK5NDrxkmyHkvTT2w+ZuQNF9E0azttu/tvx2zyfIsUauRxT59V+khXCncsyK8f2k19HYYkIsFKi/k7f/oblAcNrjFs7eaSxSAF+7vCK8FWryWjhkvHpo4dkJ3zUTh/ezy5D+UzS+OOx2Bhweyz+J1xfQL4LWL6gszkLcaLjhKeVaiY//RnH/r+I/ENblUI5Kq8YQ406SYUOXSRp6vRYljoE69Lrqhwxf2ZsOGgxcDpIkMg3/rQQLuumjITS97oPVLVnPpTCsKzwPCwqSsd2/ym/ftVTeLTAMzP3oISBT13i4iW7tCdCRaoFFG9OR9FnTsrk19rJASz9Mn+hao2k9iu9JVGipHHgazuA/2Ys1zdvQctjiNS+t6b06NFdy2o66lBi6oMf/p51S+SHrs01NsedZeXBzyb4+F91B9RrEIvLf1oIFzr5D2tZSpd2GVe88UNSvv0LkjxNBl1ym9fnddm+mBs8MOYL3CEtBkxHU2DlZH+j2vNY0hp8/x0Kxr7L13qxF8ZOQyzxJ4Wz9iz58d1HTfMh/9oMnSMZ8hrLo23DJVj27Pj//cdvoKS/hvyJpMH7w/VlwOCgyCAeLcFYtfBZB3GgIlWgwr1StGFHyY6jKJKj/9BkpEXI2onDZenwj5X/aGXuOHpFrGU65iN8Whi5jGbepBPJlrkT1V+LeFGRKohde2wLaeGGzzZQkVqFccP+B1n02I8az3+CJfowbMA4InM/fxm+m7O0/wtVbyL3vdaPxUxw4P/cqyuWNscofG6kqfF8D/DVXSgTIke2b1ar2+E/1ir86k93k7sad7A1KIks/ZcMfEdWfT9U8dcEtOlO7GC+vXYzKKL5JArL+Pt//02WfPmx1H93mGS/s5SP/iwUOP+El6SiFYITzkNlyaL5QfFHJHIYdYz4k//CS5UxN+hLAvjfM8/KQ53aaXl/w3Hn4I8i+hAI3+KgySgdjP6IjAOf9ZqyBj46J97xZ/mPtXjwQeMA/Uc7STsgLv2hSDnf2mPnoLN5TpAyATqAnZqIbxQqkWJk3bNPS8TqNcwpeR5/XHK3a6/jjQwC0rOPNERu3SrJs2WTJKlhlmcKqmCa7SjtW8Tv/hJLeyO+wl0MzpEaLikLF4kfPgrRJypZeigt8PlgpayHljMLP2LXTlnThjujRNKEh0uxvjQzu+DDyrK0ahVNT5Ylm5TCIWvU2Amf2CaIPyolYTe/2EWO/7JU4ZcaN16SZcvug2/xJ3wCUWZ0wwcYQtJ0k+Gq4U/H8Qd/QpFS/FmfVmhq5ZWB9Zdq+ZRU7NBVBa6b/jT78w0+8gTeUtEhLQfM0smBLfPhj0onvtZGdq1coP3/4OcTIWggSEhzpJ07fULhp4A/mpv+Fv+LWK4b1bGKKlUUqk9N+1MSwQrh7v89qxbLxFdaKP6hUDRaD5ktKWBJCeQ/gc/GoS1rYsGPxjEBXzY3CgTxbzHgJz1s0cIn/tt1efMhFepZMfk1GzgDfE3DvqHPTipSb7RV+MS9zZCfJUO+22PBH9O5rhzdAksVkGw3klvm8yv+5P91VKR4UKFWaGrllcH0L39jJCesF/XeHCjJ0maIhb/mUoL4+e88lsEGNiys4y9/ZezawzKQb/yhUkt/wmf/r8FEsRDKJCsuUKme5vfBZ34oQeOebSRHYBngF564VJgfCpppH64oF3nimHzV/m4oY6eRJ5E88On3kqtYOcAiVVzjH8971y9DWnnEG/is5+J5KFI4kJP4ZFFn82kSdfKoTHqtLeCuVfoXrd1cqr3QXRIn4rImczLgGoD/L7/9Jo8+9pTi36z5g/Laa68kiD/r2ThjvMzuyZeCEClYtQEOMR1o6tfq2VLQF/eOmAgKn5aLxbBgEP8Cd9fR5Tc3/lQmxz3XUA79uQ7twTEAusRVR+GQ/8+fPQVFCstlRAuh5v8+kaLcoQnmsPAXfQklA7sKmedeKFl31AbvB+Bvx9/vk+Fs3u81zcvl+7xlqiu5Avuf+NvxxxeIU0cOqG8c49k4N3ziPwtWr83Y1cv0+3uMl1wlKpCp8MxWoa1B5P8fsybgpesZVBaCpc1BUgjnm7n738JnLcRx5Vie+cWXB7x8fLMMimRyH/3PQeYMbWZ8Dmk1ffi7VbHgHwC/jOtcX/s/DSx73HGcPEUa5EH7UCnxj8Jy+Yg25WGBi5BksEA/NHaVJMGLMOG7xz83eaz5fojyH+ezKlieL47lRGLK9ukV9KcVPTH8vhLRjzAI/nb81apbTw5i5YNdtmL5L+pjxXrc+LvhEwjpX7xkWYXHNOZ/Dhaph9QipRli4Z8QfBZOqP8D8bfwLf8pfLQ9EH9UiqyMDd7/Fn8P/mXoHxl1nl9yAZ3YU3oDojpBn9n9IpF798iali21J5JkzCClcEq5WnKcrNohrMJ2la8sOwmBkinEshPjoEjh+IN9X4/kKpKED8fJ5gULGm7TAizD9hj4pgTjtKjN4f8lQyDr8kb1Jfr4SUmaPr2UnkJrBwvwh/VclF+qVuUD/kKk9A+TYE3LpPAvh78Fu/nll4W+WgxFun0oGbU+PDjwrwZ/NgNj96rg8/iDPxfhHCltgeui9OWz01LQrlz7LljWew50ARBNv6RHJ9CqRfzD8eZd9en3gsLfjwMBv3/+fqV/pcfelBIPPm5gWkK4QOttAP6zcfbMJlq10J522G6eLkd+1OXv/597dsEkOE4NVVU7f6DWlIT4zwcWNwc2Lpfx/2uiYHMULSsPfPZDHPpz8qOCcAYWMoaO3yyH1Skb7ki5GCztQZGCxYRSO6xMDWwzx9Kh8htzm/DrV5/CKvWZPjTtNUFyQsGw5KWP1HwoUr4QhP6Gd2N0SavWS30kGV4sLHz9BS7u/je+NsZSUYC79mBlS4j/J1PZxTIrQ5NPYEUtyaVoh1LO2NkIC+XPPbFlG+0r1rCNVH8WVglfHigis8dhmZefv6AVDA7uWE70hSsYf7TeqbM56s96ezje7r+USS+3hoPwZm17sYbtpNrTH6B2vvz4+x8P2gw3/jNnzpKusCQzPPbow8YX5TLj/7dvPpdlI3sqfuFNOulhm6ZuEtf0tVao/RMc/sRX22C5egHqwNELsODSr9CUsXWIbJg5TuYoHQV0bAc6fmTy4KoWqSZY2gM4WmYf/m4NfOGSx4K/Z9USLGM3Q+4Q9e8p0wpLTQH9b/lPz5GiRQrtaQhLLJcDnV7VMoQTJwA/ohvY/6YAciN94yz4YmHcMY7nmt1Rq3ks/rPwfXUD/uafJ+AcKe6chGX3zUFSEIpUfPCX8ggKWKSY4e5HXtMjKNzw2f/fP98UlqBfNc9TP+6QxPAZtPMPX0x40C1DXfj1FYSfYDD+/w0bC5YN/0Tz0fUgGzY5BMrfRQOwtPeDsehmphWx/0zF1TTeoSZ+3PwXDH8LvwV89zbBd4+E4M69TBlh7XOHeOhfv2EjOX78uLaP+D/T+Wlp1YoWVO2sK4bvtNiQ8xr7/3LjLyH8PfiGc3QgBKG/WqS0dxyhyTwkmmU4JSAiT/zyK3yLIHARkb15C8n7jPEn4MD1EZl3Opoplk28rUqrdzJaGFwi28sdOgjFsSuCJ5vbtED4TvMUfhR27Z1YtkyiDx6WcwcPqF+PKkKAefLXX+Xi2XOSJDSllJkxU+tWnmXT8Lfu8UflLHbbsSmpi94pOVu1kTTFi6vixbZfDv4efDJgz9f0cYBvVIaMkqtTR0lbrpykzJVb464Gf0NpzORszWXob/GfDkXqj4X0ZYnBbrxvJA98pIgLrUDcpbN39RKY8Lv7HI/LU5lq97ypHhmXj+2rTqEoImlzYDcWl8MQYi5iktGJh025pJ+h4ZIE674NZyTVermvJpOGfMvhlf5U27FD8MS+HbA+HZBzp44hFvVAqNDn6OT+XaxaWg6aBSfdO5T+LMrSY5+pL4fgAMqnR75bi2UkWBqvgP6Ev2X+ZJnR7SmUDNGjHUq3flbrZJvc9DfLBKMVoPpB3A6fDAf+DvWRgkUKEaVaPCV3PwQfpwD466d9LXNxSjbJUufNIVKoSl3Fgfiv850jFaOnyGt5Yn8J50gdOyxHt26QZaN6Acc1CjMnPq3RtPt3Pvikq7ZX379J1Bjj56JLewJnc/hIvW18pAjf9r+b/l93qAQa7wTUGOn8007jL6KZ/ePvFHYofdW+opbPW7qaNProG5KAlNLrL+CV5aP7KID67w2TAhXvc9JMLuaLDz6hXITC2q9eXtzBRw1KBHc7ntq/B0/0bQM8KqjwkdH2a2VKAh981WT5hAwzZ/8sL3V9heyDIxAelmefflLzJQT/N5wNxSUrwvcpOJzUUNLgSAQc+sUD/6sOFeXUvp2KaOefdsCKm8QUcuog/JP7d8OSW1H7Pzfwavwh6WigREWckiGwSJGqWQrfJS36zYgDn7vWRj9SU3Er2eQhqfzUe5rfjb/lv7XO8QcAKw268RypGkH738J30NL6OHZ3LV+I87I26+7XM0cPouxFLX/28AHZj6VW1lsNFpq7GrbHXcLyZxP8KGf3gCKFYV0PB3IaixRrUFuHUsjCX/JlN7VIsU5zkGgN5ENAdtv/P334JI5vmaLRD41dCT9MvtygBmSYRIUWVnCG3KWqYsk+I1M0jfCp9NDyduLALvhQrUG1IVId1r8767VWnLQeZZYQtTCuUmdz4Prsh1KsQftY8kfr1doTxl9xQ/sffLCV/LH1D61jzpxZkhHuHMHobwaLTWHjEVz48x7/DV5XAV/px7IklVODhaJtVEC4c/C/Gv7X1jgA/G0zdxZ/D74hbbz0930ixkdB3JBqyl9OJB4P/TBBtn3eS23k+eEXlK3pg+g6cje6k5JPmYLmVdPN2q82mg/2nr8oFgMb+d4hX8qekSOYqj5SevwBMwaBT/64cDZCdmIr6iH4YZkK44efODRUys6EIkVOYHDgU9Ha+MILCj8RHBysuE2eK6ekK1FSMlSuKukrVJCQpHiDtnihDoc/JfrIMVnduiWUtUhU6oefJEN6SVP0LklXuZJkgpUqSRqYpB2Ybvga5+Dvhu/PGz/+bI49kJOVN/oAZ8yUrxGH/ke3bZQxT9TywX90wu/w90intKCT+aaZcHoG/S8PX1sOS0dVWDy+9ZGD/bPyu4HyK6wBF9Tp3iDKgR2s/1sNmo2dQrebvmBW4D/w/ttAw7NK/6fpd2OqQCJu4ul/2x0rvxsgS4Z8iLKXsEzyqdxZuxXKsaNjw1/29afy29fGolQHy2uF4CircAB/x/I5Mu31Dgq/auf3pTisGVqFC/6mmVg26vE/ja+L8gWrobzDT1zas+dIlaGz+UO0pMSGzyXIbzpV0wkNiVhOGYfllLt9/B9Ifz3+gM7mwL8AlDZz/AEAuvjPwo/BhNK3Th7wZYiEwsn64XFGKQ2kP33nuFzIkBa+Ku2/WhIL/o/YvMADXol2ywEz1ZfqcvTXyhxC8gDS/s45UsH6v83QeXoEg2Y3XRQLvh1/TP91GZb2Hn9K8W/W/AF547XXACo4/rYjN8/5AY7Ez2m+gljerPP2YAWlbUSdll7xwb8EH69+dfJqdXRWf3gcFN8g/HcRx0sMwBlf5F06lLcfuRSV4wH0j4az+SD4SBH/fLrb0rHqueBT4aXiy0BftirPvBfv+CNvzcfSHttOx/S8sJha+ePDRxEy8K383bHsZ1kw6F05uWebwtEspHlgQFzVZ7tJOHyp3PQ3daPRLvztZgbCr4OlPbVIaX1ELjb8JVjaW+4s7bXoPx1KZTHFwZcdcGkdpSWa8ufhb1dJaKaspnWo7stmJYzLgQ++SWK7fPgDpOKFC8f/3djkUQbnuBlA/vG3aCB27f0wVKOpzIeVq26zxMt/wfDXQoBf897acvT4MS27csUyXQ4MxJ8NCxx/pk6nzahH2w4crkz+ksYo5MafdWiIS38P/t9Hf5+zOYUA/VM4WbGLGHSNXV8DYmTft9/IrgEDNLHw2+9I5nvu1fFmMhv9l1etx+l/HwMoA5EbwBMAoAMfqt0unCO1b8QIhRU+/CtJiaW9+OBz4tgE/6STy38zjIVSaeAAGFognySh3xRGGuHv+/ZbdcIl7AoLFpkBGAD/9IoVsmvQQDm9aaPiyAbQPdLinxb+Vbd9+BHOpEqD9jhvLNpKzShROBtkV7++cnT+AsWJFwoki39iLH3e3vNTSV3InFJNuQBAmteNv+LKNCazdAL0N7mgSPFAThx/QBI35K49CgiF7IfPeunou+vXuQqzEd6ew3CcAQtNfLmN7FmxEPcxemhhGjhZM7jxZ90Mtv/T4IOv5lMzjBT57Zsv5NcRPXz9nxnbqbPeXgJnR2VVh2zC375kphzeZKwxzfv+qA6jLEv8L8IvYWAjbCzAM88o4qR0pfizDuPUCn8T0I5+GwWhILnpz3rZ/6vHD5ZFg9/T+2rPfiB3Neqg8Ml/O6FITX6jneLI5a678MYaSP9NOLxx9qcvamX0vSkEHxzCZ93rsbQ3j7v28MxzpCpAkbL9b+Ez36rxA2Xx4A9ITF1mLdf+JdyiEJ6dH1TIakJ0V9LAxuAZPHNprz6W9oLxH+s9j7OH6JfDzOlzF8QW7/m4DT7++tTKrfCShqaWxyZujgV/yqutdXmQ/d9h1DJJlTWnwtc2KT/G5X/CZxtJfzpJ8/gD0p+EIR5ZsMR3CH1Pls9S8A4cRDoVZwol00IJ8f9mHCvyYItWWnftWvdKz08+ihd/C38f/LYmdHlQ4We/vSQ+UTNF6eo0J+j4d9P/PHYKDsGOO+JPH7g2wxco/GD48wPTTOTu0Ccm4YgGooxn7tob1BTO5gBaGE71/LhvIPyT+7G7sFNl5b/wRmZJPbD/Lf/xQE46m3P8NcDY9Z8VZ+Cxbou/aSyOklmzGE73zfAILkAileswWCDTZMkO2oeiQIwc3b5R/pg/Tfu/8pNvS/gDj2gfKa4sp/1t6tY4PG/CkRizumMZEqEul/aw+SQYfPb/UrVIDVD4rQb9LJlx/pYqQEon0+jZPbrIphm0zMZIxzErJDXPm2Pgi8F9YVqWuPHoEit/DDE1l4O484Mqc2JzSm74IRK+m/8XDYAi5TibtxrIFzm8oKDihPgvGP52/IWXLKMNSJUazuYLDY/Y/mfFgfARYeikMHHPwfAX4DvYax2smzTy4JOupMzfT3+jSHHk0YuSne8E3mob+QwmODR5imzjLhpo03mfeVpyOP5STnb90c51Isy9Dmut1j5bIHzeBR+pvfxEDOAXH4mlPezasyEQ/qlVa2QDnN0JP1nWrHJnn96SQpfTbAnT3uWNGsJH6ri2vfzCxQ6JTRqHmhv+OShEZzZtkNNr18vReT9L9DGsZTsha+MmUuBFTqIIHAQq9XAP+FoNqrqA7wae2fA7/jbIsYULsWNwq4+EKfLkkfCvv8Fyi9/BORC+byBcAf0t/J/ehSIFHym2wRx/UB0NMsGPncginPO0Gjt1iG9N7Morih0rhD/38644d+lbRaGhKljVDG6X6X8LPzrijAxqAuuSA6zB+yP1UxxsgRv+XCggv0MRIfxm/X6U7IV5npI/x+DGt8NJ94wW6jx9N5ZTkMZOdwJvmVtDAP35pqknhiNTDTr21mtjsuFqq2DZJXpQIzccwNEaPhf6wVUnxy4s7VHZJJDqz3wsxRq19Rd26tkEvxi+QccAft3XsaxBi5TT/24fKXMgJxUpfxXmPkS2oa+mYYMA1ZEi9zqHReJe0y2STv8bi5TxkbJLe8iKzMgYyH/Ao2/tPJrMnZePY2IPBp9O5ANAa8JPB4WrLRQuBgt/5idPY+v/JB3/zfCdPJ4FxWCbpg/B4DvAfD5SyMioe3F2GJWJ8c83xrLmWq0pHEtZVbGU5e5/C980BE/gv4gzEXJ35WoKMiwvjj+YOEHvg+LvwD+1f5d81QFWPoRkoMMj36+HMp/EoUXC8kfHn9IxTOFTQSIdGQLxj4Y1fCD4nm5ePFiyLRQuzYS8dtcem8RzpOq8PiAO/FP7dshX2IBBBuKuwGqwgsY3/ukjxZPNWZ9apMpVj9v/Dv7IooFK1L41S7VJXM4vg7PNQrDL1Ewxpm82zaa/E603IVLliXck/P5HHEZAZfGMfx6RMrMHls7Bf/rSUgmKFGEHwGcjlsIitQIWKYZWg3/GwbigF1pkacn+51lXGzGuWLzjtyv04F3lbcAf0aqsz3r7xNSt5tBWVpYA/zHZBneTeI4Ud/ayk/iSkRG8fzn+04Y6ldk283Hf/r1St15jbWbJ4uEycgTqdQNzyrijzP0V8J9mxCUe+mvV14C/B589f/Po77JIGblgOsA2weEQ/JxasVI2/M+Y0LNDychnlQwMsBBIF8OkyKgcSAT8cZYp7S9r5bywdyiW9kYM56MUGzxEUt9B8ziriAt/D0453jNqlKbejmMO0lemUOKjH/4lnEr86z33KJNzAFOR0iy4mHrNr8YhgvzpC3Ca3T9+vFqaCD8xPgdQ1vpYIZPhZVOLrUvLuuDbZUMCI/xi2JGYilY2lsef/WU54u+G704Phr+F/xOWYvjRYuZpBB8pOkoHoz93Ia2EjwDrrfjwazjr6CmFv3r8IFhIIMSRULvrFzie4AE2J1b7EoJPBWTK620Vfommj0nlx98JCn8CJtK9PNUZdTfrhwm6cLjC5zPD9y8+IPvXLtP7DjhaIC3OnLL0SQg+qbht0U/y43uYBFB7ubZdsFX9f4h1atZKDP/NhMM7JwJGteg7TY+DsPB3LJ8rU6lIIVSD43DxBtySbOlg+I8Oxuqojfi6r3NpryHuDKS1sEipszkIWabVU7BIwceKwQWfObl7cCoORyVc+gzRt0azISKw/81ZQIVRRQyU03ux9X2k5uXF9r+FTzCjHqqKw1G3K/0fn/Injo1IGQf+ib20hJidqvlwjlOD94ZrnZb/eBjqL3CqZ/u4Hb0IPp9yOfozL+EzXMJJ2gPqw5KAGtQ/qO9PaGwIfI62yUgoDjYv4RI+nxksfPNk6Y6jAdq2l/W//458ITJ/3hxJly6tZgmGPxN4EvfQB4uqNY/PDd6DYo8jAK5E/rBOBqWjsxz25JQ/YMExu8AsjsxzAt+cYz5izm8r1nPoSESiz57E0h6sgwjcOVj3jUFx4BtFqjLiebwClvZwsKmFz3KWTvxdy+MocOQCgypScDaPD3+FjzOrBjWhRQxnosEXsSWW0oPhv+zrXljq7qX5Kj35jpSkIuUEN3x3/3P80NmcHc4DSQtWqedrqxYF/lb+cGmP3ztkhjaDZ+MkcrxwIZCOtn467FORYv8/REUqk7FIMX3Kmx1kJ5YnCb8dPyydMx9iTUgIfwtfcyow+ki9Bfn3pcKlIpVBFSnTDuaLj/9MO8nNlOAmzP55jrzY5SWUCZEn4GP71BPmE0aa6sLfPOOKfJb+h/HVjHNR57UdrC9d2jSSNm3aq4LPeq8WfwufZd30J34MV4M/83vwSTPDHeZKqiA4/Q9FKgoWTRi2kUqC2y2WzGOIzi7BWSQ4cn/F/U2dOCxnTJ0mSdOlQxkOJBa0bMeSJhhmZGmnJvSGmlYRw9w8E2pbj0807o6PjXIUH/wdn/aQAxPN1t3iPLwTCoqCdcE/Mnu2/PnuO6jZhIpQpNT5OR74Jpdpk8V/3eOPSQQsTAzlps+QxKlSGyOEtt1iYtofCJ9luGS4TxU+kTu695B0+jmB4PgzP2u6Evrr2Vsg2nQ9R4qKFE42x9p/HgpZbUhs+o/HjruDUGSIf80XesqddbBkAhy2//KzTH2zo8LNi6/K81teVwP/T5wPNePDzgq/OhxWizXsGAc+rQQjYSXAiUUKv3k/HE8Ai5TBgVwhMrf3K7J+qlGMy7R+Xip2fFHrjK//Lf4sexCOpuPgrM77dDi5ux1OeQ4MPDF9WLOSmGBPISlEHhqzEkKbxysY+MbZnIpUDBxvP8bWaKNIueEbi1QX7f+6bw7QJUTCZKAipccf4L5MK5xs3ulljXdfCGnZ1z3lV8dP6/Z775d7sXuPdfh7K3b/D8SEyDO0MuKcoTZD5iCnGX9u/AmD5adh4tmOiYdw1FpQuR6TfIHxq74fqOeCMTK8SUep8tQHiPXD/2PeRJne7Wkd/9mxA7IpjrrgkgqDwTV++EznYZ760WK0yHxrD0dzOGHzLEzCsGawJlrN2gybI6kzmaXD+PD/HD6Qw53PcQwe2F8qlC9/2fG3fPQX2MUFazkCj3eor+dvEarhPx8mAfJHC6DdU97oiGVwTuDwA3obmwqwrMrgxn/NhEGycOB7GqeKECxKho5QpPQcKaM0FHIsUqa8H/7JfTug0FYC4blbFooUypsQu//Jf1uovOCLA6y/1st9pPA9kLsJyB9+omlEa7P0xOVnLkMzuPHnEuzox2rg8NvtmlYZFqkSOIGdnJDQ+N8MK9YMKFKEXwcKYiE9R8rwj8Xfyh8qUjz+gKElLFJZeJyI6T2NYx1c2qMixRo6jeaYzOqDv3hIN1mBpXDyX9Wn3ge/dkK+hPkvvvmHPlJroEgRPk+B5/K3oSGpYtqvjboM/oTf64svZAQ2RXFYGJ4sh1KGP+KDz7oJqXhJbHBRiPzBOVLPPqfHH7C8CQnTn2V1Bk2g/y39bY32193/jLtW/D34lnbsDRMC+z8kMiqaPUl2IqmdEeLcaylzT5P2lrfflqNz+baDrc4NG0i+Ll2xJJNYKydD2eF1Yuki/dwLl+BstRQgfGBtXGYgU5747Vecy/SC5slYo7oUfu8DJ39c+PtHfSM7B1JAXJKCXV+WrI0baR2IUMjRp07LOmyZjtq3X/MwtsKiRU59iCJ8bP2gX1Ta2+9AOyDkEJWIXOjgf+lclKxq1kyicbaOWqTorO4gQPwp5CL+2CShefNLIvh8EAcGg5m5bnn9dTm2YJ7GFsXp7nRANxlMuhv/QPiaUVGPi7+F/9P7j8Aixbd+x0eqbPVY8OlLpl+P59Z8A1Laj1oqabOGoU0xustqzGP36GnihE+Hdf26vIOn+THwL+LzGzswweSvUNucAQT8efQATxRn3YWqNVYrhgFjrnQ+nvlxZ/lz/lQf/Ob94SNViEtG/v4/vHWjjH6ylk7ghNkCZ8bQ18oNnzDOnT4ue3DmVOHK8INSiQFLJ2CMeriqfk8MlUpDWG7ywoLjFNZf9yGTuUpUlPu7j9d4Ykb+2wH/MfpIUYGujk9WFG2ApT0CVNQN/htn0SL1vMbXfc1apHgyFnbtTXF8pJBaRn2kaJEy5cyvc0zDc00cOuCEZRxMWgSTouX/YP0/Huc+Hdi0QmFyt2NmOukTosN/5H/C539dqnE+8cNjIJp0H4vt5MmddvBbf6f0cx+nsMuJzN700/GSA99tc8Pnd/B45tdpPSYCH/x94VP4zjVXmIRhcYqB5WcDfFuK1m/pg0/+9y3t4Z7HH5iPFpMOCCg/o1tn+OVg6RDwc4VXkEY4YT0JdsWxbDD8V69eKx06ddLCrbGp4+WXuuh9MPzt+IvC4Z9D7i9q6Ayg5ds/D380yBW2n03RXyg8WOZcMW4AnL07YkcYlGrEc/zr8hXPSkJGHurZpMcYQ0eWQwVR8IEa92QdOXlgN54v4awtHIUB3xwLn4qUWoSQnweP1nndKBNu+Cf3wtm8I4+nEClBRQqKgoVv5Y82FBn2rluqXydg+Tvx8WW+CCWEfwyUpH518mnx1Jlz4tTzBeb0eLbfwX/dRDqwv24f1ZJMHym3/LPw1fxA4Pivzuaw7HI2NxYp7Fx10iz+BgxONnd8pJi51eA5/s/paAaTazYsUnxBYUPoI5UG3++z+J/cR4f8yoDLT7ekkTZfQvFWH864/M/T2g9i6ZhHQ1j4PmRRudvZvO3w+fgETCElBsnh5v/L4c9dkA0a3S97d+2VUBxfMmf2dEmZApZfAA3E3w0fYDRPeAkouGwgD3IDXjxH6mGcI8Wy8fW/m/62zoT6Pxj+Fr6vwwkMD1eLvwefFIvLf4H9D4sUFCklr5IeWivpTS3YqEYmVnlAInHswOoHm2p2vsWkxXH5uTt2lBT5oFjgjKazO3bL4R+nyRGcB1Ns8CAs1VG4sfN06NmqNI5r7hfPn5fVLVvho8EHNS1TzZq6Yy4RTOsslapQYXxEmAoAPhCMpcX1z+PNCPH8JE32lq11d1zSDOnkzObNsqNnD3w8+LDmRRZKSKkwf2Es+BdOn5bl9epKirDckr1xU0l9113ws8qln7c5vWa1HJr2o5xeaSaxDDVrSJF33zP14Qo05BLqXIdBQGUta5MHJMPd5bV8CNobsX4tFKiF2FEIBQJ5E8MpscxUHFOQhD5SwfFnM1Ez/sydPiVAf8Kfzl1WcDYn/QtUqq1O3KoUYlfRmSOHIIR/wbIKJk7k5QEthao3kPuwLMVqbdi9aoFMxlk/Fj7fTAvXaIyznvLqCcncCr4bzqt8o+N31zrBmpM6Q1bFPxrWEvo3qWUHRCmGJTG+hWctdCc+9rpNz/TZvWKBDz4J1wwWqWywSPkC4tj//F7fGsePi2mVH38b254rw0E2FyatXXqQ5FKcF5O5UFFpgmVM4s/+5/9Ns3+Q2ervYah3Lw58zI3dhdyOT0VzyfCPFH/Cvx8TXy7Xh18Zt+vXefjMDS1SITgTiNujzTKfm/99PlLIVQ80LFC9oQ/+2kk4kBMTEwO/XVa4Wj2lCZU8Pf4A28/34xt4hMX+4enO3BWXDA7fjCP+lv7u/uep1nM/xxEA+McT20vi0zRp8G025aCkSbH9HNYSkoDlseNs1PC4yp8AAEAASURBVENV9JgJfsMyT+nqcNLtAgf+MDm2509Z2PdNnAa9AdlD9PR1flJDQwB8+tz9BD8uG+7CwYVFat6P3XYF9UgLftR6OTYYHNy6HiebQ5lw4JNWPK+rX718YDds/S9SAooULFJEzOG/qIgT8u1jtXA8Bl9w+MmiF83ZZvHgzzqbNG0hW7dt1VOk58/9WZICb1Qfq/8N/7FGQ9+VY76QpcO6M0LhF6rRUPKXr62TeQQ+4nx06+9w/B+MXWFHcLjqQkmfI782k/3P7yxy2Y6WVIawMtVVEUuP3XnHdoGO/d9E+Y0KPzeUwftxjIUbPj/WO7SpGRNqkXptgA9/2/9c2vu6I5QEhOKwDFaDZZBkInxDMH1Q+Xv2OA6ubB6uKYylBYyfpeFhxOSalGky6keIlVcd/Ce+iMl+LfgNgbtsizZoLbmLV9IPEG/ALrk1/FyKDSBmlcff1W8CuuFTaTCfXCIUco1ACZ6sfk904anw2Ov6kV8k+cY/eYTO7Ikw0y8e+pGxSCG91VAoUmHw9wMs1sS6GHTX3qyxyv88XT1VJihSrNAJy3CC/m+jvkAMjpeBFfNufGczB44OSZsph0ScOiIn8aFxyj8q9Rny5FdrE+snfPaJBlS3aPC72GwCnAG/DSxSXNrzBcTFN/7c45+1rV23Ttq178RqpH2nDsJv5bG57v4PBt/yf3gpcyK6xV8/EYOTza8Uvm0z4bvl35XCZ8Pd9Nf6rgJ/D76hwOXo7/OR8pHb9jgmYf3WETkL6jOj0ZdybP582fphNz2KwGjzJt4S3Pxigh0In6eid+DRVKhXMqAKWMRqB8eo8rHldZ7i6+puZgb8Ai90kawPwIfHgb/l7bfk6Jw5CoL5A+GnK1sWStlhidyxnUMLPlKY0F3wL8Bq9VsDTER4u1K0FCPTPjf8pNh1d9fQYZIcn75RK4gL/7X44ORZdSqPC18b5rTuto8+wVEKMOW74BNcIP423QffNEfxD0Z/84kYKFIO/nyziRsYmQjLHPi2GT57Qt+ZQPqvwHlSPEDPDZ/3mg8XntJK+lI20QSfGjvyLCjjDPuqSbeRrkbwkyg576qAbfVQKlFjczibqyKFvG78z8GSwIM7t+t5VawoOPw82H3UBL5FblAXMfnNwCdmti2e4YJsb5kzEf6MYy+PNwjEfxd37cHXizDVItWwrYGuGVkUO5ZmfYdde3A2R3X1sFxC/xcbeHDgwn5vapqN8//64bN+LtNxuSl9TkzeAfzPdAbb/1yCoaP2wY2rffQnfNssPSrCyc/+2bNykUx95xFVeLUivcSGz1Om+a09+s/EB58fif3tm94GDoC5+z8h+PRRoiLF4F/a41jmCwQGGu54uOuEF5wXMHTLAz1h0bmrnOJsMbP4swHjx38v77//ocqfPn2+kCoYR8SfWNlg+Z+RNt6/ASA2/iyj9GNewG83bDEsFHljwd+9aqFMe+dR87mdePAnHRuTjjjg0Q2fipR+IgZwzNJef8Dz40/4qkjB2kL4xRt2wiGlsEhpy7Vleq/cbx7xSR7jz8Tx56Y/60qP5Wz6/bjln/3YMNMNRQz/W/qy2mL128m6H79W+Vf5SS7tPYxYP/yDG1fJ+OcaaVR8/c/aGSz+LfTIjDs1zr+0FwOL1Fw4mxdGvKlfr6D/7F7wkZo+TqM7jV7uKFKmPuLPI0P4Aec/5k4Oyv8KyIGfEUpc2y8XKBVtvPmNgY/Ue3A2H4zHEN1goYqU9j9aovKfGJBP/Pi76c/xT/n7EdwzRo8eq9VO+uF7yZcvr95b/FkFa4kd/PzPjxYzWPyfgzGgU3ucaeXMf5eDHzj/WDhXCt/Wb+HHN/5ZXzD8PfigHAYg6efu50D6h5yNPK+5SEQmMvCqhGcdrglVtWCkRh8+IttxptRxKCoc5Az84dBNhPObsj/4gORs2UaSpE3tpPvfcJjXBCcOBc9guW3fV1/L6d/XYccdD3XULpX8OO8pa5P7fQPqwplI5Bsu+3HEgbbR4KjVZapVSwq99LJsfKmrnFq9SgdLxcWLYsGPgQVsV/9++J7eUrUqKfNoRcTXtCdr/XqSsz2sbDlzKhEC8T/43Tg5MmumnNmIoxNc8C3+aUqWlDyPPCJp7sIbJQhi6JMw/iS2hU9knCYFhT+jG75P5xxoFwifDttpc+XDd7wKS7G6bSULrEQJwT+MD/7Ox/ev+D00P3zfkIKFoyrOjamHHX8tcK4WvrQOqU5MwBT4HtZY+N68a3beudrMD5HWfrUvlgQmwDeop8KnjxQdkYGmK/j7fzM+GMsjAviBWGJv+58FqJCVxQ4kPXjUgc96DI3wzb3x2MGHt08fzQgBGZImT40lkY+lML7pxQhTKxNN4MnmVKQgz6T6cx+Z4w+0Fls338Yn4WO++GQJCF0PJ3bnq1hHayL8ddNGyXz4ebn5n/EM/G5gumxh2E4fBvj3m+/woQ6bbnL58WeCn/7YDYrv9fGbZdt/nR2gUIWoRYj1KL64IXxaUmbCj+UAvh2mgRk4WYD/8pWvpUtDKaDcMtof4sInH8zr86oc+mO9ycv6nfGfBha1Ek0fh3Wkg6ZZ+Bd5snndfNoe7vhTi5QLvuU/c6bXpwAf4ny7cAWstXAL0Ipi4x+B88UaNGwixyALSpcqJcP5bUu2JbD/Nc5gxGoof/auW6YHdO5f91uc8cdPERWr3xYHsHbGEQapDE+44POsJ2713+dskiCiFn86ytd4vicOkDR0tPgTP+7aM+dIOYoUjz9w6G/xP314r4xsw0k1BHR8VOijFEz+EBunSbqMvnrCMFhP5wg/aG3xz6CKFLbgB+B/ALj//FlXOQGrjRt+2hx58QWDDzAmUpglQ8Co/AQtUg/Hov/+jSugSDUEfIdXXfi76c82MhB+6yFzJUMYN0iI/GJ37SG+1UAcf4AjByz+dvzN6/0qXA+gzAEGT4BP6XwP0M3/rIu7XRfidPLTh/b55L/FH8lyG5bIi8CKnrfcPXxU+Ox/lmW/LRmMT/KM76/w6SNFX0pEu0Jc/mcbGXhl3uP4+HS16vcq/Br31JBePbHEilSmaR7cGPzMsxu+pX/FSlUlIiIS+VkuRrriCJ+2bVorhMv1PwFZ/nPT/2rgB9IfgJ1wefw9+FdO/5DIc+fBn07XKNXJ0obIhj2QpsmGvcwQMywXA0fTc/v2yrndu5EnRFJkzy7Jc+fS76opk1BKYm1YFQp2nyMIeV4HuFOr16qvEv6Fkyfk7O6dcvH0WRyFkEVS5svn+Gqx3ZBgEKmXg38e3+07j6VAPSohWTJJmjE9vg+YHQdppr0i/KNPn8J5UvtR/ihwT4TvCqaR5FmzSdKsma4I/l/Bn4Rjb+iFBHSC6bcrw98NPxq+UCewa+kkdnjRepUaZvQ02XJJMjjaa+drJ8Xtfx72eHzPVonEt9WSYWLKUqgYzPz00bk8/d3wLf+dO3lM2xGBjQ2hGbPoAZJq+o8HvsWfSxL8YPPJvTt0KZWOpSxHvrsR/He96W/xN1KZvXhl48/i73Q/nJ4j5OiuTerTkxITfsawgvhUSehVj7+L+OYfP1R8av8O8EA6PQE/bfY8GOL0h9TOuK78Fwz/idiI8tbb7wC1EBk6ZKCULVNa768UPi2WJ7C8eWInvvuJMZ0KvjjpchTAN9ISg8wJyx8edXAUS7NRZ05AccoCRaGQ8TlS7G8O/o6EVZwNyeOOv8D+J20uXjyPftstJ/bvxJhMKRnzFIFib08IdzjrMvg7uQDbwLwa+Fcqf4ON/2D8H4Xz0ihjzhzaKynwEenUfFkELyZKinPJnOahoRpMu69e/gXjP9K/d5++8uWwESoCp06aIHnyhIEUt3b/X2/6JyT/bzT9fR18GfnvdL/2zd+Ff8hZfGvPp/Uqk4AR2XBeqPhg0PEUVtqknelb30RIRGrJiZiuBchiZGJMAoq4qUbTOHBZgAoT/7OslmEc7q3VS+M8+EoGJYxHf4///pvj7yI+WdSyZTv5A4d0hpcqLiOxk8+TP5SjRoxSnHry98bNP8eOHZcaNe/T+a9dhzbS5Xks8ZPoHv29+d/Rb9zjzzib6xuKGZlUcMz2Z0fjUc6h8mNKk5XMnZOOeD7TOd3JakY4n62t0xTQdF5MTpuMRA8+JYLSzaO/x3/e+KOEwA7Rgwfwd1CSp0gud97G3YtmKjPiBFd9I/PkD+nhyV8zq5AWvjf5vzD/nMbGpK3bt7M2KVy4kKTGuYIe/3njz0gmckJs+RMSgaU9ZT5ai6jQOMJJOcin8jANMfxBPmOF8ufgQoRJND9MYZ2O7qVVXoKikAgRzKkRyMEJw9nMjTgPvkd/j/+88QceMBKJEoTSAsGTPz4R68lfb/7BvGlHBn+9+ddQwY4RR2LcVP1DD+T0dQXao/oMW0JFBy2j4qQGI7bS0XU0WXO4lCU8E53AQIXKLPiZFN+yHm+YyMoVEq6McmQm4zz4Hv09/vPGnyd/aL038lLFpRGlRnyqDKW09OQvZ5LAQLp484/hD9LGm385TsAV11v/OOtYpHSAWlOoixt1gDLR0XD4ssg4c3WzrtM4RmkhzaTKlc/4jjrY/sCg2RnvwY8jDQ1tQByP/kobj/+88ccxEUvI2GczS8RKMuKIJbD45ckfT/5684+OFvfFm38xtfxF/cNZ2lNSqgCyio7ubFGJpReXbmQsRVbLd0q6+8WnDKgChQrV7wdXI9SQrAIPJRFhJkanFvx48A0pPfqDOcgWcdR2j/9oqfXGn+EMR3J48sdNAQpaBE/+mgnFm3+MzPTmXyMzboT+gV17UVw/MiPPUtoOQ2g12FDnTGWMJEvCyKwWKn10J2opXuw3fVgdjUxW6DtoGO1JrU+sHH8efJKN5HXRE8zv0d/jPw4RZQ7DIN748+SPJ3+dQRFLXvoGiTf/YN7gmVskjzf/3hz9AxapaEPyuFRXAW60ec7xzGCC4V9c1VSunkwmwXk91DJUkBj0x5QwETbSTA/2bSFIr3vwlXz6XunR3+M/3/AxowlXb/zhPcyTPz7Z7MlfnW+8+ce8hKvA8OZfnUXdr6Nui8X10j/MJ2KcAUjCG7HkiqA6Q6VIP7rINuEZO/A0SvM76brIaMtx8ncJOFaswcTpWZxqpjJTAkHYedKDT7HoIgjvPfp7/OeNPyMLPfnjyV9v/vHmX6okUBvUzMD58W/WP/QTMSFgzBh+BIrajM7hdiK3v0bP4ZM/8Mku2lmFyKhPrIbyjgdt8ntFVI4u+Rw9mQB4fNYqkMeD79Hf4z+MJ2/8efKHbEDB6MhU/fU/IcEJKjxx78rryFoW8eQvaODNP97864yJG61/qEXKDlkdoZTlGJvGXMxB6h+qJoG5TTBDGGoSNEKjFFI5olKGlyatw8mBUa15UMyWNimmHsbxWQMePPge/T3+848K31jRgWFHkB2X3vjz5I8nf735B3MG5llv/v2b9A8ef2B1GGowdGTEFVIaFiqV5WwYrUrm6Ezj6Ig0Kk8oqBY1VoAHZWZzaxQmXwbe+KrTtyXGaLKmOBcPvkd/j/8wLrzx58kfT/568w8nSW/+/SfoH8ZHyuox4FyjHiFClSgqOyZOlR4qOsxBOY+IS1jZ4y/L6GctnNVBpzpfrb4lQOQ1ypZzwxyE4wQLSx89+CS+R3/DcSQFFHCP/7zx58kfT/6aecebfwwdvPn3FtA/1CKls5TRZlR/cZ65zm4GLSYwTTBCjDkp0M00b7ZYMq9bKWIeG4w9i92tXa7ZWBquUWqdMrOkya21evCVlh79Pf7zxh8nC0/+ePIX8wMGA8cDgzf/6Eypc6naL7z592/VPxyLlPOm72g0sfuELJsIKY5jOROxg8hYorDcp0LOXUIzUPo5WhI6XJNtHgwGLUNGsCYsD75aGjz6q4i0nIIHffb4zxt/nvzx5K9OJBQO3vzjzb/gA/1S7y2if0CRwoGcnMDt7OUzgyBazUwmyUxpvPoDVSEWMwGqAJDiuS6qGroSVU1iPDzQY5zlQM2jWZ2MTjGFqa/hHnyP/mQKP4+RU9zBxWKI9vjPG3+e/PHkrzORuISDN/9ANnrz7w3VP1w+Ui7Og3qk2p5zLmosAW0VHkxd1HeMrmUibVLsmvguSZuC8ZRKhEK6yIeChOIPsUv9m+GfiYhUGgTinyxpMkmaNCkpi3Q69xuqefR3TZCWyUilv8h/F6POQrG/6LCgn/9CEieVxMmSefT3+A+8Yb/R5zDedeS/wPHvf2Xwxr8n/zz5/0+a/1SRMtsm+U5vdubpqpzPkZzxRImmZXPlBGYcnDgHcTbDjxbiL+OstGEa7vUsBNZisjKHO/zX4IeXLONGX/3PuNxZq1ZN6dn9E0NKj/4+lroc/0UcOSgn9m6TE3t2SDSUo1SZskmaLNklc6FikiRpynj5b9o7D8v2JTN89Lf8nzQ0tTz+w6Yrhu/xP9jZG/+OHOTQtpLOk3+e/Pfmv//C/O+3SKG/9Q1fp3haAMxSiV/1UW1JUxmnkxvlBI0mNuDZ/S5lHCSZyLLISACqIJjytpj+/ofglyhVWukXiH/NGjXks097IPrm0X/VqlWyc9dubUrD+vUkcZIkNxW+jwbX0P+RRw/JslE95fcfvzXVBOG//JXuk8qPvSHpchaIw39WkdLCgK9s6jw8M2M35gB3JHmYzwzXn/9P7t8h+9Yu09rzlKoqaTLnuKnwiZo3/i0L3Lzxpx3Oi0d/j/8gYihlyAze/PvP0j+gSDnf2uPkgLOjeE4UdSMaktipifQGd3zGxKIdzBTeMx8NVZDAfOItA+N5MXmRgnsnm9ap6SaDAjIm7v8O/D27MUmTuKBbZGSUNG/RCtSIker33COf9ex+U+nfteurMnPWLIW/aPECSRWa6qbCJ6NdS/+fPrhXRj92r5w/e0bpSIYjSRkMf5kY2lgbvDNU8lWqQ3LH4r+IYwckOjISJci/MfLTB0/I4a0bFP/Os/Zo3pvF/+umjJS5fd9AU2Kk8QdfS1j5GjcVPmngjX9P/nny35v/vPkf0hCTCOeTK5b/kVHneZI+JhKW1BvORSbos5mWWKne+W5sJpvXKEwQxyanryyfEdiyEFWn+IA/wsMVvfZfhh8ZFSnlK1ZR+tesUV0+60WLlBN8NPRRzHVjM9m810b/l155RabPnK3wlyycJ6lSp/JXfBPgX0v/x8RclO+fv18ObFypbc1c4A4p3/4lyXp7CUmaIoWc3LdTjm7bJGsmDZPDf6yVem8PlQJ3170s/41/tqEc2GTqfHrmHtCaDHpz+H/9lK9lfu9XdVg07Pa15C1b46bC98Y/5RH728/+N7P/Pfp79Pf47587/tQipbOzM2lQjgAdBHPHe84ldk4xb/UmjYOfipPm0TIkBDPbFI3UqrS8k9GUZhojVP/1AfCnmTstwiqdqv9t8GmRqnB3ZUWw5j015XMs7RHnm0X/ri/RIjVb4S+BRSp1qlQ3Ff619P+hbRtl7BO1VPlLlzu/NOs7TZKHpgHNHCax/Aem2bl8nqTOkkMy5rtdLVJkaz+PkdJ+/hv/v8Y+5ezpmXu1Pua4Gfy/bvJImd/3dUATMYpUTdw5Y+tfzP9u+pPQ/r4xdzeL/lbAePB1FIH3PPp748+TP1csf3yfiPFJENxQa9H5xYnEo6Mf2VHmDDRYmCj8aG3S6dfs0OOTBhvNB3vPXxSLwWmcieBgZbrKlc6M/xD469evl527d8nB/QfR5EuSOXNmyZ4jh5QsES7JsOvLh3MC+J+NPAtFqormNT5SPa8Y/3OwZm3bvl3+2PKnHDt6THLmzCn5C+SXAvnzSRL6Olmau+AfPHhIzpw+46P/ux98IKtXr9G8o0aOkFAs7bnpnzZtasmSOUu8/X8WS2OHDh4GBGU5dG2MFMiXjxCDwtc2/cX+Xzd5BJSONwHpklR58l0pef+jAOaHT7Q1BME/Ifjjn20ERWqV4v/0bFqknAouw/9y8ZIch7P78R2b5fj+nZIyTQYobrdJpvxFYCFLHbstrBL4n4s4IZFHD6PVbLfIhumjZfX3Q3AXItWf+VByhpePBT8xdnNSaXSyaz6t6D88/jz8/9vy1+t/r/9vFf3D52yuNiQoMJw7KOsZjMOb88ZuonyTI/NQ3zGZjWWKV61HE5kBybg3+fjAe0fxgmlJYZl5xJT7h8DftHGzfPxJd1m1yiggRIwTIumlh40Cz9dffVWaP/jAZfE/dzZSLVLcF1kDS3u9sLRH8jEkRP+VK1dKlxdfkWPHjzFnLPhh+cKkV48eUqhgwTjwX3vjbZk25SdW7tDfdADh0z8isP9btmopr7zcVdujFzbOdKX265hx4+Sjj2lF8+O/evVyzaP5tM/ZxOvX/8tG9JDl33yh8Mt3fFHKtnnewGcbSAunjVcL/zss7e3H0h6Lc2kvIforCKB0+vBemdHtKdm/cYUSxg0/GZSo2i9/LvnvrhMH/40zR8vsXi8qDBQEzOD0p98SiZk+dwFpO2wBM8aivz7jovT/i/gH638Ln23U4MH36O8a/x7/cVR44++/Ln+MIsWZR7/XYmQlrxgrZozwQdfTkIdCFEqw/joClck2uKPMvU4rvro4zZmaTRVGwWIU4v8h8A/sOyhNmzWTiIizFm3Jli2r3h+CtYd0Y+jYob08/7/ngDFZzME3CP6R56BIVayq+Pt37SVM/6nTfpTX33xL4dhLxowZ5fixYz74jB88qL9UKFcuFvwPunWT78ZPMC3xNSx++rdq2VxeeQWKlNWwAvp/zFgqUt21GbZ316xa7mB6Y/qf1ps5n7NNImlzhEn7EYtBYMIydGNjzP3VwTcWKeMj1ZmKlGLFygAoCP5Htm5UX63oSDi8Mxv+UqTPLJEnjuizbUWFh16Rsi2fRnP9Lfxz3iSZ3q2zkwXxCfB/DOBnyFVQ2g6HIhVAfweQ/vhrt5CvDn8381jWMBUHx9+dn/k8+H+N/9z09Ohv+MnjPw4sb/wFk7/u8fJ3yx+XRcoIASMMnTd75WJzMX1pUt0CkwiGwIncTBLIqxKAAtwfZ4WC/WWNOi8xwgm2zlsd/uAhQ6V//wFAM0buq11bXnnpJcmUKb3if/78eVm7bp2MHfudFC5UQB577DHFzuJtfxlp8Y/E0lh5LO3R7lCjZg3HRyp++kdiKfDeWvfJmYgIlAiRVi1aSOenHpM0adPJ4SNHpNuHn8jcuXOREiOFCxeRsWO+gUM/PzFiuiYGX/q8hD8L/+VXXpNZP89R+PPnzYGPVKjiZqZgzO8oy7/4+n/MmO9gnftY8QcIBbJm9QrAu3H9f+TPdTLmKVh5iBUQyVOyopRu/ZzkLFZeEiXmkua18d93zzWSg3BgZ98+Ax8pF3sGxX/aW51k+1I46oP/s91RWmq/0lfSZg+T6HNnZO3EYbJkeHcf3R8avUJCcb4V+4GB9I+JvmAecP39x1FYrnxD0+u/P1zylq4RGz7yhCRJypK+OrUwKvovjT8Pf6//rSzz+J/iwBv/t4L8gyIVBYs+FhYo2LVf0DFqKtJpCjHmWIMQzKSM9k0EmmLEGpfvNBE/7sDpjH4stpSpg7EGlsnLev858J9++llZtHiJ0mrGj1PgE5WT8/Y140/FqDwsUqQ/FalevXomSP9vvvlWevTspfDvYf5Pkd8F/+LFi9KmXQfZsHETlKMQ7ALsjiXDGkrqYPTv+tLLMmPmzwp/8aL5Epo6dYLwCYrBKoWjYZH6GEt77h6lRYrhRvb/zO7PyZbZ3zvtUAJI0pSpJXd4RckVfrcUrFZf0mbOhfQr5z8qUvs3rVL8dWnPwUJrCOD/g9gN+F3nego/NEMWaT9yMfyhQrWEvSwe+J6smjBIKVGi6aPw53pLed201uYy/P/71K9kXp/XIBdDpNEHX+muPUNrb/wFo7/lP33lUIIyJna4kfznwTdS3aM/uMzjv2ue/zhv/JPmfyOT/fOf5f+QyKho1ZBwgRRCNv1x7rWUuefJBeaAQnP6uWZlkimFYspNvidXgjPiTDqLqNcHbqA/YQLHhb45/xD4zz73P1mwYKHi1KtnD6lZs4aD+bXhH3XuHJb2Kiv+NWvWxDlSUEpo/mGtrNKhi6X/k507y9Ilv2ja4IEDpFy5snHgT5o8Sd56+z3N0+yBB+SNN7CtnsR2qOym/8svvyIzcfwB6b9kkTlHKiH4XFviBMX/VKynTJkGi9Qneq8NwWUJFDINBqTBIx7419r/PMF8Qb+31UlbYTkkM8CM8pS/Yi2p2vkDSZMtV7z4u+GPfw679jZgaQ/01117bH8A/S3+K8f1l8VDP1TQ5dq9IOXadfHlNWVETuzbLqM6mo0EabPllfZfLdba3PS38NfiHKn5fbBrD3g0/JCKVE2DSjzwLf3ZAEPmWMTWdjkJTgaTTjIFg/9PGX+W/h7+YBV2JoLX/xw2Hv8buWPp4GMMb/wrSQxdbpT8g0UKipQKax2TjnbtXphx4pHrEswmtDHpf0yMqonjgUyciMt7Olkiv7YWDdcDokw60fAFTFTc6cdsVgzYNKPd37rw+/btJ0OHDlNcM2XKIE88/ohUrHi35A2D9eMa8I+MhCLF4w8QatbE0h7PkUI9/oUxQxnqVqR/g4aNZM9uLDshz6oVyyRxYu58jE3/fXv3Sd2GjZX+d1eqIP379UUOV3DRv+tLUKR4/AECFaDUPEcqAfi3Wv8f3b5RNsz8TrYtmATH7wMGSRf/JcUuxPs//V6y4nMxvuDC381/42GRMmdThUjnmbtj0czS3+I/t/fr8vvUkVrl/b2+l9x3wRctSP+PaFNGTh85oHV1nr4Ty6yJATIu/6+b8hUUqde0vkbdRkmestUThE9Y/8XxZ+nv4e/1v8f/FBf/rfn3Vh3/Ph8pn7pjZ1woQWYHGiLw6sNoo/iorNfuM2/TseNtKqZ25DGWAcZptaggBsoAo3WZSWvUFK0PosHJiAK3KPwj8ENq1KSp+igRf/tWSGfv8OJ3SfVq1aAQVZN0aek3dXn8jSJVRfGnRUoVKRIsCP4X4dtUsnQ5pkqGjBlk/pxZSnx3vzDtnOPATvi5c+fGLr1J8dLfniPF/qdFShUpVhIEvhsO899q/X/myH7Zu/YX2bpwmmxbPINI4C9Est4WLs17T8EdeDIB/qNFij5SJNbT06FIsX8prYPw/+TX28punFHF/m87bD521RUk1Zygqq32//fPN5X9v/+m9O/0Lfyk8A3AYPxvLVIcDQ0/xIGcpasnCP9WpL/Fnkz5bx3/FkeP/rfe+Ld94/GfN/5utvwJORt5XrUkKjEUDgy8UqDzwmPPVWHQ+cTkYprm0ThmNM+6ZMAHZqCyhAijaJi6Ge0PTpwD7J8Ef++evdLzs8/VqdsqUkTD4p8xU0YZ0KeP3HHnbZfFX48/qGRONq9REyebOwdyKq1IXxf9T508I1WqVdeVNx5xMGXSBKf+uPQPDy+j9A8NDYWCtFD7Nhj9X+oKi9Rsc7L54kU42dw5kDMYfLUCoCam3er9v3v5Qpn8Wisf/Zv1mybZChf3sx+wIL/T0kSEyH/fPYeTzXGMATF8hiebI95Nfzf+YzrXFTq9s/87jVkpoRmz+vqf5Sz/T3mjg+xYNkdhtRo4S3gKuwmx4fNk83l9sASLnA1gkcrHk80TgH+r09/i/28c/+xej/5gT/InCeHQw8o/N/97/U/q/LvmP4//447/kMhz5zE/OKRRrueUYjreya4C3YwYk8Z4HT8qTcgoJphytALQGoXpSNdDEEuFilm4HMEUwqFlAD8K+R8K/8SJk7IOu/TWrlsv8+bNlz/++BPzh/EhCssbJhMnjJPEIUkSxJ+79vwHclKRgvN4PPQn2UqWokUqRkKxu27JwgWGgKQtgqV/xNlzUlGVsxgsOeaVKZOhcDFDEPq/hKW9GVzaQ0foJ2JSwdk8HvgGguEVU58CZc0aLPxbpf/Hda4jh7esV/rXfq2fFK7WxGAWD//pJ2JwICfx4NKeMiju+T+Q/6fqjj1YBJHWeshcyZi3MG7J3bH5f1znBvhMzRql/0NjVkuqDJmD8j+/taefiEEdXNoLw9JeQvD/CfT/t49/7VTyhhOC9b9cQuy/VP55+KPjvf637B9U/v1X+D/kLL6153vrVq6gKYm0wYUTLyYdnkKOC8aNim99E+EtknH8japMmt/ZX6TxTGc1ar/gxKURiOF/lnVSFYy1umjcPxf+L0uXyBNPPePDf/y40XoEgZmESZC4+J+LOiflyldSq1/lKlWkb+9ehnBKmLj057Lirl27lJy//LJIQpMnd2hJMc5JPERPW2/YqKlSs2rVatL780/jpX9XOJvPmDFL4XPXXiooaFqQlyvo//NQBA8fOYb6WYz9HCK58tC521Tzd/b/im97y1Ic3kn6V3nyHQlv+og2Kj7+G6/LcMs0z9MzYJHCC0F8/L+w31uyGt/yI/83/mSs5C5Jq6KhP8eFxX9o85ISefywRuj3+/ACEQz+71NpkYKzOerQpT06m18B/b3x58kfI0v949/Nf3/n+DPDgHKEciG4/FMx8y+R/8HGv0f//0b/G2dzMroqS5wKzeTtm3EwBMjs9jMwHBK+AaIzAgcwxT9TTJpPk8CbmEabAprOi8nJaYr3SPwXwe/du68MGzZSMevb93OpUhmO5JfB/25YjyIiI/Bpl4Iy4f/sXQWgFsUTn4d0d0iXgUobpDQ8GqQFBERAGkQJaQRpBWkUkE5p6RRQQelUuru73v/3m739vnuP9wD9q4De8rjvbm93Z2d2dnZudnd2xjQdvDUT6cuA/Jb+jZo2lzU/rFG69evXSwoVKPgA/ceNnSh9+8NFAghcDX6mjENNUxSvbvp36vKZzJw5S9t/wby5kuT5pA+Fz7wGHa2UqB8pOOR0t/+WjcbLt2+u6xH4/13tv2ZEZxy78rVWuGTXMZLqzUJKBDf+bv5b1L2x/LZyjuJfd9pWONeMq+nd9Lf4b5o+UtaM7AJiBkimMrUld6OumpaoWv4/9ftmmda4pMKPndTxTM7XmjI4/+9ZMUOW9Gym7VrkkwHyYsF32OgmpZLaENHC13p7/U9pTcq4+c/S/0nznwffYXbDug7Xh87/3viDng1Z4o2/z6b+EXANU3vkc9+EtyOcDddbkY8UjgTnNKD5CvansJYIm0aLw0ULRj4WeR+KWjhlFLzQAcIQzNlM/8zA37XnN0mXOpVE4Fl6CIYsljgiLVp9LMuXr1BlY/SYUZIlU8ZH4l+zZm3ZinP7qFBMmzZRXkj3gpZtSuetn/7zvl8g7T/lOXMimXGm34jhQyVSRDpqNGmuXL0iVapVF67jIv1HfT1CsmfJGib9h438Bg5Ghyn9e3TrIiVKBjoNR7iEwuCHH7L9J02GHym4P3Cn8Xk2RzYW8Ve3/2ks3l6PI2Jer94CjjCzonZ++rOqDBcO/y7jP8hvWA2vq49dI3GSpDIYhcF/P4/pLRsmfqn4v92ku7xWqqYpLBT8Lx4/KONqwW0F8UN5XEgeLR4WkjvwsbhKFnzeSPatnKs0eKNOK3mzavMw4R/b9rPM/MgoTxmKVpMCLWFJM6nxi0Itiv/x/heS/wxZLHEMqdhobIZ/o/zx8P9vjz9e+z+d7a8OOSl2VBThwtkn3jOOsWw4NRgxlu/MSyeFS1ghxvVK3/NCgWYmPEwUxzDf17RKO+Z6duBXqFhVjh0/JpUrVZTcuXNKiuQpJBKm17bg4N9ly1fKzNmzFVFOkf2waoWEf+65R+I/fcZM6fpZDx3042Ghes2a1SVx4iRKu+cihJeCBQrg4xZ0Ar3u3r2nuwaPQlFiyJkzh3zYoJ4kT5pU9u0/KL1695Hffv9d32XPnk1GjRz+UPg/wCdW46Y8q04kOhamf1D3fUn/QnqJGiWKlpE8RXIcxpzABz9k+9MhJ4+IcTWlWIecLODvaP/DG1YKd80xJM+aV9LkLCJxsGuOx7PcvXlNjmxaIxunDhMe3UL4Kd4sKKVgkSJzP4z/Lhz8TSbWK8BiEQIkW6UPJV66VzQf6Z8iez6JGC2WeY3riv4fy45Fk5TxY8RPIvma95YESH/t/GlYwkbInmXmKJ7n4Ci09oSfJVL0WGHCv45jZUZVzGwIhrIzwsqVPEtuiRQrDvoc1sTFjKvrsELS36csIA/bMGT4O+hvYWib68VU24NvKeP/9ej/75L/Xv8Lztue/AE9ODRfdyxSyiBmrs1PKdypnORLR8Mi4RjnvNE7c+ELpKM01Uwm1jwyAsZ3ZyAzb/xXTc6EzwD8CpWrYlE5FRUHSYuvfcYb0mhA/36SP9/bDjkejv+9u3elxnt1ZMfOnUo/P40NlM0bN+AGZQAW361fv15atPwY5/3hmJgw4MeLE1eGD8MC6/RmEXRY9Ocg/X7devLrr5v8KAEGa8xQDWfttf4E59q54Jt3vAZhag+KFA5w9mXG3RZ7aLGm4Bum/eva/4gqUjWc0i0JTH0QqTQiKzJEjh1Pqg1fJlHjxHss/ls7vJtsnD7c15rKkg7/Vxm6ROKlfdmhTYBcxYHFs1pXkQtH9zs4GqDafg58/vDomBcLlHkk/A0Tv5Cfx/Qz9Uc+5rXwYyfHWXvfrPa9c9MbyRCA/3+g//n7hr+9Pfy99vf43+v/T1L+OVN7jlBy2oLdUnfWMdo3bBjBzmfaj6yVycnJhP7gDCI6gEK467wvrozW9CrwcYcIIxidUvBjB8CnFf6EiZPke0yvbdux06GMH23ik/31bNKoQQPJmjWLUooIPQ7+t2/fktHfYufWqh9kJ8p24++bKlNQhv6HYZFqj4OLN8MS5gsOgd/Ok1c6d2ov8eLGU4I+Cv49WLlWrFwpEydPlj2798h1HMhs4VetgjVWrT8x7eaCb9t/6rTpON+vp6mCA3/LRv8RMY+LvzLDY7b/7asXZfeK2bIf/qKObl7rQ9/PYCaK3sYzla8NS1Ac1P/x+W83LEm7Fk6WU79tgVWLZxoavq2s7gsyaFkW/7t4v2pwB9m1eKrpIA4rM0+8lC9KoTZfwkqF6d3HhH9qxy+yedZoOfjTUj2zz0CG37BkaeTdUau1Jv/l/kd6ePj/d+Wv1/4e/z+N/R+79m5hhKH0R3AGQvOABoMSgA0VEFw2cEjGJId+oYdMb9MgPZUHlMni+EVtBx1TEmIJz3xqI8p5ZnZm8AF7uuFfunJZOL12/tw5bG8OJzFjxpDEiRJJwoQJ/1H8r12/him9/XL58hUoTnEldepUEiUKdvL9y+mvfAJ+uY3pu6tnjsu1c6fk1tVLEgXTezETJpFo8XEGIg75/af47/7dO3LhyD5M652SiJEjS+wUL0qkGLH/MfjoOb7wX+h/tv398sKH/j/a/zz4frrbO4///v3jn9f/wO0ufQUWqTtmyGVk8FHHoRU1YOZhAhNMflx1qo4Kk/POJMSTUYI0tb4yOWx+dw2stUSL8OC7tU6P/mAYwx8e//n6mNKE3xte//PkD+SsSm9P/urY4o0/OrR64+8/r3+YI2IcBiQzGrXIFcHhnFYjOJYzIzt+sQNPozS9855WKpPAiXUpWIgxwcSpL041Uzl5UIQqUvjx4HPIdBGE9x79Pf7z+p8nf1Qs4OLJX2/84ZCs46UzPnjjr1LDKBI0/vyz+oceEROAjhlEp0P6lcsf7bGuitnqIcoXmMZO2lmFyFSfxbAIOvrkeWVE6b5ar5iZLwCPz1oE0njwPfp7/Ie+gY7DPuH1P0MLQwzcK2X0SR/0osIDd0ow8+vIGk/+GBby5K83/njj7z+jf6hFylGDjIyiLIdsMlMJFFJ+UWVeMLUJRoRBTYLFhEYTPYsMN1SOzQkwTgqan5kG2Wxu9z3j+KwBDx58j/4e//l7ha+vaMewPcj2S6//efLHk7/e+OONv09U/6D7A6vDUIPhQnJcIaVhoVJZTsWIWp1xnWkWmuOdVYxsbkh7ZWYU5hf8ePCZHH3F6Qc30/jS2Qp48D36e/zn9T9P/kA4evLXG384SHrj77Ogf5g1Uo4iQwXK2I0QoUoUlR0Tp0oPFR2moJ6FiPuY2eMv8/BMMrMTz2pF9pc5nSlA3Bply7lhEquI4dbCYrTGMxlutHxGefANNTz6e/yHvuH1P0/+ePLXG3+88fcp0D/UIgWhrIqL1V+cZy7VMEoT1BkqPHjgMwPVG6PmOPqTqwxN4LoYexab26hEzMn/WBql1im88OCTIA4ZKBxJII/+Hv95/Q88wA8o9g9P/njy1ycnlSHMOEJx6RpD8BgseOMP55O88ffv1D8cixRBGCWHI3hwnuSbcIjzW5W4g898CWG6T4WcOwfvranKidcfmwblax52BGeBu6pYHnx2eI/+Hv/ZnmJGA6//efLHk7/e+OONvzTc6BD5FOofUKTgkNNWkLqNzwyCB1XzTd0p1PnaHfhMoW8CBD4UJPo10ZSul6qmMR4r0HGWqyphmkaTOgmdbB58EELNEKCLR39lLbIGAznFHVwshmiP/7z+58kfT/46A4lLOHjjD2SjN/7+rfqHa42Ui/OgHvEQAnoxp3UpmIC2Cg/ecLw3Y72JtK+Cl2TMiqYk4sIvbJSPjITiD8FzefA9+nv85/U/T/548tcbf1wfCHaQ9cbfp0r/UEVKlRo0kFFe0Gi8t7NzaDAqPuF0as9cqUCZBU5Ug/CgOpAW4JiobGvzHe7VF0LIKRvmNcGD79BclVeP/h7/odt4/c/IIYgIT/548tcbfzi1542/pMLTqH/4LVLQd9TCpLoNNWAzVWK0JEaqtqRvea/CjXoSP5ptwLPblmUWiPIl8yIhAegAYfLbbPrrwffoT35ymMHjP6//0RJhOcL88pnBkz+e/IVySXnhjT+mS5hu4Y2/kA12Luef1D+gSDln7VE4wXcJ/USRN2lI4qAWTm9wx2ddA0UhxmcoW0znqIh84i2DijtcdDDEE+Wh1SRZpr7nVTU35mSsB9+jv8d/Xv/z5I8nfznWcETwxh9v/CUjUN8gT0BXwP1TqX/cuHWbJwmgnv4Kg39NUAQQj0Cm1jvfjUb7L+B8KkyKpK8s5mAG/uA+QNUpPuC/Jla/cx58j/4e/7E/oF+wy9jg9T/QwxDEJ3Z8N5ZIzq8nfzz5q0OKHVvYl8g7fOYP7r3xB4SwNFFieeMvvlr+Cv1DLVLKbI7QtmS2BFe2JM0dvjTTfyYVBz9HP3Tkv5OIQk3fKAtrUZpfC7MlK3fjot9fPgAefG0NH8N79Ae/ePzn9T9P/mg/8OQv5aM3/hgqeOPvU6N/+I6I8Wkwzqhl7cvU6B0hRqWe9ybwARYmjHK+LbdgcOP4y5XEprd5nWxBmOAOhwluY8FCevueN9S6PPigg0MUj/5GmfLxCPmLDx7/ef3Pkz+e/LWCwRt/vPHXqNkcIfw6heveGTb+av3Dt9hcbUhQYNQCqrVAPfTZsRg5cbZyyrpUkniDCxUiXrUcy9dWAdB0fKCO5Ag+fFopLL7TEpDbg+/RHzyiLEWe8PgP/OD1P9fXm2EOI0r0e8swiyd/PPnrjT/e+Pvk9A+jSFGj0S0QqtPoRXUf++gsClehZZc5cbRzlCBfMleUea1qlSazzzaTPlsgHnyP/h7/2a6h3cl2DX3w+h9oA4lBoeHJH0MHI1CVPezl3q0bOH/xnmEZXH089Fx4iRAxsn7mWibz5C8oYQnkjT/e+PN/jj8ui5S/45mvG+q3/mBkuem9wfowmDAAi/ioC2pQ5qQC5Y/z8SsSOKmCWaOYz5Zpfh3NUgs0Fw8+2sdZPGlppZTx6P+v4r+TJ05I1eo10R8C5N13q8r7dWprMz8p/r+Pk5GzZHsD1kGRwOKB8nmPbr6+6vGfyNXTJ7Bz+Y7Kv+jxE0u45yJAmIUt/66fOyX37tzWbfuxEiTTtKSj7dP/j/yb3/l92b92kRbGRRPcBs7ywkeJLg1m71Z5zmcG1UtdAj4s+HtXz5NVg9pr+xdtP0ySZnrLV1db0B+R/3PbvSuHf1kl4aOiTrN2axG8hAXfJnhS/P8k4N+8ekluXb1sQZtfZ1zlKG1pxRcRo8SQKLFiObGIcNL93eMvFfbBxVIqI71YsLQUbjM4WD3/bvg+1n1Kxj8oUrcwowafHGgdVs5uMSRV2GC86kcgOJkavIlz2gtvVeXRlvWhprlMTipj9hMSebUM07n9qVmuB9+jv8d/7BNHjh2XkiVLax+qVqWStGnd+on2v/vY0pKJihT6bo4cOWTY4K+0bqyrdntcjX7v79GaQN//+/v/tGZl5NSujcA2SAI7DJe0eUpY9EmZYPIv6N5tGRyYxnkfJDXGrJVYz6f8y+QfFakD66BIIbA1eEKflb+NFx/9U/J3z9LvZFHvZpq3WPvhks7B78+2/8yPq8jRzWu1ho0XH9Pfv0v+n9y+QS4c2wcYAfJiwXfkuQjPKa0N3yJaw9M3/myeOlTWjvwMtWZ4+PgbP/1rUmXIQjT4P9v/qEgNgSJFqCmz55PSPcZrbd2XkPz/bx7/A27cukNOAkGcrqE/zr22pLnnzlFjEXG+c/DOtp1hTHO14lUJGizKPLA0XfWBG34VhaMU9uB79Pf4Dz0jQI4eOSYlSlORCpCqValIfaz3T6r/UWBmyfam7hzPkTOnDB0yADVDnzXdFnWzPR4Rtg311/fCSWDe/9v6/6+TBsmPo3sq6q+WqiH5muI+DPxP7twg05qXJekkZuIUUmPsur9U/l07d1Lu3Lzhg7/ws3pydt8upX/jRY7Sgrd/RP7uWTpdlvRurlOqgR1HQFEM/L/af+YnleUYFSkwQqMlR/9S/EPy38LuDWTvqnmKf73v9kjEaNG0Zf4I/rbMf7L/bZpORaq76TdaY3CMsWag9YKPv/HTvCxVhy1Bqn+2/wUF3ZNBRVOiPiIpsr8NRWoi7ti7bT1ctxpl4v9t/R9YKsawSEGRUgIwCpEO0v6JOSceqe7DbMJvHP1TkxrfUQWjRQk5qBmZKGpIyIC0tELhvfPGvEccd5rgLYICNPF80ke3YdC8QhYPvkd/cMu/m/9u3Lgh3303S+5hSu2FF9LLW2++oR3gSfG/e2rvrdw5YZEa6PV/sqAj/87s3SqTGwZC3AVJtHjPS62JG5Q+ocm/XyYOlJ/G9FaZmKVcPcnVoBMlHv6jQCf8lfJvepNScnL3ryp/m8Ai5Qt/QP5ePHZADvy0RJfQpshRSOIkg0XNhT8f/oj8nwVF6uiWNSr/G2md/j78F3atL3t/mKv1q49pxIiYTtTwB/C3NPsn+98ZKL+ndm82YyEqcGbvdtk+51sd/xKmf1VeK1HT4b8giRQjlqTJXeIfH3/v37svQwJTKHmSQ5Eq+/n4//T471sj5VN3yNcMUIIC0KvVCgWLUXB2N93HWJPcYsBkZQxUK1xd03p8xQ6oChYVJkKkADEAPfikGWjh0d8wkcd/T0X/u4e+nyXr69omOXPmkKG+qT24L+Gozz5tWsx1/e/0/yAovN9Uzio3Lp5V/Gt8i+m6JCnQjR+Uf9+1fEeO7fgZslWkTM8JkjxbXuT5++TftGYl5eSuTVovVaSeAvk7sw0UqY2wSAHtxouP/K34L4BFbu/q+Yq/KlJYK/Ysjj8HocjO61BL8XihQFkp0maQjp1Psv/dv39XhgamgvJkLVITtH7m8t/p/1b+BVy/cZtY44/f+kYk8qrdGxe6PWeD0dikX2FIw3eaRuMs6RyTMR+ZAMKCO7dJaEYYRYn3NjhxDrBnBf6hgwfl/r17Ej1GdEmUKKGcOX1OtmzbKnv37Zd0aVJLhgwvS5LnkzwS/6tXr8rJU6d1EWeChPElVsxYcuv2Lfnxp5/l4KFDcvvWbXk+aRJ5PXt2SZQgQaj0v430e/ful9/37pWz585LUsBNmyaNpE6TSsKHCx8m/U8B7tWr17AwNpykTplSrt+4Ltu3b5dt23dI/PjxgMMrkiZ1KnkuPNYUPKL9L128DNz3yW+ow51btyR5ihSSNl0aSZYkKcpHGz9G++/YuVMOHTosJ05i4S4yxIsfX5ImSSKZs2SSCOEjPJL/bt68KXv375d9e/fJqVOnJBXqni5NWkmdOiWUERryw+a/+3fvKb3Jf9GiR9M2ZZW3bN4ie37/TS6cvyCJEyaSV157RdKlS68l/dX8fxJ15llLSiqnpxBGnLhxJFLESGHiz2m3AwcOIaUozeLEiinXrl2XbTvxBbt1h8SNF0deSP+CvPLKK4/sf3fv3EUb/i47d+yUK9euSeaMGSXDKy9LeOz4ypb9TeW/HDmMRSos/IPQLw4ePqz8cHD/IUmUOAFolk7Sg24RIkYA7dzBtMkh1P8e8AgXDryYOpUmcESCyhHLf6fPnJFLl68q/ROAP2ICV9XjDNGUdmzpc+gHl7hQ15E/kSJFliSJkzwS//9H/qwc2Fa2zRun+BX8qK+8XKyKD77l/1vXr8jIsi+ihoYKDebtk+fQtrR0MMrCv33tspzYvUmunz0hV8+fkoiRY0i8FOklTsr0EjVeYsU5LPoTfyUHEwD/GS1Ky4mdXL8VII2gtBjIeNQQuvy9f/eOXMWCeE2Li9IfT5T/UeMnkeeee07fabX5PgT9zWOQXDyyX87s2yYXjx+SBGlfk0QZskqUGLFFLVK6Rsqpkxbkx59Voww4f3CPXDi6V65gMf+9m9ckVrLUEjv5CxInaSqJECmK4hmy/a+BZrevXVF6Ev+VA1vLcayTYkSFgXOwMDuaYm4uARIxekyJHjeRprf05zunSnL3zk05dwD1QF2uXzgr0RMlk3gpX5C4ydNJQHjI17DwRzzhXz55UO7evg05/BzqnlbpdvHoPjmxY4NcPXNCIsWMg7Z9UZ7P9Cb6OGStaT0ffGYg/Q//vEzmdqoFumCtV4EyUlQVKVQ7DPhUci4e3q/yP0qchBI5Rhy5feOqnAZfndqzGYvT40m8NBkk4YuZHuA/N/6Efw/1P39wt5z6bavcunZVnkc7Jnwho4SDXB4SmFLbn1N7pXpMMFPGLMDB347/HC8vHtuv5Vw4ul+ig4/jpX5J4qZ6ScJHiBQq/S+BTpRvJAZpHpb+cfXMKdTrktIserxEEil6rAfgM+Lv1j8Cbty8jfYh5qix9gqylAGscaSKvjbsxXeM55Ne+OgEkw8cpF9jULjUHopYKlRMA2poyYRDyxR+tLRnBP6pU2ekaDEuJg2S8uXLSbKkSWXAV4OImcEFeNzHv2pVKkurVh9J+PBA/H7o+C9fuVJatPxY8e/YqYO8+moGqV+/oZzHwO1QyRSKpz59ekqRQgXxzDeG/r9s/BUw2sr5C+cJPRj8VFCO+vXtI+nTpwkVfiAWMx87flwSJUwo3bt1lbr1GjzQxpkyZ5QBX/SV2LHjPPCOwNieU6ZMkx49eyl4bUsHf9YxX763pVuXjhITpuew2n/3rj3yea/eshlKi0GLpRocDYQgad+unVSs9A5A+t9Z+IQ5f/730q5Dx2D4swSmzpXzLfmsS1eJnyCuPofGf+fPn5f8BYso/BLYlfZp2zby4YdNVDnWQlkxJTkWB1d/Vz7+6COU/Nfyf8Ys2X0w3PjXqF5VWhGeA9++s/DXrl0nDRs3Vfq3b9tW7kFg9ejdC8kN/npFnytfvoy0bdtaIkJohdb/Dh89Ko2aNJVDBw8Fo3+0aFFk1NdfS+Vq7wJkkOTEGqlhg8nvD+K/Y/tOad2mnRw+xgE7OPzkKZJK7149JcPLGYLBvwcltsZ7tWUHlDe8kO5du2ChfQknP1vQtPnpM6elbLl3oCTe0HcTxn8L5TCDfa3480K4zUCvFctXOjlRZyp/Q7/S59DaX0n7f8qfAz8ukvkd34e8C5C0+UpJsXZDlUJu+Xdw/QqZ+2lN1DBIUuYoIiW7jtL6W/gXoTSsHtwBO9pWKx6W/5Uwmgj5Xi8gRVp/JZFjxnbwUaSD4W9mAYyj4xnNMLW3c5P2P51Gewz5e2bvDpmKqcrQ4Bc2EjSJAAA99UlEQVTvPErS5iwGeA+2PytB+t++eVWW9Gou+9YuUFyV5o78L/zxQNm9eIoc3rQGdQqQxouOIg1Kc9H/18mDMY01Vq6cPa5w3PgbCAFSrP1QSZu3pNJPCyBwhKWAu2vZNEQF57+Q8uc+eJnwM5auLW836hYMvoVxbNtPsqBbPVgaz2kV3PInNpS6Yh1HYoCHYkwEnGDg+se/SR/kh/LwO9ZmRZd62DW5elBH2TZ7FCZ7DHzTiAKF4gWpNnI58DH8bsrx8//B9UtlXvv3AIWKVDlYpCw/a5QF7+B9Xw5vWC2zP31XqZCvSU8Ue1dWgbcs/1v4GYpWlXyNP5Nw+NhQYoaAf+n4AZkLuFSC3HULD4W0fL9pMuXDQMXfrJGa4IPvHv9P7doqi3t+KJdOHH4APtcJFsNO0IQvZAoGnx9k05qXltNQ+gigcOsB2CxQXu9JG9aV1Ll25qSMr5tP7kBJZESlQd9DOXwNbwz/u/sf01v8qaj/1fpHwHWctWe/+tC8gAZGUObAhR0PQOkFlPt1ne6jmjArjteYO2csMxBFMhGYmI94b35w1QZiBO75x7zOW/48K/CPw2JSLLBkGPgTNSDGK3DK//bbUET6GTxDwX8ZhH2Llq3Y5tK8aROZMeM7OXKUwuNB+jdr0URqv1cLZbF8ozx82r5jMPrHjRsX1hN0egc+k44cPkTeeOPNB+hftGhxWMPOmHgKOcfqFDVaVAxW11iElpMsaTIZ/+1oiRMvNhIFb/+uXbvL9JkzXe0vEh0DLwc72/6JYbEbP26s0IKAAlAuGx9/uD1x8rSUf6eCXIM1zMJPiPRMd+r0aYXPgmrVrAE6NXkAPufo23fuLN/PnY8cWmFiLlGxoPTa9esGHEqJEzeeTBw3RpIkSRwMvuW/86BZvgJF0K8CJDCwGJSRu7JoyRIffDf/54Bixqktn9wH2L+C/zNmyqbwTZ387V+1cmVp+8nHYfa/H9atkyaNmij+L7/8kuzehYXFpALJQXLrD67gvxbNm0itWu9ppLv/7T94AG4WasqN62g3zXEfljnywQ3kC5DoUaPI1RvgCbR/WPhPmTZDuvfoqfS38OPGIT+eN2U6/D/oqwGSJ2/uYP3/6LFjUJSr+ODPnjkNFsWUPvrfv3tXPmj4ofyyYRPKCoJi2UJq1qBip9V7gP7NP/pElq9Yoe+Jvy6QH4R1Xczg4j/b/kTZ8p/FX8mgLx5P/t26fk1GlH1J8Q+P7ej1Zu0AKGu5MfRfh11YG6cPU/oXaNFHMhSr5tTJwD+6EYNf2+qI87d/lFgJ5C4Wj9+5BSuL0/+iwypUrs9kiZ00rbbzw/hvRjNYpDi1B/rrNNpj4M81X1MaUVlivU3dQWSFX6zDMN2VGBb/37t9Xaa3KI81PduQXkuA64UYcgfWOBOB8vDHd7wxdcKjtXojbjqnI3cbK5qFHz1hYlhwTiGbZtRmzFqpoeSo2y5Y+6+CBWrbPOwec2CYH1xDyF8LP2PpWpK3CRQpF3zSf8+yGWaBvQt/tsV1Z/rW4l+m12RJkSUXiiOkB8e/SR8UkHOHfpcIkaNJzrpt4UbiU1/d9Ib1cuRv0yXHnHL87U/8KX8ObMDUXvs6eB8knNor2hYfM8jK6oXW/gc3UGmvobWKnz6jnIE1STM47c+8Fn7Oep9KlgoNHpA/Fw7vlamNS5u2c9qfChSVFhYTIXJ0VZoJP3l27tqbCHioO66sF2FsnztWVn4FnF30jxInvtyAdc/CJ/4luoyRNG8VQhZmNPhfPnFEJtUv6oNf/ZsfYJVMg/fIiWSUC7PaVpUTm9dpvtz1O0uWd97nWx98Uw1cXfAJwi3/+Byy/bUa+uLx+j/rbRabE5ASi0ORyayIEiKDAscFbxlj7jQSUUiPODsxwXsfJiCSKwPfaHBKJQ0VniL6DMDn1FNRKlK23qBPl06dpAQG4ABMk61fv0E+bNjYh/+IkUPkzdffsAQzyGtekeXLV8hHH2GQZGkO/TO+mlHq1a8n6VKnQp4ATNvtlREjv5ECBfNLnffe05zXsRi5UOGicpUDHeBzsG30YQOJHjOGnDl7Vj7/vJcsX7ZS06Z/MZ1MnTRRp/C0HRDLULhYcZ0CM9ujA6RyxQrSuEkDtR4dOHhYWkLB24+pMlbtwwb1pAH+22Mo2HY7MRVX9V3URzkyQLp26gi6FJGIESNqnVu1aoOpukOU/VLz3WqwnLU0fKDQzS3xGjqEX+4BUrRwIWnTtpXEjRNPnzlFuA1TjZOnTMXUUFpY6j4IBp/0nzdvgbTraL6yokMBpFUvP6xgESNEkPPnLkjf/l/IvAXfaxWLFCkkfWARscHNf+dgAcxfoHAw/o8XJ460atlCXn7lJdAkJlwSHJPpUBYuXrwggzEou9v/r+D/y5cu+eAfO35SqlThICvOrr1PtB3c9Lfw16xbK40aNdP6sP9xqrn35z0k42sZ5Q58FY2GEjts6AjNT8VmyaLvYSUN72MF9r+PW7eTRYsWK/zs2bJLj+6f6VQyp8i6de8uK1au8sHPCUVyCBVJ5FO+RfsfOXxUSpUu5+v/jRs2kHdhwYoGBezG7ZsyZfJU+WIAFBkQncr+9/NmS+QoUYier/8vW7ZcWn6MjwrIkvSYiqTiGxHTXmy8kV+PkkFDhmj758uXV77o39cv9B3+Y32s/GmJPmX5n/yXCy4bhg75yjCdQvXf/pXyZ2abqnIEyhDrUnnwIkmQ7hWLoNJvYt0Ccv7Qb1qD9yasl+gJnvfhz/5/eNNKmdOmurxaqpa8XLiixE2RTiJENVNRVzBl9eOI7vLbylma/yV8nReCZUqZ+yHydxqm9k5xag+VovXHBjf/u+UP6U+r5t3rV01S5PttxWxZOYgKCz40oEilgfsD4mjb383/2+ePl1UD2mg7RokdT0p2HyOJ0meCInhdNn/3tfw8po+Wa+AHSVO4PwgJn+4k7oN3M5apjTVkebCAPxGsR2gpfDjtX7dQlvRpKXdvXEG+cFJ99EoolOm0Pmx/WAQ0HevEGi7s1VD2r/5e8a87fTum9qK74Is8x1kRLIGw8pf5bkNxHV0pi7Fy4DXr8cZ7rSRK9Ng61boKisGBtd8r/PhpX5LKQxaDH8P5+I+QLfyJ9dHmB9HmpjoKO0edtpIMeMVI+LxaVA7+tFR+/ravNF56RPORHlSeNBP5G+Hgz0tlfofaxNAoUjq1h0JD4X+COrR+JRSp6voBRrkRPUESKF+DJdHLWaGA3JFf4V5h/bh+hCRRYieQ2hM2SLiIzwWDv7D7h1hfNlfhP585hxT7ZJBEi59Irl04IyvRxvvXQWY48FNiaq+k4/7A4k9r1tg6uZCE9RR5s2YryVy+rkRAG9yB49itc8bIj9yZyDpgqrHm+LWYsuWuSj/++0DnBV0/UHImTJ1BKg6ci3rSqi6yYeJX8tO3mA1B+WlyFpXATiNRlNFFLP2dDqbwUbAv2Nu/sv8HXMPUniJPNY8N6BDHQLUg+Q4x/EE6owX7U1D9Mi/ND9+wTC3YKfI+FCV2Ri1RGcQQzNnMiQxPP/wTp05K0eKlfPg3gyWpdu33gKsff34Nt4AwJ/45ckGID8LAg9ch8V8OixQVFot/CUxpdIUyEB6+TgzhSEUKhyCsYbop0aJEVaKOmzhJ+vWhpUukQIH80r9fn2Dwud7k3RrvwToBB3yoxJf9+kqBfPmCwS9SLBBWnzOoV5C8xS3tVA4orJz2P3P6rBQqwq9SkWhQUpYuXiRRHfhs/+ZNW8jK1av1fWtYTKphm75WziHDGaxnKVwE0wPKBDC5L1og8RPFD9b+jRo3k7Vr1ir+i76fi3Vlz/vgu/FXIKSmJTHg34DVrESpspgGhcUD8dOmTpAXX4CZ3UmjefCiQaPG8uOPPyv9vx03SjJDwWASjUCZxP8slK4ChYogjjAwfZIquXw7apTEgTJlCtQMensVawSixYjha3++MSAdwC74irqDf2jtT3oRvm1/C//osaNSomRZLbmq+pGCIhUCf9v/1qzF1F6jpshqAH83baquT2O9LPwqVavL7p27tf2/nz1LkiVPjpcm/aEDB6VUuQqaNm68eLJAlRwoMNpwosrYOxUrQymmkBfJCX4eMmRQMPybNG0pq39YpRA7YBq2QsXyBO+Dz3zfQBkaMGSwtn/z5k1hGauhKdz49+zdVyZNmqx1qw5F7GMo35u3bJH3atXRtJyGnjZ1ssSMHSsYfIOJuRJWi1ZQpPCRYvHPCUVqGPpgyP7HGrrhW/orbRz8Tes62FgQ4BNLf76x8LfOHoOpGyj2AJy7fid8HZsBgAmunTsto6plQdEBwu3qVYZjEAoB/xbWRpH/IkFxt/R3w79766aMr51HrsDFAeHXn7dXwqu3cpZkK6fFslqshkzF9IgqUnjdCAP1n5G/e5Za6wwcsnYcLmkwpRYa/lxrOLZGDqyvOqHwK8O3UQLsMGPVLP+v+qKNbP8ei5Id/muy6MgD/H/55GF1DaGFKF68AzYOijsWTpaV/Vvp45s1P5Ls1VuEif/3cH+wj+4PkPeD2bskctQYpkQHfmjtv/m7kbJmWBfADJI0uQKlOAdoF3zK1xlNSsrp37exYhLY+RtMd0J+uNIwnvSfUM9RpACfszpVBoMm6TD1FAL+Hazr4notK39Dtv9BrJGa176WFpq+YDkpBiWa5GDgb8j2P+RYpMjGBFVtxHKJkzp9sPaf0qi4nIWlivKn5pg1Eitpah98rm8bXyevlh8ldnx5b9xP4DV8/KA8nYaFojuhXkG5iPVOYEVMOec17g9MZTTf/I61Zf/PSxQ+XYK8UurdYPBZ2K/YxbpudG8WKznrtZessIxpBlf/43Q3+xYRzfxOXcn1YRc5jTVmdCPCEC1eEqk6YrGuA3OIofEsU4tBPtLg7+7/6pCTSCkNCJTEcqrCWBKOxOLEjhLSvHywsqy4xga/ECF8Jyix+IZIUevUG8WWuZ4N+KpIFStJNDQsX7oIi3zjKeKKCmLvwuSYN18BTI1c1zTrf1yDBaORH8B/+YrlqnAZqgXIksULJGH8BI+kf4OGTWTduh+1bJ264/Z4kNDC54vZs+dKx85dNE2lCu9Iu0/bBoNfGOu8Tp0+pe+//KIvLDn5tO3YNrb9P/6kjSxZslTbf9jQwZKTcADkLgRmViw+tmHN6hUSA8qFGz7fdejYWebMnafxn/fsIYFFKWxQhNP+TZu3kFWqjAXJF1D28hfIb1gCBZEjCCws/luydJm0+ri1pqpWtYq0/qSVwjH5NFovmzZtltp16ir/tWrZHFNC1X3wLf+dO3cOFr+iPvwHfNlP13c9DL6FoDg7iIfE353mj/D/MVi/ipcqg+wBWGtXEeuOWofZ/9auXSsNmzRTguXJlVMG6RSWhWx+hw8fIYOHjVD6jBn1tWTNnBm4orZoiClTscbt854Kq3btWtK8SWNf+1v8x0O56QUlh/0/J2AMgVJiw5mzZ6BwByp8bnKYMX0K8pMS/sCnG7AwvvlWLo3Mmzu3fDVwgMI3jcZWC8BGi9vy3nt1ZPdu44G7a5dOUNqGykko/PyYGD92lGTCAnjKIhuU5nphCYZvunbrLgsXGaeUTJcbHwq9enPa0QTLf7b9TYH/v/zh4thxtd/WiqTMnh+Lb8cpQMLds2qOLO7eUJ/feLeFvIGv8z8Df2nfFrJr8TQtpwYGv9jPp/IPFoh1kUbTTMfUHp2Fkv+s+4M/iv/uZd/J4l5Q1lF68Y4jdKu9Fo6L0twh/Ln9uzAVA8sunrnmpdIgs1uOry3/c8pvKtbV6McDKtIYfqT+KP0vHjso42rl1ipkKFJJCnzcXxF3qmGrpr8LP4MiBc/shG/dHzwK/zlYW0TP60SkXO/JkjRLbq2ie/zbtXiqLOsLKzvCqyXpO+xzQwuN8V8mYmrvAqyQhJ+l/AeSG+4uHgXfyl/Ct/LvAKxW8zvU1L6VPr/ZtUcoirODuBv/Q1yP154fKyKpXs8vJbqP07R8tvDXj+8n68f3B25BUqH/TEn8qjm9gPC3zv1WVn3VHqmDJFvVxvJW7bYPjP9bZn4jPwztpJVIke1tKYPF5pb/+OEwumpWgtOF4lVGLPPJBQufFeFi/qEl0qJuAZLyzYJSquu3D8ifu1DapjUvI2d/36plFPiov1o2r8JKy1BhwBxJDEubG3994VwYb/mPUW74JhNr/f/3f3V/oJVgeeHw31IDtwzmHSKdFlYt1/9G78wFKU0tnUwm1lTToEOljElChmcF/okTtEiZqT3uhpo2daILFT/+n7Rpi+mSJfpu7pyZkiJ5CtzD+OzCn1/NtFwxcGqLi3Efh/7FS5eRY0ePIVeAbPzlJ91Fo4WwpRz6Hz9xHMd5lNZormsZNngw7v3wi+jUHtchifywajl2DMY08szV/tMwlfVZDyMgunTuKGXKoDy03Sks/C2CNVaE/8Yb2bEOa6iWo43uav/587AInOu48LZFs2ZSuxZMzS78vxo0RL7+ZpTmjYcpn/r1PsBA/ZYkTwaLiSsY3kApLv4bNWq0DPxqCFIF6YL/jBnxlYf66C4P5kUmznvfvHlLLWfsqMWLFcHC+O4P8B+tWgWw2JwDNNcGrYV1xa0MhAafcQokWGdBrAt/+4r4E76b/sztDgYGYkB/OuSkIsU4WqTatv5EhZ0bf75jqWugSDWCRYqJ69SuJc2aNTb9VwvURDJtOtqxO3gL0x79oDQXyp/fvMB1wICvZNSYbxXW0MGDYEF9y+T3pRD5/fffYWWqAhgBWLhNi5SZ2iPQzZs3w2L0vsLnpXhgUc15n1MsRByB93QFsAjKDbeeR48aVdatWW1eOletLtIfwUL1kiXLqXLAOAb+tmzRTGpirRzLfJrlz9j3csjlE4e1jg3nml15JMPKL1vLDkx7Ef+KX8ySxBmyEzVfsPiz/e/A2srFxZeOHxIOFrcuXzB8Dfqf+X27XILFhumrDFsK69ZLvjKUUiH4j4rUCShS5L/Gi1kv3Dnt4sqo5amCCvi23ez732CRoiLF9g9sT4uUmdozLeMv7NAGM53EfNmrNZG3apkPHaZw8//gwsls0aiTmW5042/hn8bAeRJ1v3bmOHbuHZN7mJLiO/7SHQBLTYe6cLGyCSglBP5UpH6HIkX49WbulAjR8cHnr7KvHm74Y2vk9NG44YKDkK+YCidxgL/lvyunjsD6lhP5g4RKROnPYWUDjJDwqUidgyJF+FWHL5a4sEY+Cr7F31aOdaMfr3mw8PBd+oJYI4WpPYUXLLEf/qFfoEi1M4pUlsoNJdf7nyK9X/6zbE7DcoqOoTgWztP6Rv5jkeu+6SEbpwzR0ssCt+RZ8wbDn3U6u3+3TG5QiNmxRoqKFMZCh/4n4Hh2RvNy+o7k5gJ5yh9IBR/+Og2L572r5pJyEh5rrurP3a3w8egLfEdfZuNgjWWF3P0/F6xYWSrUd9L68dcCCRiBP27++zP0D9n+rBNLdVfWmdpzIp26MJnJzLuQ2Vgtv4eo4MUxPYKDhCKAmvMLWLVrvNL0SnDc+QjjlIIfi+jTCP/4yZNmsTnwyJUntwwe+KXBhzi7Qq9efWUivuSJ9ddfD5Xs2V/HHengx3/5MrNrj4xRt05tadqkkb58GP500qjnnqGc2FA+Vi5bHCr8m5gKfDMHFvXiX9Lkz8v8uXOCwS/MqT1dbC6yaRPmx7mthbVz0X/pMqxbwTQJIxt+WF8aQNFh/bdu24ZBrbZ2ilIli0uPbl01Hq/8AQl/+nk91lY1AuMHSeVKFbEbDpYVpNCWRtzZM+eldJlychULw5VPHPhcy5MJilG+vHmh4OSTmHALwaD5nLuOHTvJLMfapVH24gNgIpTrlKBQAt56Q4bCsmbha49E+nMXqEhRAQiSV7BzchLWFTE8Kf47BkWqBBQpwjeezc2A5Mbf9j/u2mvk7NqjB/Sq2C1qKm9+iP+c+XOlfYcuuAuS3rDMUGlnmxD/T2B1XAirI9NNmTReXnr5xQf635mz57AmD2sAUWQO9SM1SMuiUJwzB5bPTl0MMF4fQn/L/0z26y8/wq1CBE1vBKODHX6WLjHWRkv/PHnyyMAv+2M9i9oEkFtb1QhlfTJgWa4vsB4ITEmE/in5s3ZEN9k0fbhWqHy/GZL0tbcU/tdYc3Pz4hk9867ed9uxdd6ZvjfNYOqJgWYjPFpvGD/Q2YWElySLuejVQUvvKw+HIoUt5A7lmNAfnITTsd6IDjlZRhO4P2C0pnfanxEh6a/dBeks/XlEzBIeEYO4YnoEDj8kH5T/OjB/iYEZCfN+2E0ylq2NWzyEoP8ETBnpsS0AzHVbIeFfwOLs1UM6yZFfV5nKsgwEXt34k//SY5oxEIqUjWc6DU7Ews+wzgcOOZm7/qxdWHMW3ZQTBv701j24aEotgut23p+2WfMywg8f68iw5mtIqfQaR59hNb5dp3l8Fwf+pA8KyrnDezR3A0wt8sxDLScM+HwZkv6EbNZI1VI8dbE5FClVSoLVywcda6TMYnPmzdu4K9Z51cFd8PFn9+IZshTtSuWaNEzHXZAO/AVcH7Vyjj5XHsL1fq/ylUNn0/+uwDXHmCrZFKjdtWdrsGuRtdhZhEweXzv58EedAF/5BKVbxZXlWP7TSuB5/w/z5ftuRmliXVLAglWy62gdu3zlMiODE6HlAtY/0f+xa+8WsfFXwLklAlx7gQ97JaJNwK9LH5KssC+9ScEr89HnBV9ziLaNbhIjlvB07GbhzjMzMoOvvKcPPhebBwaWVvyLFy8mn2Nhrr++RMCEgV8NlG9GjVV0+vfpJQXhusCgxavBd/lKWKSwRor4f9q2rVSqWOGR+F++clny5i2o8FOkSiFzZ34XKnzSP2Pm1xV+DKxxWgMLgBt+kaKY2oNliQuC161dZdqDVXfRf83aH7EAvYm2vznz7RNNsOYHDN6cTkKBVStXlDaYegoZCH/79l16+C6buRAG774YxE1lnfbGi6NHjkq/L79wFgfjtfPK1jUe/CANxlTSyy+96IBglwgn9Rs0lB9//lnTly1XGn6CEjvvzU9o/JckUWIpW5ZTZn74ICTcR5zDtCIVKYGLCSxKh6sJE54M/3EXGxUp0qpa1YpQdj5x2o61Mvjb/rdmDSxSbAuE9u3aSsWK7+i9G/+5UHbaQ9khTfvANUKRwgVRDJ5A/wZKx5/0eeZ30yRNqtQufjL4X8Nuvhw58yhr0J0ErZsW/qhRY3zuP95443XJljXLA/DZ/u7+T7FW7/26eu4Z6R+y/2/auhVrqOogl4Ffvnx56di+nZYbEn+tlGEW5735ceMfEj7LsPiHBt9P7D/e/kexrX9W6yoq/16v/pG8XqOlXMaU39g6b2uxLxaqIIU/+TJU+BsmDpCfR/fxieIE8POT+OXMEjlOIqyHDq+I0c3C2T3blP4Vh3wvidJldLWXnwQW/2mwSJ0ONrVHYv0x/Hct4Ropw2PFsdg8XZ5SvvZ30//XyTgqZ5TpOwVa9JIMge/q65D0n9asFNZtbVL+a4w1Uu72v3b2FLzEF3V2x6GnQ46kzl1cYiZIKhHhRoVEvA+fcb/gWB6ycOo3C0vJbqP9iDt3Fv8Fn9XHYvP5yn9mai/GQ/G/Bfk64p0MWkqcZGmlxuhVYY5/XxWFZQ2kpLf0+nBt4A4W/gRYpC7CIvUcFCgeGm0a64/Rn+PvISw2n9uhFvIHyUsFysMdAKbXnab086u/Bod/WS5z2tVU+hfAtGMGTD8yuS8TiLdrKZSdPi0QFSTFPsUZii53ErPaVMPGiR+U/lVHrsDGh/RO4X75ww0Ew0q9AF5/0CHnximDYNWC2wXkSpE5lyR+DUdMaQlGndMF6GSMEP0/e9WmPl5nXUlHq3+c3PmLTvGFg+Ci/HmlxLuSv1kvg5JTO/tj6U/4Ifnvj/K/hW/K9uOvCBGAQUxgkboDsiLmQahOWiCE9BSANpj8uFKb1NzOO5MQKQ0RNL2+MjlsfgPM1EDTsmwmCY71Uwf/hGORYlU5qAzFwtvQ8KdvJO44Yxj99UjJmjUz7hyKa2wQFsTCIoWpPSqcXTq3l3JlyjwSfzJQZniZJny6Gli39odQ4V/F4JcrN0yhCCnhIHPOrBm488PXxea0SCFs/HWD2b0Sgv6LYamgxYITM00bNZS6dWtr+h27oCBVY8dEByxWFLvEPscdMyMQBG7Zput+xPodTjvhuVrVyljHZKYxNZ2mN/Vh2kuXLsq2Ldtk647tsnL5KnUMySTspMnhE2v2jGlm56HJLF0/6wF3EcAJCYZjYH8rx5vmjQs+O5MG/eHFwPNHmudzuti8sNazRClY2Lp29SU1xf2z/H/0MM/aAy+gylzE3xqHFpt6OPgAAYNNkKzBWrnGDflVSX9bUKTU3xbf+/ufrpfr1Fnx7wNltgiUWlsCrUmzZmPqA/knjh+rFjmX1qNw6SajKKaC2cbWs7mFv2DRYkw9tlf4dd+vI02aNNSi3fC1snoJnf6alu/xd/HKJSlXtqLxjYZntj/5rx/qXZgKoBMsfCYIrf/9Wfj/r/y5d+eWrvlg/ZLAcSHXb+yYP0FWfMmPEOxObTdI0ucri3uDAdFhXbkLbXjpl3z9v+Rn30oqfHGH5L/l/VrJjkWTmQ07A+frWqSH4c+pvZPqkJPuD45pPnMJDv9h8n8XLFLLejfVGttDmUOjv3vdUK762Ipeoa4flAvfsTVzwlHlIbzjdCMsUvi18DdM+hLKZF/tf6neKAh/SQOxCDu2QwdCFfVHNPa9nJonNf1xdRmDMsw7J6EpEzzNqT09aw8x9WbhrD0oPSaEgT/yDCqcXOFze3+DOVyv92D/p3PLEWXwcQf+iwM3FO+OWmWKNQ3mg8+pPe7aiwC3AfVn0zJlQxjwwxj/jCL1HsrlNFlZKQyLlNIsDP4/uGElFqdXV2D5mnyOdVy8Z+VsCNK1dlznxfEnsMNQKMiwSDnwl/VrifdTNUcF+GZKjDVvPhqjCNbj2tnjMuZdrqsKkGTZ8+oaKc2Al3tWzJIlPRsrsOxVMM1b2/C/hR6S/237W/i2qoacWD95+Tz8ReX3uZ9gOcxDC2l6KvZaI43Uop9E/zdHxDgMYCvIihhkTQyoBYmGOI3GBTsQNErrzni8p3bpy0fmI6qMcwcTx12nsGSbfMyDP5vUpHBF6PunAz4XmxcrVkrxTwUFZdas71A71j84/s1btDLbxoHW/LmzJVmypA4R/PgvWwqLVCtYpJC/c+cORpHSJ1ItbPxLl3lHDh05pCB/xEL2KJGjPAD/8OEjUqpMeYX5NqbIBg7oHwx+sUD4kTpxWvMtW7IYDivjPUB/7qDq2ZvblQPgtBOOEkuU4K2cO4upsCJFFH7GzJlk7OhRD8Bnwlmz50inzlBKEOj7h84sGU/sHtX+67DTrkFDTHVqCJBp0ybKC2lfUPj8FB07YRx2K36pY36Prt2kZGnM7/9J/qMD1PzctYcmLFG8OKyMXR5Kf/0U/hv5/xicYxbHjkRWyOzag8UvjP63GlN7jRs30/ft4Ui0Iq2aRAR0tv1vtmv6jRYpKiSW/kOHD5dhw0cqXb+CZTBv3jxOC/n5b8eOXVKtOtZbgO7ctTd00CBf/9+6fYdUr1FL4ZctU0pdgYSEj8q4QtjtT79gTZu1hPX0B6V/6VIldLOCVg4x87DjMHkKDHKox8Pkz+XLl+SyekA3NYkUOZLjx4zVCBu+ks2Xwo+/wg+D/irCUKa7/3/fpa7sX7tQcf5gxk5ZMeATbCOfp891p22VSLHi+uiv+ZD/8C9wfdDODHxZsEU8V4POSM92ZHDKh/yd0bKcnNj+i+JfGQMcfQSFJn+Yh/+mtyirXrRZirH+cHr00f3PLX/M1B4/iDDgYtde2twccB+U/0dhwZjZuiqgBknWiliX8wEUbPxzBx6nM6hYCh/+jZfAIoUc/GPSqY1LyOnfNmtc3WlbJDJo5caf6Y5uWiuz2lRW0qV8CxaprmOQBJlD6f+0SFna19Oz9rhr7+H4T6iTBx7VD2iFGsz9XcJHimrKd41/F0/slwm18qj8SfNWESnRDTIwFPgT6JATFilu+TdWqz/Hfwex+21e+9pKihe42BwKubKkUof0C46/Wa+GPovAhfBcEG+CH/7OhbBI9YNFCkSlfzBVpPQpSH4e94W6R2Cekt2g1L+FjxgX/mz/07u3yJQmXC8XICm4a6/7eM3Nhjy1Z4tMw85GhgxFq0gBePs3wQ//ccd/Gg/md6yFdXHLFf+XClWS3cug5AFl9r+aY3AkU9KUodI/JP+xgEe1v0nhMKRW2qFvCPwtfNv/9IiYABAmiE5XAAaw8GMLsr/6Rl9p2RaAomLT4JcaMsvgHx654JcLdxl3n7+IVwAgjs6NMivTPCPwTzoWKUUfWM2bM0OS60JyImbwv4k1P29xKsTB/5f1P+KYjwgP4L9sBdwfcA0S8O/Spb2UxXohJRxp8hD6N27aXH74YY3C69e3pxQqyC91P3zSetzYCdLniy+U/tzV1rY13Cy46F+kaKDuhkKU+oAqW7bkA+3f4ENMn/20Xsv+ZuRwHBOSjRhi4atZp2UY5T5cI2BLb4L4Wh93+zdq1lxWr4LFDED69+0FFwP4wv4D7T9gIBZCj/5W4Q/CWrTcWJNG+AyrV/8gTTDosivlzpUL038DcI+3xFGZz5DwcfjvPNYAFShcWPEvUSIQfpSg/D2E/oRvglIDt/wNTn+tAqIfB35I/tepvQfcH/ggOLD5w8Xma7BGCooUALZvCw/wlSs8gD93TnaCRYrt3xcbGooAVwp99r/Zc2ZLp45dtf9VeKeitP+0jYOOH6dhULaGDhuhGObSNVKYVtBgLIl58xn+ixYtGvxULZToWLD/Z/AfNXq8fDkA7QjQOd6kv6qBMnfefN8arPTp08uEcWMkUqRIPvhs/5D0b/lRK0wVr/D1v1zYaciDlt38b/EHCVDEXyt/dsNitKzvRwo/sOPXWIfSXC1OibArirujtL4h5N/e1bNkYfcmeBckbzftLq+VrKX3ftyMJWYcLDE2VBqMXb50L/AQ/lv4WUNYZMz6yDrTt0qUmPhgYvoQ8B8mf/csna5Te+Tw4rpGCh9UGpR4uOMvjoQ5dlC3zNOlQExdN7SWYILJ/2NUgj6pgnh9IU24a89Ff12sj8X04SPHwFTYLl/ZBOf0MFj3sHCfLhQANzUG+BJUpOzbEP1/Wd9WsgvtQZlQffxPEishFPFH4D+v43tY3L1c8wRiEXba3PhI80PQ+80zRsia4d1wf1/XH+VtxA9G0CEE/Anv55cLh+HZHBapD+bs+UPyz4cT6s41UpzaI6XtWXsKLxT+J65cIzUHu/Yof/I36wl+qv4A/+9cMk2Ww/JE+gd2hKf4PKVROtsFfgKhZOk7PNCaRWXM0h+JNKxXZYsKEhQpWKTokNPif/PyRRlZ4VWFHxEuJ+pM2iDho9mF/gDwB/hv49TBsu7rHgo/BRa9l8Zu2N3YAME+RvrHxxQ4j/8x7hn+uPx385/F/8/If7VIBSMSaUlcXaRjAzKNeaF3fNKGhRgCXFwRTTOhmZ/ER4uWYXKq+ZlpkMfmdt8zjs8a8PC0wjcWKaNps65cO8SpFzf+U6dNgZdn+MYAQkWLFMZuPOx8A100DfJY/Fdg115zZ9deJ/iPKq/rd0yCh+E/H4MLd8MxZIFFaMTwYXBkFsFH/ytXL0mVqjWE2+gZRn0zQrJnyRYMPnftnT51WutCj9jfjhkFZS+ipmfk73uxUwveptkqdKK4eME8nJWG91qxIOncpZvMnDVb24zespvBa7a7/Xfv+U0qV6mm5dEP1cL583E2WnAXCXt275HUOJuQTjxDa//mHBAx/ckwFvXLlCmjD/6dO3ekPPwbHTl0GHkD5KuvYE3BtvrQ+I/nEXJdV963c+PcPuzA0RKJmWkL7trLh117fC5Rwiyefxj9KQRsMGX8tfzPXXslMbXH/sfF422wa8/W1dLfwjdHxJipvQ5YZ1ehAhQpNASraPvf7DmwDEJZIv9xnVphndoz+J+/cAFe3aFEokDCoL+vBAmsC44gTLlekbLlKzgeyo0fKfpFs4F5OnX5TL6DtYjtX7sWdg42pSWR61tIX1Nz8j/37Gz8ZaMkS5EMjkPhZBGpLCU34YigWrXf12KjYVcfp6LjO8p523btZcGChZq2UqUKeoSPJlQoBoa7/7Vo9ZGuuWMbMnA6chisaCH7nxu+xV8z4OH/af+r547JmKqY8gCABOlfw067bagkrHkftJVs8MZtcXbD5846eiFnSP92GaxZwTo0TWmQCLoHb/s9mxgHiU4BFQdjygUWKdLYjb+7/X/6to9smADlFPDfbvqZZCz1XqjwH4Y//UjpomTUzVikrCJleMYNf0pj+Ff6bZPCK4MBLwWOtNEWYvvjmJIFnWCtg3WFgZjpsTX4tfDntIPrgQ2rlHZVcWRKXJyxxmBpxbP79FgSJ09aWKSKQ5EKC//1EzBVCGeXxL9wmwFCR6ah0d/CJyxa4JbqVGaQJHnlDSnbewp8+xkZxYrdwvQzPb/zyJNwSF+u33eSJCOnuAAGcNz05xoptUhBMaw/Z5cPD8KxOPHeDZ8PIfnPt0YKmdQipbv2bBkPtj+PI5oHRYqBStBrJbBeChV0w9yNqbuljguHolhszoX7GgD/5uVz8nVFyFvNgR3Bk37FOY+JnIphN/SVizLh/XzYQHEW1Q2Q5LBIlek+IRj+K7/4WHYsnKRFZqvUSHK83wZ4oa4Gir8uEFZHt/4Ex6qphF773fif2PELzossp2m5UL861qxFi4t6ICzG1OHvy2cp/FdK15D8jaFshaC/xTi08ddNi0fR35dWG8ZiEIL+1+GQ08FNCcWvBUWXO7kUAgUzNT2uVsAbSmm+sw1jcwOaMhMK8wPGA9NrjK848rXG+NLZCpDQTzH8kydPmbP2XPjXqF4dZ5mVxZdyRFm9crV8Dp87Fq8pkyfISy9SGDAmOP5UpOiFmeTRqT0qUo+BP/1UlYYTRTpuZKk5sCWd3sc5fXhg/wHpiR2D3LJOqmd/PZt8M2IY7oLDLxwYCEUKDjlZJyTklA29oydKkgjnnu2SdnCseO3aTbwVDOSt4GkbC2hd7X8E7hdKlinry0//TGXLlpZYMaLLxs1bYWHrCs/r1xUsy633QV0tSzkBF7Z/pUpV5fhxHA9SsaLkyZMLLiKSC6dhNm3aIivg1HTmrLmaJ1r0KKDrSuzyIvf5+e8nLDan1Yz1Z6hRo5oEYsoxKcq5Ce/vnN7c8OsvMmHCRD3uZNkS4/NLeRTwiTv/87BndciJezpF5TTmP8n/Bw4egpsGQ2u2/+EjR+Tjj7mmIJwq4nXqYPAjwUD/cKgZrX9x48ECCERUkeI6NIT2n2LDAnyGKY3xrGRBttmYYu3Yqaum0V17WFDv7n+9+/aX8aARQ7LkybCw+1NJlzaNHiL9ec8+WK/2mw8+fTINoa8qF//TA3rJ0mX1WB5aI3LBQlgbynXKlCn00OujmKokT02aPAWHQx+W/n16Y/NFAR/96VmeTj+p0BJ/PUYG/KgwgMRVOCusVKW6HD0Kh5LI1fPz7pheL6b4kyq2/Vkg25YfJ+xbFv+cOXisD6YjmRb/Q7a/ptO3fPnXyJ8pDQrLGfhVUiS1ggFwV7AEB8Wa7e9u+hP+7etYc4MjZix8WhDSv11a4qV9FU4P98pPY/ph8e9Kxd/K34pD5htFyiLg4K84okz+nj/8m0zE2hJTEXx4QZHjInZx+lJKbN2PGD0W3psASY/jXXag2sittMDpCqtny6+ThyIBrL91P5VkWfKYd4SHWC7KDh+JywsEHr9x5mBnoxCzxMJY45QsYw65ARcOm6YNw5QMlkKgaDOocych10j5w4YJX8BbdT+Fz0N+M5b9AF6rC+Hg3Lty+NcVsnpgO7Q364YpShSUBopUiS6jTQGsD8vGE+vF34Pr6ciypsZwei17tabY6YiDuLHJhrIkdpJURkFACg3Ame4VOL13+YSpG51NcuNArCTJcRDwPpyH2F7OHtij8JNlygFfU9OcvA/Cn6gOOfdgag+KFBaba91YR9YVuWw9TQGMMPx3fMs6OfTrSidhkFw4chDTxfO1/ek4Mw2tZE4ZPLomM5y/6jPLRjGH4ZBzzqdQpJAmX5MesCqRBuad5X8qUsuhSN1HvH/Xnp//aXHbNGMkqhQkMRKnlILYQMCzBS9g88TqwR3lzIGdWn8C1F17cJPgpj+P0xkLf1/meCD4iYI/K/JfnKRpsGs1HOh7BEfXbJEts0erY8/AjiP0+CE7/t+4dF4mflBIblyiH7kATB1+C59YBXztz8O9pzQqCjchhxW3ovj4eAEfIcTfR1e9sTHB8ecrXzotgRF+/K38IVKPo/+YNVJOQSgG/1g8ggPfxilQAmIKvMMtpnnML/NQiKKlTT4twF6Yk82FX/4hmcLgDYPzw1sLi/car1lMnVgKpyOeJHy6P7BHxHAK48qV60qH0PCvCQXro4+ao9as+YP4+xxyAv/OsEiVgyL1uPivh2sBTmE8DD4tScOHgbnSU5ELDt/tkJPuBnQQ05oGb/+s2bJg4BwgUeDVPCT9vx07Vvr1Hxgm/ihOMsNiNgjOF2PEiKalsxDb/hUrV5HfoPA9qv15cHK+fPkegE/++/qbMfAnBWsD3j6K/+xaMAtfK4JanYcioIcW474kpva6f0aTPQL5kvU1HBcq/L+C/zNlzq7geLGwNCIEfFOfAOyShJuDypWU7qthaWvchAuBA6QD10hVficYPVnO7DnzoEh10tK5I7EoFSli4/S/s2fOyQf1P9QjgUKDnzJl8hCezY2nfnf//wFrtVpjYwLPTdR6KgL2Algu/lNFitPRgM9p4iZNmmOKcp0mrgll+KOWnLJFcOG/HYpYtXdrIo+p4ZyZMyQ1zuMLjf48CJw+2mzgQctDB9upX4O2G393fUPD38YRi8eVP+vH9ccak/5OFXgMR1x5fwrW/sBMF5L/LPxtOJds9Vdt8UhICA7+9iZqrPiSJNMbUGy+1xSVsWsvflqskUJy5gmL/9eO+AwuGagIISH/UK7Fn8odFQsbTu36VXhEi4YQ8LU+kO+qxyCBbX/6R4qX5hWFHyT3ZGGPxvAmbj6CTEHEJ7j8sfDVjxThOIGL7se/X0D9Z4XE38LnVv6ts0Yp/JRvmF17YeKPyn7XqqIc3/YjIDyIP49/ydvQ6e+awsg/7r6cD+vZHRzAbOlv4Vv8o8aJD6erkyRB2pfxKnT662JznrUH+amLzUPQX9F24W95jUon241VDgu+pT/hV4ZPMXf7W8/mzE2v4q+WfBd3wfHftWSKcSoK+PTFxV17Fj7zXT93GmvRqsCixkXyyMt6uto/TvI0UNT3azvwrL0yXCMVYvznFONCOKK9c+OyKeMh+FORSgcFkbQMgvd4enKnPywCzvxOfclTHz4Jnf5PHib+J3ZtkelNS/joX33MKj2DEplcAQnD4D9NRLyc4MZf8WV9caPtizQh4QeTP2qRIiynQP6wknxWzRm/apLTFyiSv/paIzSb0s9Vhknhv4LNgIqSCHesmgGHpVEKA1Emwvl5WuHT/YEeWox60gr15htvSudu3eS6Y33RTgac2rVrrb6TkExDaPivxjqnphhESGOrSDGxUvUx6H8EX/qfdugknBZhcl4s/Lffzosy2+u0nHkVnP48a+8kpvaS4NiNoUMHYb1RC3zxYyrQaQ/Sn7sI2wKPSDBrh9X+P/28QTpg/Q2nCd3weV8HR+c0avihnu0WGv7jcdTNgvkLZDvO7VMEiLgLfvZs2eC/qoFuqQ8LPjPugTL2WbcesnU7t4UjhuUoQYg5LHbwH1UYykOp0qVwDl94vArOf5ew5TlPvgIKm4vNu3fv+o/yf8asUKRY3xD4Ky0QbVBxEAJy7TDVVwWKFLs3XVQ0hB8pvqVFqiIsUiHDQuysa9PmU+1/VEoL5MtnQXHNqPLf1atX4WuqEyyBq0yfd+qT4ZUMMvCLfvBeXlyL5Vl7w3DWHgPhs3a8sv+fxzmEvXr3kwXfL7SVRqwJpHm69OlgYSuEKeyyehoA802fOl0+o2d1wHv5pZd0CpdTyKH1/2/HjodD0S+UThkwHT1p4jiU4IfPfsTKfPxxG1m8dKkBjCs3W3w14It/VP7QkSR3zNnwWqmaOBy3h9Y2JP9pvVF3LsTetWCKrB7eBQcVYwAHLqQR0Ur8cjbsYBuE3VAz4NWZ61JEKg6er+fYMQ3pb/Hnu5DhN1iCdiyaIqf3bMZ6rWtaLvNVGworGQZiBYII7vCbhmNlfPRHGsK3V+1czIhgh5dqX6+QeNgeb+HT0eL6sf0xpfilSYgry4gUO76U6DRCNk4eLAdw5AmLaer4kbLwmeHSySPyw5D2WFxs0lj43PmWrUpDyYpBdUjJtAqfC72Ld4UvIeSz8FmGO/Bw24NwG7EJytfZvduD4Z+5dG3J0xiKFIH48MIjni/D0rEYbh9O4jiSkPinhiUsf8veEjV2As0WFvwpjQJ1apdn/H0AixS5Naz2d8PfNme0HjfEKln8FScKN189TVm0claDQuzGP7gihak9WKRCjr+/rZwtS7rTzx8PDf5GUucoqiAUpkOPW7AGL+3TXA7wXD0GB37CFzNJcRyNM6Zqdq0Oz9pTp6RO3Uxic71x6aysGdpZdmMaLjT8yX/p3i6li9Kjxk2o5W2fN1ZW0fqIIhJierwidr+GCx9R4bMKDFb+bJw2XNaNNG3I43cqY+1gyECah8SfxVj5p0T2lQswDv6kDeE9bPzRclCWY5EiiqZhWEWnHKc+fEOjuv+rAivXFBi+KR0g7hy8R1rWxrauvrZpUD7eqYnWdAFW45mAf+LEKSlWAnPJwL/CO+WkQwd8QWL03rfvII5cOSmJEiaS1KlTwxsucP2H8L+Oxe179x3ATqXLQg/hhB85MpkubPoXDSwhnKZMlCixLF44X+lP1w48aDgqzN4vYmFvpMiRH7v9z8C55r59e9GGEPooMzmcgD6H9UiP0/7cZXX02HE5e/ashAsXDg44Y0gSrKFJACXPhMfjv1s4i+zQ4cNyBGuMImHNWEIc4Pt84uex+BnWsH8J/ykixOVv6n/X4VV79x58gWIBKtev0appRNbj9/972H13/PhRnca7e+eeJEyYQNdExY8fX8tS+fKM9v+/m/4U+Hfhn+fikX1y/dI5XaQcP20GeQ6HuT5r8vc+1nWdwxTYDeAR6/mUmBpL/Yfa/zK8mV+CR2sqZjGfTyOxEidFfjD/38j/pL/yp1NT/GDa9Qq8k++V21cvSNQ4CSQODpMOHwEWeiT9r4x/tzDGnMP6tKB7QRI3VXocMmzXUT7++M+zGOkR/sIRjBOwOEXFWqcY8A8WNW4CUPnZGP8fxn9QpOCQ0zIoR0KfGoYHVYQM75Kp+Nod+EzWMwEDHriLC7s0peulkonxMG1z2yOZUNNoUiehk+1phu+e2nunPBWpT59J/IvC/cEpuHLgol+rSCkibAqv/cGgIIR+fSmj+tqY5HEHh3OdqH8//3v4u1vfyEPDIYz32v/fLv89/vf4300Bt/x3rZEKFm20bbUYwSjmVpCswoMS/WONibSvgpdkzGo0f9KmRW+1tHmZBVxu1gyeS7X9pwy+Tu3hrD1qlFSkOmFhrtE1ny38C8OzOR0tJk6UAIrU9w5vPP30V8JbJntC/PfNaJjdV69Rmj0O/6OXcIh1OBkWu4TxcVRLr2eS/58G+vsU/ifU/h58EN4R24/D/7TycFrl3yD/Pf5Hwz9h+fu0wldFSpUaEMgoL2B93tvZOe032M5s1CC9sgOZCUb8slfxWTPxl3GW2nyHe90LHXLKkOlMeFbgn8B0WJFALMoDTu9UKKs7nJ5F/O2hxYkw/UVF6lmhPxjpifNfe6wJmzN73mPwPz8bEFz8z0dOl63AGYnu4NHfkTloXQ68nvwB23jy1zekcOTwxh81Qzxx+cda/FfH/4eNP36LFPQd/cJQCQ9hhrU/tESpoqBxqi3pHeOUuakn8VPDBjzz+5viUBfg+bLwBjEEoALC5LfZ9PcZgE9FiovNiT/PAOtMi9QziH9RuD+gRcoqUs8K/cldJjw5/vv6m1Gydt065X8jUJwq8ecx+D92zNjyZf/emt+VU1Hz+p+SEGTx5I8nf73xxxt/nx39A4qUc9YeRHtQAPxzQIFSJQg4qPrDL2rdDoUfKFbawXXEwD3HDkdF5RNvGRjPi0mLN7i3mizL1PcmAQvFHWOffvjnsTD6SxxNQhplzZpVyuHA3GcR/y+/HCgXLlyUWLFjykctWjwz9P+v85+HP2QFP/D+o/LHa3+v/T3+f0r7/41bt+lJHoMp1BtHYaIepEGfjdrjU4B8NzaRTYsSWASFnK8s5uUzf3AfoOoUH/BfE6vfKw++R3+P/9gf0C/YZWzw+h/oYQjiSAyf6LAk8v3yg0xFipUtpCXz8pk/uPfkDwhhaaLE8uQvrAbe+EOuID+wz2hvMRdP/oAehiCOVAlT/qhFSt86RGM2I3rMnRaAW0tTM/1g3pH4jn7o0J8NwcT2jdMoNr9TG5Ob7xih9i8fAP87c+fBd0jqkNajP7nG8IblMoetDD95/Of1P0/+OJKZMhYB3UXlt9NR/DKWEZ78pUSxA5yfNuZOSWbph19P/pJahjae/HXpP74jYgxt/L3Ozu8pk/n0I+U59k3tnWbBE5jLZjY7NPikwUbzwd7zF4apIHjDCocFRsaC5Xpve70HH0RyiIbe7OgHHv0p2TQ4jATCePzn71zG8ZyLRJZe/iRe//Pkjyd/vfHHG3//Qv3Dt9hctUt8tnDspsxl0PlYrJtyjd4+hUjlsqrrmlIVIupnWo4V2lYB0HR8QEn8WlQgDiy+Q/Dgg3oe/T3+Qx9h92Hw+h9lhCd/PPnrDBLaKXAxQ4kakUxnMZYBb/zxxt8npX8YRYqKjfpLJ6eaQNa1Ah0SHczrSHi7zIkvXfzNXO4oc69oaTL7bDPpswXiwffo7/Gf7RrsSr4+ow9e/wNBIDEoNDz5Y+hgBKqyh724o8y9J3+NimXHJj+F9M4bfxzCgBqe/P2/5K/LIuUX3pxuM13QdlHQW3Up2z1dMCHgArCI08ybIr0yJ3P743z8itcsgUHlIl84wZRsGd6D79GfItAfPP5jn/H6HwWMlRXKHZ788eSvN/5446/VLJ6Q/vE/AAAA//8bQezSAABAAElEQVTsXQfAT9X7f96XbLIle0SUpgZCJFnRMENGU4NSVoUom7Klkr03IaNh/xpCpUFkr+w93/f/+Tzn3Pu933dI/4wX5/Dee+5Zz3k+5znPeb7nnHtuxLETJ6OjoyMkMkIkWvAXESER0fSJIEivUbxGRAuDTZhJS380QpAFHpMHPt8hBvGaW8NMGQw1+U1CluvoO/yNTDj5c/3P6R+nfzk2mLEmwowgbvxx428Ctj8ijp88rRYSLkZ09Wb9KsnGHwF7iIOcQKzVFILXs50YSoPKDIXe3RTnFYvMGs/SIumDh0GRLBMPjr7FXG/WT8gsgA5/ygsBcfLn+h/kwKgNdhCreSgbtt/o3Y+wCUw8Uzj9oyrX6V+IhBt/TEdy46/VHXqzfqqM8xx/I46dgCHlKR7qHtU3/BVgTCMWRYcfBBKFaRPOMel/WEGaFg9MGYmRnjNL6lgPTrFEwcNfEoi3MSYeYRFIy2RWy5lwPjn6wNfh7+TP9b+gznD6x+lfN/648Teh2h8wpE6pPeObO572ghEUAatGZwEwY6T2jW/u0JaKttZ80AzzEjB9JFIElvUYBUrRamDRYGIJJG0IOvrEDFg4/I0QOflz/c/pH6d/+cvajT86LJiJB6Me3fibsOyPiGPHYUjp+E1bzzSVb95QhjGgcfqTk02ccWIqeI0JpGFew9opcz4yAWyoCMyhcwmPAcZQot9zNswSMyU7+kTH4W/tScqXkz/X/5z+cfpXxxo3/rjxN2HaHxHHMSNl9p5g+Farh8JqjBx/SKdhFIhjuJo8/ohvjCOTj7NQnI0Cwzofj1AaVExiDTHsbjdLf7hp0fzVwRQBGoYCcyHO0Q/DhlgRGb0QG+sc/pRbJ3+u/zn94/SvG3/c+ItRMurS2B8Rx07CkPJ+9avFwqkkjsy40PCBcRMdSSPHKCeNUcNGoyWS8ZqBwzgHMQxmNt7cWA6HffzRYOJ/Fqd5GAa/o29mHRQTh7/CoILh5O9q739H9+2SMydPxpL/xEmSSYq0mVUUnP6hwnT61/581GGEwwnHGTf+uPE3IdgfZrM5DR01lszEoXn92Fo8ajnR+MEzpBcpjXLjVS0iGlBcyWOMifMtKX09xgaaaE3jeU00cjv61zT+8+bNl2Mnjkra69NJ6dKl1XhXSaJ80amoUcqc/BERg4SCoqMJn48cOyrz5i/QuJvy3SS33FKIE1OEzMsAj3EJqf9Na11XtqxYGIf8o65gLGPeQpKvdFW587Fn5LrkKQLshPOfkPTPnwtnyenjRyRZ2nSS5/7yCRp/HYSc/o1D/qx8scuoFxenf66I/nc57I+Io1jao4iomc8OZY0jBhktzDtSWIXMZUDzK4DhXrAXiQAtzNz8mSlER8FQi0QAUyoNJKTBZl9mRxhpINbRBw4WRIOWAdWD+CrEv8QDpeToseNyS+FCMmb08GuOf23t/yj/69atl+o1amvHa9yoobzW9BVfn7BLJdT+NxWG1NYfF8XR/1VTUFvARch1yVLJ470mSKYCtyd4/TO42s1qSGW6+Xap1XeWqrSEir/Tv2YiwI0/bvz9L/YHZqRO0noxdhJ9xNMqL4bScNIfLAy1WGu0qjc75pkom8+LNXcOEmbBzz4jrf4KonZnJAt39BU7heQaxL/4A6XlyNFjcmvhwjJ29AgrR1RwTv7Ot//9ue5PedIzpBo2lGbNXtEOl9D737RWdWBILdY2v7/+G5IuR171H923R/asWy2/fzUVKoIaI1quvzGX1B40DzNTqXze/B9rVCUaGn65HPwPrgpD6sQRyVwQhlS/WU7/oUnYDnT6O5lPTv8bUNz4R6nQvntFj388/oBCru3pLQVQ4q0zcTR64MONiRlmpcCmss+ml4RFGTOJOTD5jjKYJKZjrKMPEK5R/DkjdeTIMbnl1sIyZtSIMPEwsuHk75/6n85I1ayl2DVqjBmpV40hldD73/TWT+mMFPt/9T7T5IbCRcPaf/fvK2XCq1V8/VPq1ffltqoNkUYlI5AWzwlE/3z02M1y5pgxpGrAkDJzHk7/Of3vxr+rdfy3S3tWKVldRO2kb9YxOJbZZGYKvFkmm5MJQ84aS6pAgBx/T+rsAlJoelV48CGdMcxsKbh5QCdU+hs3bpaos2ckZeqUkiVzFtmzZ6+s/uknWb9+g+TNm0eXp7LekFWxOBf/Rw4flZ9/+ll27v5b/v57j6ROlVLy5MsjeXPnlsyZMhksCUs8+J8+e1Y2bdyksSlTpZIsWTJrnlUrV8sfa9fKgQMHJDPqVwTGSf6bbooX/+MnT8iGDX/Jn3/+Kbt275I8uXJL/vz5JFfOnBKZiJadVkKvplkj5OiRw7Jj124Ny5kju1yXJEkAh/WSM0dO7NEpLDmz59AGjdn+f23aKGfPQIJs+z9ZnQZAtOTNl1d6deuqfATbn7ylBo8efcrShZK/M1HEcbPST5U6ldyQ2eC4cuUq+WMdcTwIHDNLkVtuAY75FY+Y9M9GRcmmzZuB4XrZunWbXJ8mjWKYL19+SZUyOWr7z/J/6NBB+XP9elmHmaVT2HydI0cOyZc/r2TPlh02lEpSGP8nTp2SrVu2+u2ydt06ad36bW2ux6tVk/r16ipVdiiPfq7cuSRxokTocxZ4e/NK37d/nxw6eMjHP1nyZBKSZW2uOPk37aLZzMUGaLkB+gymNAXpT2tDQ2oxQ9WQylrIGFLB9l8yuKOsnvyx8n9LpbpS9rVu8bb/kd3bZe/GP2T/lvXALVIy5ikg6XIXlJTpMmn+mPRj6p+z6A97N62VvRt+k+MH0C+zZJf0uQpK+hz5JSJxYuUgZvvv37oeOuEs4owb82xZ9WRAvkfaDoI/1P6MSJXxBkmSMo0CGpN+Qtd/Hi8Xqv85/g2iKgwQTtf+2nWuOPsDb+1haY/STOdpOn1A50er4oU6VX4ahAR60CZ/PqpGQqjNauLNVQ/bRJksjkOx1+n8TKTHCC0Hqa4Q+rt27ZJHKlTRRn7yyccxyGWTPv36G6YD16fq1JA333gThkiiWPxv3LhRunXvJcv+tzxO/glFyRLF5f1O70v6tGnixX8vBr2yZc1G1sqVK8nbbVrJi01ekZ9+/lnbjWd+efjXrfeUtHijOWpoG83iP+vzWfJW27Zh+DOKqYoXLy6d3ntX0qVPH2hi0/59+vaXIUOHIp/IhAljZNiwETJ7zhc+Al77v/VWK6ldo0as9i9T9hHZd2BfvPyTPmvhyV/P7l2l/MPlEHbh5W/f/r3C+tBVrlRJWOcmiuMvPn2LGoyTOtIS7eoP8uB/x66d0rJlG8VdC8HF4z9FyhTSuWMHebBsGYuhLcni78n/+PGTpHOXboqnh7/HPzffd+zQXo2zIP8bN22Sao89aRrLI2zvHn2v/b3+t2DeF5IpU0YUg3rE0f9eb95Cvvz6a7+uJUrcLwP697PPLPzC4z+9TR1sNqchhRmpDzEjdYs3IxVq/z++nCLzuzVV+jfC0Hqy93TDNxk0woI3/47L4kHtZc3sMT7+Qf7vq99cij7VTPtkfPxv/+lbmfP+C3IMBhQLjrT6Dw+SLnteqdDuY8mUu1BY+5P+kJp3qNHFdHTx4c8yadZWfHuw5H8Qs2xXmP67GO1vZhFtIwbak1h5/d/GAtkLL3+OPkCnPqBz+FPsrPt38ocZqdOAkWAif7jVo2VSdFk2FYDnDN646lKdUQ4aZxIipamEhmk2k8PLH2wxUz7imSSB09+xc6dUqAhDClVVzMg/zqnQX9gh5jS+bJnS0vvDXoYvm4NJli//n7z40staAp9p8GTIkE5OnjghR48f861OzsJ88tEgyZU7d5z4798HA6DcI0q/YqVH5Cx+Ec/F229aJi6omnGobPHi98ugASGDLwqzMG3bd5DPP5+t9KmwWMWUqVPI0cOog23HDBnSy2gstd2YNSuiybVxvfv2k6FDhymRwgULya+//+ZF6Z0pPfojhw+V24rcyhA/TeVHq2LmZrtJC/49+mHtj0JYBjfD9oIh9fDDD/n5tXzWh/ir9DIEztb738jf3r37pWy5h5X/SpUryNnTwHE+cAzQV5sDAcWLFwOO/RQJtv9azOI1avgs9ncdNfRxTQ/Dc+++fT7/TNz01ZfkmcaN/TRauMWjQ8fOMmXqFBNk5T9lKrQDljo9/rNmySSjRg6HEWRmKsntzp07pEKlR+OVPw9/rayt8YJ5s1EGZ9xYgmmPYP97vUUL+WrB1z6OJUoUk4GQGwMr8xhncuN6AfCf1gqbzVcu1CpV7wtD6mYYUqZqlm6E/DJjmHzT/22tda57ysijnUYiLkT/FN74nPxaNdmDWSQ61i9JilS64Vsf9BIhOYuWNnkVnHD+/5g/Web3bOb3P5aTIm1GOXpgL8TSSD/LfbzbOMl25wNh9Ic3KCaHdmxmFnVMFxf+NloqvDNI8pd61KaFDLN+zGTbXxlnGfgz7cM7Exin5fP5AuAfbH9HH/h6vzrgdfg7+Tvf/mc+EWMkRnspOzUzm57NIPg50MJgMMG44w08DdJYG89fV34+KgdTEksIORPGr8REq8DaPHj29ERCps/ZhwoVoAAD/Hds3044ACeKjJTvvvshzEiiIXTvffeE2Acmy5Yvk5deflVqVq8h1apVkTx58ghnLsj/rp275cPeH8qcuTSIooUzTZ3ffy9O/Pfv3SelHyqvOJtfVdEYxDPIm82bSSFs2k6TOo0uM02YNEkOYplvQP++KNOgO2fWbGnzdjstN2XKlPLuu+2kDGY+rrvuOtkHA63nB31k1qxZWu/yDz8sPXp0CWv/Pv36wpAabnVOBHgsKu3ebiPZsZS3d+9e6fheZ1m4aJHmr/BIeenWtbP6PfpsfF3aoxChTqXKlFXDodDNN8vokUPBeUAg4I9MxHnQREwKWHAJ4E858/i3CbTM85W/ffv2wyDFzB6rojmjMQvn4VgIOF4vW7dtxczbZDl4EDj26+fTf6VZc1m0CLMp4OO2W2+VLp07AYMb9Q3EcWPHS9/+A0yhuC6YN0eNGPYuT/7X/LZGnqrbwK92h3btpGKl8pIkSVJZ9+c6ebNFK9m0aQtyR0v9unXlzTcxqxjgn8u7Wm/Q52bzWnXqadrGjRrKKy+9hCjLlK1F4sTXaZhHX3FT/DSbvP5GC/n6q6+QxuBvDEcY4NrZiTPT4XIB8Z/O4w9WQlZQVc5IZb3lbp8+q83Zv6lvVpftP32n9O+q+ZIUf+4tUyXEs51XTf1ElmA2ivVOkTaDVGr3iWTFXqsoLrl+/5XMat+YRamr+O4QyV/ikTD9c/rkMfms5l3G8EIpt1VrLPc1eEOSprpeju77Wxb2e0s2LMGMK1jPmKew1Br8BeQx0pf/6OgzEn3WG4Gj5ZMni5i39m4qIjX6zPRI4276X6LEkWAMf1b+WS75p0vI+s/U88K2v4Lq+Hftf4XLv34iJgKKMZodm71ZhdqTbO9u2plPIcenkPIwHcIMXyyG+pYHbZr9HVgi1F9PzM0I0OOzFoE0Vwj9nXZGymAQIc2aviwctHx0wBAHIi6RkP9i998vHw3kL/oQ/4cOHdbBIc3118fJ/8lTJ+XRqk8IlxGJ1Xf/WyJJkyZVPUu4PKcGwENc7mJotOTKlUuGD/0MxlRarU4Qf+5pSpE6teptHjNQpUo12bt/v9KfMHa03HzzTWHtTyO3CWbNlv8PgxfKHjliqBQpUkQpkX4fzEh9NnQEfFFqvM2dM1MHfxZIXvfDOCn90MPa/hkyZJBvvpx7zvYvUaokNpuf0LOPxoxGuay8z7HpYbwG+TdP/13+9mGPW1kYi57858qdU4Z9BhzTAUeLLTxam6NHjkgq7NWi+/W336XOU3XhiwAG6WT2zBmSHAYx+df/qGyPHr1k1OixGla3PpZXm7+h6T35b/Zac1n4zUKV/1YwmurUqWlJGv7//vtvKVe+Iskp/S/VGDOzUjH5N5vN6ygtymTTZjj+4F/2v9exbPkVlvY8/Lm8O2gADXBD/2LgP70l3tpbtVDxr957qlnaQ/tHR5+Vwzu3yfejP5Tf5k1Q/km/wahvJXXmbPDxKQpLeid0ae308aMIipDaA2Gw5rtVWfD437j8C5n57rMq/xnzwhAaCKMoMpHf/1ZP+wTLgh2Vy7wPVIQh9qn6bWPonsgJTR/FW4Q/I1ykEoyxvMUrwBe3/PGtvVN4ay/TTbdJrf6ztU2uBv13MdqfexeuFP3v+FfxtxfT/7w+oner/z395/U/6sSrXf51RipskMID8ADroVBCxicToT4F04QDJvyy4o8r/RYfPJyc0l+9quwYZ9N45bCogJ8l8lkdHhIqfTMjhb0N1n29YJ6kh6EQ5P/s2dNSsnRZOXYMS2Rw3y5fIsmTYsMxMcIzeaUL+mPy3679uzJ9Jn/JRsjnM6Zi83aOWPjvxYzUQ5hJYaksu88HveTB0g8Cu3PjP2/BlzrTQfp16tSWVi2x58fWBzetIPH/ceVKadj4OQ16s/lrUr8+Zju0YUBLDanhysNrrzWTBg3rx2r/ho2fkVWrVmv+ld9/J5H4FR7kOegvhrf2juH4A25QHzNyxCVt/31YhntQZ/a0qtIbOHJZ9p/k/zPMyPUFDsT/xSbPSZPnn48l/5s2b5FHqz2u8p8tx40wtqYr1qTEzcl3Fr1PiRL/pYu+ltQwdpkgKP9t270rM2d+rvm6desiFcpjGdI6g6Fp/z/X8viDOsgcJY0bNpLXaUhZxM+3/3V8r5N88cVcn36J4iWkB5ZV/bay7R8XfYhdLP7Phz7f2tuMc6RIg8ca8ERzkjl24G+EMNRcU2bMKuVa9Zbst5fQMC98x68rZOLr1VT+bih8r1TvPSWW/ok+c1aGP32/HP17B/qKSMMx30tqlEfc6aa/hVmxHxaq/7Fu4yXHnSUQx9gQ/V9hzH3ZizOCIrdWqS8PNu1icYmt/z6CIXXGHn9Qk2/tXSX6zwiGh5pBx9M//9/2J+ghpM1DUP4Zz1ZQqhdB/li+o+9JugHD4U+ZCEnFeckfjz+gMKkDgpxKxxXIRloJQ5FQBPz8i8430EpiHHqOEvBy40E7EwoKEcYD02uIX5wqM6bx08GvLoHT37mTm80ro+KRUqBAfpk0Yaxhj5UP8N+qVRv5gvuVEPb59Cl4AyunsqdI4EJlfhyG1uLFS2Qz3rzi7NPBgwfx44xYR8sff/yOZbkdmmfixDFyU/4CKCoc/71YglNDCuWlxEzI0iULsdigLUeyKgbGE47/Z0OGSh8sOTFNjuzZ8FZfEa0nl0GoKHUjNaakTpw4bZbn0KgVK1SUrp07Io+J5wb7z4YZQ6o/lvkewOZ4Fhhs/xbAwOw1isa+m/nYB5beiKbln/S9ehaHIXWUhtStt2Bpj+Ui0SWSvz0wSMtyaQ8uJd6cXLLoG/0R8E/0O3XpIhMnTtL2HzrkE7nr7jvD+CfqZLD8IxXRvjQKYJyu+E4SgS+2/9+7dyOukubn8u8ngwchvcE3yP+s2bOwDNseuaOkebNm0rBBfYNNjP63Dvu1atSoBeQidJa0GQ7kNACzJkQ6Yfa/qTCk9EBOVjDIP6RZaw4+8xSvJA+36CVJU6Q28hnQP2u/mSFzO72kLBZr0ELuxoZyT66C/H/1QQtZ8wVmB1Hok32nS9ZCd/vpRjQobvY4gX6T2X9JIrwkErP9D+3aJKPqF1f6Oe95UKp2GR0qXuuOLCibdfYO5MyMAzlr9v2cjDGF4Ydp8MgQv54ay4DY7c9Cnf6l5gnXf8RF8SPgdMTU4u/j6iegx+FPqBQjYkW/xQQ345z8af8O6t/z7X9mj5SHI7q6EU8EKOoE24Qp6ASaKRAHL/YgmDvz6GdlYF9pPlueuTGnnQKH1wi79TAB6Vjn0dLHBEh/O5b2HsFmc3JUquQD0rdPb8UhJv/duveUMWPHKRtDPvlYiha9E37yjBumsocOHyWfYPCl8fBP/E+GsWaOL0DSAP77MZNSGm/tsR0K49X8sTBAMPaElacVMER9+u3aYrZrBvY/YTlV3Xngfz+WKAcPGuDT79sHm81hSLH9J4wbLQWxtylm+7fDZvbpM8ys2oJ5s8wmZ0IAeipj9NDh5hlSt+KzJqNHjfTDDWQXV/72wZAqgxkpun9D/5VXmsqiJcsU/2lTp+DYiJxx4t+g0bOYmVuJ0iNkwfw5kjkjX8OPkJ9++UnqP91I+a9SpRLekKShGrv/ffvtt/L8i3g5ATjVql1D2uDtzLj6359r10n12jjZHOkaN8KBnDSk1AH0BNz/prd6SrbwZHO4vMXLS8oMWfUNvI3ffiXHD+5BKOUkQu584jkp0eRdgxCCPP2zctIgWfpJZ5W/h1r0kELlMSsX5gz/3474QJcJid0j7+CtudL4QQQXjZnBARVyqZ/7qxpPMLOolqzfJmfxVuCgqlwCF7k+a05pMGJZvPrPN6RwIGfNfrNR9tWh/4L6x8Of95j6T8H0Lwlb/rSdbV3j6n9eGLlw/Fs0Av3Ptb+Vf52RUikx0gSMVElRwPSXk4IGADUCXYZ3OKp8KjhedfwOlMH4oDO/J9jdtMtpHs2HC2kgggWq442Nw+eERn8H35SyhlTFio/o5mLWNyb/3tIXGerZo5uUL1cOqtTw/8knn0n/gYOUXdoyNxW4SYrcdqtkzJBREuOcGpa3cNFCWfPLr+ofN2YkzqYqHAv/PZiRKvsQNs0ifQUcDdC9B85f4kMcLog/X+1f9r9vNekT1arKDVlv+Ef8b8iSVR57rCrSmfbvDUPqs2HDQClCJk0cLwVw7pS2Y4B+yJAS4d6eDHjjLL72L14SM1I8kBN8jh494pK2P4+R8Dabs52I4/nIXy3sj/rttz8Uxy/ne8cKxAb/laavyZLFS7X9J+GoiII3FdA8izAb2fTV1xS3OrVrSutWLTUzIQzS/xVy8FS9BhpXvvxD0tM7Z0tLCfU/vkHIk83ZPxs3DhpSbCX+nk+Y/Y/nSAU3m2fB8QfKP35w7PhthcxoUw8bt7H/Ca5iexhAJSqp39M/S4d0lpXjB5JJqQgDKV9JYyBpInsh/z9OHixLB3dQLEq92klufbSB/pY4cfQQNocX1r6TNlteqTt0URj+xJP7PKn/+j+CvVm4cwnyhel8QzCEf1D+ww0pcyBnQsX/StK/nv5hs3rtj+aIpX8ZH3QJWf4d/mipK2T8P5f82RkpKgRj5FBEA3yBS8ZEIiz0q4pv8FHZYQuZVTLBHPQjrSaw4Xrz0qB8VUx+F1AkrwT6O3bskgqVsUcK/JtXw/vEyX9XDHZjx08EQBEydMhgLPvcpf6jx45K8RIlff779+0rJUtyz0c4/u926ChTp81AuMjYMSOkUKFbYuG/HwbAg9hsTiwrVaqMt/s6aHojlfHj/977nWTyFPPZjY8GDpRixbhPJ5y+11KmwNjt36c3Z6RGaPtPmTRBePAkpcE45o6Sdu92lOnTuawR7b+xZtLEbn/ziZijmBG6BSebD0dtQqXRdzHlj28pllGDNFqqVDY4ng99bhT/BsuAxH/KpIl6GGuQf0Sg6hEwgurLmjW/IioCS5xz9agL5lnz66/YrN5AOa3wyCPStWsnpDCUg/SXLlsqTV5+DTFR8lTtOtKq9Zsqf1p8oP+tw4Gc1WtiRgopGzd6Gp+IeVXpK5JaoFdqbPz/bftfyP4/vTXOkdJPxERLjd7mZHOvpsRz/eLPZfZ7TZT/VBlulPojl2LpLamBF/yvnjoEG8U7KI5lcFDnLZX45mJs+V8+pJusGMc9bXgbtv2nkrcEN4vjJxCWsfs/klPDkyRPrQZSkD7xo/ydOX5IBlc1H4JOe2M+qQ+DKz79N7haAXwi5qhkLnAHZqTQB7RAr9SEhb/KBypILuOSP49/p//d+KeCTDG+Rsf/c/EPQwoHcrKn+/2cfgbhT81lEwX40NXCHZ+ZzTh0RWh3bqzUlIFI7aYMxw50vhHGQUDTaFKb0GZTmgmUfnBpLxeWcqZPmxIn/6+93ly+/nqhgjMLG4xz4JV47nNYikM4mzRpqvzXr1cbr7PjLS4z1WeAJBRI16BxY1m1epX6x3JGqhAUuEFM77wEN0mbYxI6nBf+w7Gs+MGHvVFCFJaT3sMbfHwrDOD/C/y9GTdWdwpmpHgSOtsz2P7t2mFpTzfMc0ZqtmTMmDne9qchpXukdLM5lvYuYfvvw3ENNKToFEdgcj70uXw7Gsu3hO3jwQPlvnvvCeNfOwsiuWzIM7/Y/qtW/aBtSvnfu3cP3hYEXbT/HXfcIcOHDSGEGh+kP236DGkPo5TuzTde1xPL9QEX23P0kYbUkzX51h4NqQbSjJ+IYeXgzrf/HcI+vUMHj5h8aIOkSZNJpowZvWKUninRXIP0WZtg+wcrdy760/GtPRpSdPrWXqF7w/EHPpObPyE71nyvaTibdBtmk+hIf8OSOTKnI1+KiJZ7nm4u99WDocmYQOVIf1631+SPr7ARHfqn1oBZMHJuM3yi/FGNS8uBrRs034sz1kviZMlMHaiz4Hjdv+0vGdWopBab9/6HpXLHoUESSBHif3C1gnKan4jhHiluNmccy7rC9R8hDboAxAgO8R8X/o5/1/5Xs/wH9kgFuwW7Pjf3cdEKk9JBA4laxfYojndG15hALyq8JLOsYEqiLkGHo2pBRlIJufBcCZG+Lu1VwoyUrfas6VMle84cYCHE/7Hjx+W+4ph1soz98O1yvIl0nSI5e+48adO6jfLfpk1rqV2zeoh9LTRCz36q/Gg1PBGlSMxIDddzoXwD1YJMQ4onmxP/yjFmUsKRDMd/yeJF8krT5lp6SRy4aM6XYjXCc50L/z5c2sNba2z/SZNoSJkZKVs1Lal9YI/UfBhSWbC0x990cbV/+QqVdMN9lixZZN4Xs5Hq0skfcTR7pHhuF2ekaLT8M/2RI0dLr14fKv51sDepdas3tc2JoockZ6K4LMe25B6qaTC8Pf7Pno3GTOU9SG1c6LBMPofov9KUe7GWAmscTNqzm5QrV9aXv2D/27Ztm1SuUlVpP/ZYNenQvq0WzF7GZaXz6X+vv9FSvvrqa83HOvOtvUED+lzU/s+39sweKXwiBieWm2/thfin/tmyaplMb8nZtmhJni6jNBj5P/N2H4DeuXa1TOS3+BDH08frDllo6qtcEMkIOXXquAytcbucxBIht7A3GrdSkqfPoigz2edtG8jGbxfAFyEV230s+R6ojFTh+m/1JJxVhaVBJMG3/hpJqZffU/mPS/8NfeoeObpnBz4Fk1UajfnhvPHXwrXe4fw7/YtWVKDR4J6SYWvhMS78EazJCOW/kf9grpjt7+hb4B3+cepfNaTUqAFARnggevTbmSMKpRnSdRiEUjACrBsMGIlY/rdz7VYWPbQZB7+ehcBSTFLmCrorhf4OvLVXnnuklKdoqVOLe1tahPE/fuJEfO6jO9iLkkfwqnr3rti7ZPnn51t0gzFigwdVevyfwdEJb73VVubhZG3vDI4xmJEqVKgwBoBw/PfhxOUy/EQMwOenTTp3wkyKtgOR9ZCOjf+p06flCbzdtXnTZiaU/n17ywMPcLmR2c2bMV77nz59SgfxUqVKSRIeImhrwc3mnw0fpvQmTxwn+fPli9X+eoTDDCxPAitusuap3F6tSDfoGj/7gqxY8aPS53lMOXJku2TypzN7umkfS6Q4WLULDkD1+DeYkE2atOH4b9m2Wao8+jjYIMYi87EPLDNPDSeTuPD0+NZt3pK5czFAo/1fbvKivPDcM0zqu3c7vIclXByJgECdRcKRBVT8Hv21+NZfjVp1lH5qfLNvDt7gS50G54+xEG6w08LM/fSZM1L0nmJKP3v27DJj2mQsgaHN/kX/e+2NN3AO2jeWPgypEsVxsrk54iEm/zHpWwHy+TeVY90AyDn6vx5/sIL7kiLw6ZcpOEjzHp//IP6TXsXbj3/8pCw/+EoXKVINby+i+Cj0mVGNSsmhnVv0ucr7wyX3feUAEMEx9H/+fIQeqkngs91eTB7vgWX3gPt9wRRZ0L0ZUkfJjbfci/jxOGYqic/SiSOHZOLLj8jBHVu01Cd7TpEbb8fMGUkoDdy8yoLdqS1qyrbVS5XC08OWS5psuZDsytd/Xv+PS/6C/BshCOF/rvZXBCEjBr5w/eNBGlf/u1Dy5+hTNB3+/1X+QjNSUABq4Wv3B7Do+PwlZLWFvfOZjr9XMbhQT3F89Ryeg7+lOEAgAI4eJCQBjEd61pGJYKRxVwB9GlLcbB7kv16DevLkE49J0iRJcLjiYnxHr7uaI4Rl3BgcdlmooKYn/0ePHsEeqdI+/zWqP6HGVsGCBYXfThs08CPdCK6gqSXLGakRUliX9nwwtby9+/bLQ5yRAiGztNdRYT4f/L/9zr4JhpLo6uNbfNynkx0fID6OGbUtm7fK999/r0tXR/H5kwXz52KJJz1Smvbvg71dQ3AgJ9t/0mRvaQ/RePbov4sZqWnT8dYesiyYi0+T4APK8bW/LhXyOAXkz4mZm0YNG+KzNFlw0npSLbRQ4UKSPBn9hn4Q//8qf94eKRatBun7wBEP5yP/Hd6FITRjOtKLfjS63TvvSKGCBWQ3DvkcNWq0foKH5aaEEfQFjKA016cJk/8tW7ZIlao0xuCQ7ul69eQxvACQBh89XoWPJrfv+B5k5qj2nldeelGef+5ZkxYhcfW/2jjZ/PffflP5KwUjqEqVKpIR39ajLHJW9LbbcNTFOfofD5I1M1KoDOSveAnOSPX1aV4M/P0ZKZCsgZPNs+BE8rjw37DsC5nFQzURmxxv1zUY9Z3KB9vf/xaflb8HX+8pue4qKWfwo2HD0jmybEgnLZOZn+gxWbLddq/iZxnTAzdHPQNjbPtmDcpZ9EEsEb4uaW7MLfs2r5PFA9vi8zN8+SMC51jREOMBofHrvyVDusgqbICn/kubI6/cVfNFSZMll0Rel1j7SJYCRSRR0hQeeXNH3Zz+VXiAx/n1v2tt/LkY/c8XQid//6n/wZCy39qDaojG+Sw8R4iKlz8koQcwWNKjGkoNKx1gGAMjCzE6c8Aa8Im/2ekYzotJixj4GecpCo03CZQQB19SS+j0t+MTMRUrVFGMUqZOKcfwppkxFmPz/zQOsOTnWjQmwP/4ifhAbWfMUgX4J+9qgAD/9OnSSdE775D5+qkOkfGjR0lhHC/A5GaKn4NoNPZI4Rtx2H9D+pWxz4kzKf8Gfy7N9eHnTti+AfosMGb7m8+bZPTp9+7TF2/tjWCVcJYWDKmb8sIf3v58a28GZqTIGfdIZcicOd72P3BgP3h4VA4fO4GqxKbfAwdRli9fzqdP/i+U/O3Dt/bK4BR24l8Rhkfn9zrE4l9BjoE/6e/CywfPvdBENm3eFIt/QKNlkv8umC2sWLlinPwPGzYSnwXCSwugH4X2j4v/228vIv379cFsVBrbp+Lmf/l338nzL7yEsoxjmSp/eKRs8O3CjP6eJ6TSDsmWM/2v2Zut5Ksvv/L5L4ZvCw7u31/rxEKD8neh8J+Ob+1t+XGh1uHJPtMlCz5KHFP+iAlPOh/1XBk5uGWDcvVg065S5NH6qn+iok7LnPdelA3L5irjQf79BToE3o4luZJckvNSBfjfunKxzOzwnO5tikk/2k7Pc1nxsS5jJUNe9kfiBkysYuOT1/9OHtyLA0BLYIP6YYRxNhP4I7Gn/yq+85H51l6APkoCvk7/uvEntv6LT//EJ38q3ypvtv/Db8VUe7rGU3qd/FGpAQmj//5T/zt+8hRXkVAYgOWobFBWVWOeTQBJqc/3mCT+lRViEV5TaVnMwQy8wY9Tl00pthDcOHZcKfT1EzEwpAjEk088jg3G90oHbE4250GF+H8LZ/3UqlED6WLzHwVmp02fLj2xv0Y/TBvgX7/X1uV9mT1njgzA7BTxHzsWhhRmpHzYrefQoUN6gjqh9TZJ/1v81+Lsofc6dZbVP/0MllDXGO1f7L57pRyOVqhW9VFJjO/wkRtWpDcMMH5rj26yt9k8Rvu//35nmTgZH+NFhoVfL5C016cDHvG3/5HDh+XzmbNlwuTJsmHDBi3bkz+erv0w6uHRNx6TxL/GoO/l1QozUTzydwjLNg+UKosiIzAjVRFLpB39IkNlmFLios8T7Lt266FvKMbEPy+WPLugvJtvxqxkPPQp/8vwKR7uKduFGc8w3tAejRs3lJdfaiKJcDRGXPT9ylr+t2zdilnCyVqfffgMUJD/BfPteV6eNMXofy3wmZp5C7hXyLjSJUvi9PYP9SGm/Hlp/Pv/E//pb+Fkcy7t4V/1D+0nYrxCfR1iuFi7AB8W7oYfJwCCJ5PzhHLfQbRWTf0U+5jeRRAS+Hmj9biCMs26SYGyOMJDUbTcxOD/0PZNMr9HM39je6gMkdzYYP5Q8x6S/PqM4W3kVSAG/ycPH9SZsl9mjZB9m9aGtb//0eIY9A09r0DcfR4M/+fT/lez/nX8Uybwp0AE5ITeGPIXkh1mMPHn0r9x6f9QGQGyjn6c+OuMlMJkOy3byEBvfIobvF6fNr+qTBzBZ8cNYQufjiZejDahEtb8NmGIBgMwkrCEK4A+DamKWNrjr3wu57Vv+46cxV6Y9Rv+kt27d0kWzLrkyZsHHzDmoGdwUQQ8/AL8Hz9xQjZu3Cj79x+Q5ClSyM04TypZ8uTaR5jMtJbF1suP+8XA/yS+V7YJS4tbtm6TZEmTYhkuk2TNmlVS47tyWuWLTP9KaX+Kdnz4cxmJ7blnzx5Jliy55Mub1yzl2aY8H/nnKevr169XzG/IcoPuFYvEKdvapdAQ56KPqsHZRFSq/yB/RsZ4vXL63/nwzx5zeMc2Obh9g0QkSixpsQE9VcYbEApMyC7b0CBlr7H5P4k37mj8nDxyUDe3p8+ZXxIlQd88R/s7/AGnkz/TSa/h/nc1j//n7P/+J2J87QIPtb7qFxuIRxYC+dC+wi5j1BF+BiLCf6MBKopvCDGZumB6z887skVjgTsSGxx8c8OLZ+4ESp9LexUe8WaknpB2bdtcU/xf6+3v+EffpTGiznbka6j/u/ZHw7v2d/Lv+j8QCNd//mZz/Q0LA4bKgknozIZb+4vNBJlIGlZ4pr1jEpvfv7xqORrJBIiG36QzmfQNASViabEMuCuB/o4dMKR4ICfqXB1Le23fefua4t82lGlXPFzq9l+6bJl8/OmQeOkzgnLE/6wbZyBiyl/P7j0kE06RZ6QVQ8sWpBeZnPwrfAYTxcP1fxU4RQQXq9v0Rt1FDy6QHL1ezfqPnDr+gQH1Cm+u/Z382/5vDCmOHvoKBHuKcb6M8FHXM5CGmTCbpHf6mSjggkHGr2pFk3nPXiZ99ohcIfR3BGeknnxc2tGQCrirnf/L3f7TcMBn+7YdbOcNAG+9QfxNUGz5mzl9suTMmTNcEV4h8ne58Xf0IVXXsP5z7e/a38k/ZIADTYzBJjAjZUwcE29nlpDec8aWMrFhZWAQisAmYuZQp8YRB7BQmG8vIYFNFTYbwHxemeaeMOlv38XjDyprXZ/AHql22CNFRq4V/r3jMLy2Mu196fhfvGy5DPnsMysrVqpi4O/9SjSLxkbagvLXrXMnPaqAthNl2nMeT+aeMOXvcuPv6Bvp8GTlUsu/w9/hz1HayZ83HYMeGEP/m1mbS29/wJA6iRUNvKKL1uG4ws7KJT06Nhiv+iOMSyEINmEmrWlQDqRIZvNoFnshOzzkzsul50eRcSb3E7LcK4P+/gMH5cMP+HkVkTvvvFMex4d8dci9Rvi/1tvf8e/15Guz/7v2d+1PVU/H8cuMY9fO+OfkP375jzh+8rRaSFzj12R6s36VGuPnm+vmFxFPRkEE/hNYOk+gguIViLAJTCpm0V0X8MB+ggFnCnL0Dc6mGayfkNl2cfhTXgiIkz/X/yAHRm2wgzj9AwxC8xTsI9QfcJ5X7+aBMU7/AiEA4cYfN/5eKPsDM1IwpLyOx75nO11oYY49EuFIFYVpK84x6X/OLDEtHtiJI7m8R8k0QWwhZEBazmQh3saYeITxTT/EwjHG+PRJH4MLgwx19B3+Tv5c/3P6x+lfN/5wuNSXtnRQdeNvQrA//D1SvrnjWTwwgvj9K50FgPkebu4Y88lYc0EzyBg9DIFphWtgWY9RFAA1sGAYqYFFA8oQdPSJGbBw+BshcvLn+p/TP07/8te6G390WOBo6TmOl278pWzofw8We7/09kfEseOn1Eoyv/VMU/nmDeuJAY0NxskmtYJRc3hZf52R8pb3+Oy/KM0EsKF4arOJ5+8okw8x1tkwS8zRN3gQHIe/tSed/Ln+5/SP079u/HHjbwK3PyKOnzgF+8iaRmr10KTxBnXfyrEWkYnjUM+Y0IjPBw5+zMdZKPvOlK5HIZQGFRNwORA+ntejS3+4KWVHn+DgP1EyGBuEzbMBKRTHtHzSCwG0zuHv5M/1P6d/nP514w9HCK768COPbvw1Q+XFtD8ijuFbe/6sk47YnEriyIwLDR8M7jyFHBdv+NaZKA7inKWKZLxm4DBOJYbBjPkRb24sBw8aAD//M6+N5c3Rt7N+ionDX2FQwXDy5/qf0z9O/3LAcOMPR1o6f94BY6cbfxOG/WE2m9PQUWOJv+jN4OVbPNpyNH7QaohlUxofrmoR0YDiSp5tZKb3LClvrc9kYIw6k5K/m1giIh19h7+TP+03rv85/WOOn7H6lRpTvUaJOv3rxh8jCVY+MNby2Y2/l9f+iDiKpT02hL/hyRpHDKKZYxxS2B7MZUBjBZsYE+xFIkwLs8JOP6J0hhEDZSQoMaUGICEVhn2ZHWGkYRObGpnMTM9CPRKOvsMfcqJyZCXESFVIRqzE+Pa8kz8oWtf/nP5x+teNP6oczWDqxt8LZ3/ogZw0VBRaXNSeIdg0dBBKw0knjJjC2joarSlg3yDMRmkZXpx3Z7RZ8DMhaqexIHo0r1LWvBqEMIY4+g5/J3+u/zn94/SvG3+4euPG3wRtfxyzM1IU1tBrd2rJ6MXYOmxEY+HQcGKYtYLUZy6MQDqWwwS825s/+YgymCSm0+QM95YCAwlMHCIdfcXU4W/EK0zIVF6c/Ln+Bz1BPeL0j9O/lAM4Iw4UCCx+ufHHjb9WLlQ47MXYGHj4D/aHXdqzmgc3z9DRN+sYHMtsMjMl3iyTzWmrZG+2smpAoUDd94GrEWoItxpcyIkAYxjYUnBz9A2GDn8IB8XCyZ8KhO0higdn6lz/M5IRwkVhMhenf6zMGIXq9K8Zs9z4Y/qMG3+t4WFvaqfQGDHdRfvOvx1/8dbeSa4fhBSQ9bJUvj6JY1zsUMYk7JKYZOT0FdPhFohkAnXeN/UYTSPPU/p+JtJT64/l4M/RN8CF4enwd/Ln+p/TP0EV6/SvG3/c+JsQ7Q/MSJ2GGUNjJpbVY20lz15jAuPMeI+rTpXqThYTYY0r/QXkTy0xyuQwicKfvV9Ljj5wCbc6Hf4qOU7+TLdy/c/TH07/0Lhy+teNP9CNOnpb3eDGXzU1Lof9YT4RYxuAisqYRYEADuc0inCwlxnZcccbQBqk6W28brKC3xpNHP7MYh5L9ZwJ41dionWayqhEU65J4+ibpVCDIzGx+Dr8nfxp98IlgfS/06dOyrG9f2t9+EaK/6MIP7BSps0kiZIm8zq+vbv+T5Sc/nP6341/HNqunvFfPxETAcUcjQPPdPD2lLU1iLwB3bIcUIxM6C3aeYAY84lZuVrHgzb5vT6qzyh/ox8jQI/PWgTSXKP0t27dIit++FH5v+/eYnLDDZlDxsIlwn/lipWyeesmbf8qlStK4usSm8a7RPS5dnyttn9Q/jdv3iYrfvxR2//+e+83shD4hZEQ+9+ONd/K5NefMHpDDX70af1BZUQoWZoMkvWWolK01kuSufDdRm8yXQLu/6dPHJV1C2epzkqf+2bJUvB21XkJEX+nf934YwcMyCj6FcdUHXxN/3Pj76WzP3RGKkxJ4IEKnr+cTCOZK59MhPr4xKZDKjQdLEsal+aL1DTK8CNVy7ApOP3INJqeOb28xs8SGacOD9cK/fETJ0mnzl0V6YH9+8oDJYoT0EvKf4uWrWXu/AWK/7LFCyVlypSXlD7b/Fptf/JNx/tEKwt8GDigr5QoUQyhplf4/UY7hpfLxF7O/rdzzfcyCYZUsP9LBAY39HdW1Xd4LlyxtjzUvIfyynCfJ/jJkZ8cD5ez/+/d8LuMe7Ec6hQtd9d+RYo1bhOqawLD32Do9G9Q/sz+XDf+uPGXesX2kEthf/D4Ayo2dVAU3MiFK7QZZqhUw9EwoqVrjs40G70Q5xlGXm7UWY0pFGSq73m0EC3eFkc9q2n8dBrL9NcWfQ6e73fqqmAMoCH1QIlLjv+bMKTmwZCiW7Z0oaRIAUPKtT/a5NLK/wQaUl26afsP7N8HsvBAgu9/aki99rjKTvrcBeTep5qq8jqDJb/Du7bK719OkkPbNyGePV3kwde6ya0V6ybo/r9nw28y7oWHUNtIGFIvS7FnWjv95/Q/JNiNfzrfxVkS6kY3/qtWIxx0Zo+U8esAaqw4BFj7h4Mqw9TooaHDJ2KJgCj8+ORd43Uayuaz5Zkbc9opWHiNsWU9TGArQq9Hi34NZzJ4rlb6OnjSkIKjIVUSsxDkVd0lwr9Fi5AhtXzJN5IiZapLSl/b2VD02/pS8p9Q6FMWOnfuou2vRnVxzE4mcPnf9vP3MqX541rnXHeXkqpdR4f156gzp2Vet2by58LpaNIIuS5FKnlx6m8wpIwi9ts5AbX/nr/+kLEvlFM+7q7zshRvDEMKdWev1MNB+eT0n9P/EAg3/qFXAwftH9f6+K8zUqoljDbT8ds+68yRKg2YMxphlAhT0rwxZg5/u1HJaCAusZ2ZzyLcCrnmZG5sjTL5Anm11CuE/po1v8lfGzfJ7l07YSpGS4YMGSXbDVnljjtvlyRJkvhAePwfPnRQ9vy91+d/+tRpMmL0GB0w32nTRu66606No3DSkzhJYsmVIyeENTb+pzFI/QL6W7dslb///ltxzJsnj+TNk1uyZcsmiRIlikWf+O/e9bccPnJE6RD/Dp06yarVq5XeqOHDJHnKFNo5mIBten3q1JI5c+Z42//M2bOyZfNmWbd+vWz8a5NkzpRJbiqQX27Kn9/HwOP/YrT/7t1/y5HDh7WuObJnV5oHDh6U5cv/J9u2bZPrrrtOMbyv2H2SPFlSHRIpY/zz5O8kZlDWr98g69b+KXv27QN+WSVfnrySO29uuS5R4jjxD8o/NerGLZvlz3XrZevWbXL99Wkkf/58ki9fPkmZAnjiH+UjyP/BQ4dk7+49vvxPhSyMHDlGn9u+DVm4E7IA/M2gHSGJEyeWnLly6DMbNkif/e8sdq9u3rTFhjOFSNYbbpBkyZLFST/IPxIYQOzNk78g/bj6/441P2Bp73HNnvOe0lK1EwypGO7Ewb0ypMbt9qdUtDQc9Z2kypwtDH+PfnTUWdm/7S/Zv+kPObh9kyRNnU4y5C4oGfGXODkMfIBBPOhi8u/pnyO7t8te5N+/Zb22G/PzL1m6TCATW/+cOXNKDu7Y6PP/94ZfZX7XV/S5UIU6cueTz4EuACJdEsf/dNnzSoT2L5Z47eo/AOL4d+1/zY7/Qfm3M1LsEEbJUFME9CrEhDGRCAvNKvENPqNbMN0JD5f+jKbBTXN7U1U2XG9eGpSveXwVpHmuJPq//7pWunbvLitXrYyX/3fefktqVK9ucLH8T5s2Xdp36HDe/OfKlVNmTJschj8NqHZtO8iixYvlyNEjcdLPnj2rfPhhLymQv0AYfbbR223byqxZc9Bm54d/ndo1pFWr1nG2/y9rfpFWbd6SLVu2Gzq4eu2fPUd26dGtmxQudLMJ8mXkwrZ/z14fyshRY5X+9KmTZc2aX+Wtd94BTYDu0xTd+zVuzEjJmRPGSED+Vvy4Qt5s0Ub27tsLHo2MepJK/D/o2V3y5b8pTv55LObOXbukRYu35Keff1LuPf5JPyWWSd/v+K6UfahMoC6G/6lTKQvva72Z55/kP3eu7JCFqbb42P3vj7V/SM1aT/n4k/5IGMa3FbnV5PGxuHD4b8dm8ynNsUcKZefkjFQXGlJEL7z/D3vqHjmyZ6fyWq3rGE0bU/4O7d4q8zq9JDt/W2FbAcnVRcOISiPlW34geUtUjJf/MyePyeJB7WXNbMpCOH0WeG+9N6ToU69KJAygYPsf2PqnjGr84D/ir/qPGMJqbTR6haTKeAPyXJv671rX/47/2PqHY4txsfu/6dAMZ5oLp38SUv+DIYUDOcmpzyf9DMKfKl8TRZAIQ9DxmdmMw1AA5c1zLTRlIFKHCVVC8Fkdp2k0qU1os4V+hiM8AdLfuXOXPFG9hhw9ekzxYLWzZMHbdnjaidkebzBu+PTT8vrrTRUaj/8v5s+Xli3f4hgH5yn7AFAskTwzHvjnypkLg+cUH2OmPHb8uBQrXpIF+PRTYhYpadKkMAb2+/QZ2fvDnlKmzIMIQ9tY/N97r4tMmjwZuf+ZPutSp3ZNadOqpU9PPbhwKep9bJRXVmxsuvQZZD/qoDWzbPXv21tKleTeL6TEDsgL3f49e34gozirBx47vf+evP1O+zD6rJrH/8hRw6TILUUs/tHy+eez1bA0gDNltKRPl0H27d+n+Hvy9/HggXL/vfcS0jD3x7p10qjRMyoLzAsVIRmAwT4YZZrYgtPs1ZekcaPGYfx/MXeuGqEABmV6KMIfaH+PPokao3pKGP1gThpSNWrVRUksi+UIZriGwpACv3i4GPhvx2bzKZiRostZtJQ82mVMnP3/42oF5dSxo8p/9d4z5YZCd5o6alWjZQ82eE9GOaePH/b5T452OL4fOAZcMSyzcQO45zz+T584JpNfqyp///W7T/+6ZKnk9Ak782r5z3nvg1LlvZESGalz6Ao793INr3e/LZK4oVKsV0D/efR4J83GY1dIygxZ1M+kxl0b+s/jlncPf8e/QeNaGP9MW3stHtJclIZrmf/AHqlgt6Dq5eY6KhzvG0Wq9QxyTAoX0jUmzqYI62BU7FzWMCVRl5oBh4qdVELuyqD/8adDZMCAQVrtCg8/LK1at5D0GDwpSKdPnZKffvlFxo4br0tbLzz/HHgM5z/q7GmkBOfgfzIMmi5du2tZ/fp8IMW5L0adwT8yIhGW6OAPGKjHTxyX+4uVlNKlSkntmtWl8C2FJW3adMgVLSdgZI0eO0769BsACoJ6pZcv532BZYhIH3+JPitnceSAh3+r1m/Jgi+/0vyLvvkaMzcp4Df02f4cc7iM4RvIKHjL5i1SpSqWdNBkHHdefqmJ1K1bR1JhGev4iRMydvwE6d27L8oxdZj1+XRJmTw5TbcL3v7de9GQMjNSnvxVe6yqPPboo5h9yilHjxyVH1evkn59+8uHvXvJHbfdqvgfO3ZCyj1c3hpBAoOxhrzUpImkSZNG/t6zBxu/u8rXXy1EjaOwVFlAJowdAyxAwSOCmGZNm8s3ixfBF6EzP107vy/ZsmeTI8eOyTi0Q7/+AzWOEv/VvNmSIVPmMP7PYnbRczRuu3TtoY/9+vSGsXwfSg31P7ZgIrRjkL6HPwNpSNXCjBR7kdeTRo4YKrcXue2i9b+dv+CtPeyRIn0aUtU6jw6jT2a2rVoqU1rW8uXv+ck/S9I06Xz5Y5pZ7RrJX/+bB18EjKy7pHzrAZI6a3Y5c/yYrJ42RJYP6+7LX6NxMGLSZ2E2X/5WTRkiSz5qr9AkS5tRKrYbLFkLF9XjVzZ//7XMbN/Ip1+lw6eSp3iFMPpRZ88ANIPa3o2/y/iXEI9/d9d6Re5v8GZY/yORSCz3Bumz3kTdEw0Pf02D0KtJ//lMgrmg/Dn+Xftfy/KvhpQOqkDBGE8Y+un3Jiysiog0w6Be2YHMBhOqCjyo5tACjE7xexvjEK7vYoYEjbmC7kqi3+SVV2XpkuXK/xezDRIRigAAQABJREFUZkrWrDf8v/nXzeY8/gAwDRzQD6+83w/kzo3/GezH2b1rt2S9EYMJcY8D/zZvtZXZc2YrxEM+/liK3lsUyeLGX48/mIfjD9DoS5d8Lamw2fyf2p8GxMIlC5U09/NUfxJnCWkmkERz8/LpkCEwJAYgTYS83ryZNHy6vkZplbVmoct/af8ePXvJqFGYkbL033qrldSqWROFkxL+rPzRyLwO+4wS4Y+Os1g9MJtFV6ZMGen9QU+k5o8Hg/+Z02el3tMN5NffsDkaYX0/6IF0ZX35//WPX6VOnfrIzVms9DJ71gzswUru88/wnr16YVYIRh7kvz4MzRZvNEdobEf+J07iDF9npa/HHxQr7rGk9P+p/3F2rGZNLO1Z/GkA0pC67dbbLlr/2wFDavLrjynMOe950OyRsvS51Lbpuy/lm77vyPFDnKGLlturNZKSL78XBsDudT/BcKkEXiMkWdr00mDEckmSPEWY/ln8UQf5acrHisPtTzwnJV94V/sfwSSdITXuxOwTZrzwXGvQF5IpfxHQINL4A7Y00ma1b6x0M+YthDRzQY9GqnFB+dvHzeY4/oDnmxWtA0MKxx+w/f8Jf7+xfPxD9K8m/ccfQ9ey/nf8u/aPS/5DM1JQAEzA7k9tzIP1OBPihZi7agkNU+XC9CF9pElCcxl4ZGGahR7+msZdDTT+3vPKQhQdHq8E+k2bwYhYtFDr36cnBtdyZUz9eQV7/4b/CRMn4hypbpp/AM4OKokZKSLFUv4L/lNnfC7vtu+g+Hfs2F6qVa2CMuPGn4aUHn8A/L1zpM5Fn7M15R5+RPnnhuwpU8brIKjVDvB/+uRJuee+EixKSuJYh/79MEN1Edq/2wcfyGhd2hPsCbtJJowbBVYTkdtzyt+LLzeVZctgEMN9MniQ3HvfPbHkb9rMz6Vd+3e1TWpWf0K47824aBkydIT069NP5b/Ji8/Liy88H6v9N23aLI8+BiMTHSF7jhwy6/Np8cq/eWvPnCk2oH8/yALe4PwX/W8jXnp4qi6N1dBc8scffSS33FoYVaZUxd3+liFtp3/b/3bBkJr4htlsznKSX59R6Z9C2589jmU1kkX7k/6tVZ6WEs+9I9cl4zllof7/4/iBsmxIZ013b73mcm/95popKP/cgD660QMoJUKuz5pTnh6+VP18WWDH79jw/hqMObishe+R6h9OUXM42P6cBR5Rv4Qc2btd8W809jtJmfFGzeNfUE/yvwfLg2NfeBhVjpK767yKc6Ra2yQ+M3g29deXFUjIc0gSxD/I/8XA39FHSzj8PemjWDr5AwjeWtql7H8wpOy39qgc8CuNm0BVCUGxUHVE8hc9a8QbFLsqOG0x+BHPmStqID7RS8dwXkxaxMDvWfIsU+NNAhYKH0OvDPr9sWz2CZb3yFQGLJ1x+a44lmFy4u26f8v/hEkwpDrRkIoWnh1UAmcHnS/+UWgTvpm2/s8Nsmv3LrwNuEdO4w06ur/xJttPP/+suLZp01pq16oRL/4tsNF6HvZusQ2WLF2kG6TP1f6rV66Spxs2Vv7ZjhUrVGBDQw4owNYZoZB58+ah1AjMcqXQsjlQXej2794dS3tjRoNKhLR5q7XUrFEdPjhcziV/lR99TLZu26ryt/KH/+myWUz537Z9u1SuVA1tEiXFcVjqoIH9bZnYj4UznyZOmKRdY+hnH8vdd93l8x+k/3CFyjqDSGxWrfgOR7DwxQ2/gkqf2NOofq8LlnnRroP640DOB4xRnZD7ny7t8RwpNiy44pXO8GdCqNSqdRopOe4to8litv83fd+WX2YO19yPwwjKest9ceqfYXXvkUN7d+hE+EtfbMRyM96mBK21X8+QuZ2bKNX7GrbEhvKmhj4ig+2/oFcL+e2LsVrHGn1mYAnxbibw8YdH9R/PkRqP4w+o9u7COVIlGsF4dvqPjen0vxv/bJ9CvyEW6HXX2vgfr/1z/OQpjoEAhT1FPYDHOn0mXIjCn/p8jwaHLjSIWISX0s/LDHDUTDz12MBv7iSHUftKos/jC6o+/ri/t4as0XGT8h23F5HSpUtK2bJlJE3qNGCOiMXP/wQMxJ27dlX+9WRz7pFSkLVIZCVAJoClqA8evrHX84MPhTMevosH/7ex1EXjIj78W7ZuLV9waQ//li3+RlKmSukXGRf96dNnSrt3O4TSeL546Hv8r/juW3x+hiYaubDckL3/2P5cntPN5qA/aGBfGLX2RHAfO9IiSdC18heF1+zvvPs+rUaGjNhHtmCe8h9T/rkceJ/d2M+9T7NnTver/vIrTWEcLtOi+bZg7ly545T/BthkvmrVaqW/YP4syYR9Un4hAf71ZPPg4ax6yj0TaKt7iPlZlXDw8g/4B/n3CwnQ///0/x3YbM5N4nTJr8exF6Uqo55ROHpgg2xducTWPVqSY9/SEz0mSbpc+ZAyvP1ntq0vG7/7WvGvN+QbSZuDaazz21D0mAUeAEogGmKfVCps9qb7ceIgWfZJJ4RHyENv9pRCj9RCKGj4eZEB7tvhH8j3o3tpXIV3Bkn+Uo9qWTHlj3uk9BwppLwbn7Yp9oyZhWQp2hK+BwFBdxnwD5In/9eC/g11hDDutf0d/xRpK6Ax5P9i9P+wFrjG5U9npFSjWOA9NecpPG2WgF4yswomFZUvGy6kW+BTafZiLNRefpswRIMBHFxxv4Lob8FZQb0+7I3NyN9Y/s2MnPIBbrj5/CPseSp4c0EDQDz8hy3t9eNp1iVUWROV+PD/4bsf5Jnn+Qvc0EyXPp1uTM6SKYskT55M8V+3dp3Mx2nlLKfFm82lXr2nDLwMQF2C+LdoyRkpnGwO/JdhRioVPhFzLvpDPxsmvfti7xNS3Yc32e666w5NzzKV/3ja/9lnnpHEWHKLSf+/tn937JEaOdrMSE2aMBYbw29CNc4tf4dx7tQDpcpofXPlMm9Gxid/t91ZVEU6BfbtLF+2yM6qREjtp+rK77/9Ad6jgfUcyZwxU5z8v9L0NVm8ZIkWP2n8WCmA+gXx9/ifMAGzk5jlYv/qj2XeB0pgWVRL1yb1qufTZ5zHpW3WOOkjUDHX7hVH+3v0PQKhuhmfZoHXds8w+uYTMTyQE2+YFsUeqc5YVrXtf/roIVk8uKP8ilkgMpwhD/Ym9Z8jkdijFqIRLeNfriR/r/tZCTQav1JSpceZZV6ltWRT5My3G8im779U+jU/WiCZ8t6s/C8d0klWjOfLFRFSse1Hkq8UlrHjaP+Vkz6WpR911PHkwVc7SZFHG4AKKYXrn726tMdPxIgUxYwU90gpSwjg3ek/omZa8HLLn6N/bY6/CVL+/E/E+NoNHmpN1S820CoR6Ceje3BT7cjFDGgX/40udDBz8KAmMEmokei8vLwjWzQW+COxwG3MsEA8E14h9Pcf2C+/4C29n35aI998842sW/enzz9fV586ZaIkovFAFwf/kyZMwQbjLhrNPVIP6Ft75+b/mWdfkB9+WKEFNmnynDz7TGMcGnkdngm0wX+WvtbfTmlyg3O9uk/FSZ/4v9myVYw9UqnOif+cOXOldZu3ldYzjRtK06YvX9b274FzpEbjHCnK0YypUyRn7pwKNSoY4jnoJ7xnsfG5aFGVvxQpk8uyJYsCaUP4Hz16HEt6OGoC0OZGudOn4/gBK89Nm72BvXLfIF+ETMMSbd68eZRgTPl/qu7TerYVq/AVZr44AxaX/E/AZvNOesp9hAygUV0Ss5NehwNNDuLeI8syFb68/W/HL/ho8RvcA+a9tTfGl3/WkG/DTXi5Io43+I2P8tAbmDGqUDuM/8/bNcRm8PnKzlMffy3pcxVAeWA4hv6Z2LSy7FqLmT2w3HjCj5IiHWekomTVVLyxN6gD/NFSFp+gKVSJR0BYR49tr+VDu8qKsf01omLbTyRvqQpx6p+93Gz+/ENK/+5a+EQMDCmWkRDxVzBQsWtV/zr+L2//d/iH8Pc3m6t1DwVGZe0pIl0P5Ny3p42ohqxy0huVlCY2ljGvWo5N4ysgTUdthJJAQDs+ftopLcZpMch9hdP/3/Ll0uSlV/0BbyJmIApiBoLjApiOxf94DJ6dOxlDamD//lJCNxhbSDULMQrhz1f5i5cqrc1R8CZsrEb5ceE/EG/qfTToY03XskVzqfsUDanY9Il/yxbGkOJ7SUuxtJcCS3vapHHQRxAMxzVSt34DTVOtWlXp8G47pkRTs+0vffv3sMcfkP6MqZMkT+7cPv4IMgMg7jH55/LsRpzIThn/dvlSfeMupvxt2bRJqjyGZVEUxOMm+uKICmUc5XXv3lNGjxmnzx9/NBCb1e+Nk/+y5crL3r37lP6qlViaAs5xyf/EiZPx3UV8Igbgex+w/jf97yyWK3fu2KFtzjLIO0+ZT5o0Sbzy91/733a+tWePP8ihxx+MAgaQAkufddjy40KZ3rqu8p88XUZ5euS3OG0+uT4z3ZIBbXHEwWfIFSnVuo6VbHc9AL9xQf6H1LxDjh/Yo3i/8sUWtCv1hcj6pXNkTsfnQSoaG9Vfl/vrvxFGXw0gpJvfo6n88SUOtwXRWv1mSeaCt2s6dgs6T//twdLeOH4iBq4olvbuf4Y/GmwiBlre9MZgrezlk39H3zTK5dI/Dn+Hv2oPnZGiRtNXQAiKcb6O4CO1DdNQacAI0zv9Af2CJw32gky0qidN5j17mfTZI3IV0e+N84o+GzqMcEj/vn3MYZTwx8U/D4R8qy0MEfDfuXMHbGyupPl48aDRAIv/rt27pXx5pEFh5cuXw8nhXf309JAGP9ny+JM17P6pCGn55us44+mpOOlzIHq343sydeoMbf85n8+QG2+8UcuMiz4LObj/kJTCMQB0PHNq/tw5emo4nw2P9Hn+i9/+/h4p0JyBvUq5cuc6L/qvYslt0SLu4xHp1aMH3kQs44mm5if/o0aO1r1o/Lr8U7VqS2ucGebJ/8hRiMNsGF2d2rWkdasWsfjnJ3zq1quvbZkbM5TTeTK57TSKlQcy2n/WnFny1ts0SkU6v99RKlXGkQD6hMt59L8/1q71z5HysplzpIr4skQzNz76/5/+b44/MHukchYt7Z8jRfqGkmn/idhHtQv7m0i/9Kvv67Kax/8qHGuw5KP3VP5uq9pIStnjETxoWNautatk4itVVAWluzGv1Bu6yCMgu/5YLRNfrcxk+umWukMWIo50yamhf/rUCfmsxh1y6jiOSEADNh63EmdReZ89YkKktvrv0M4tMuJpfvNS5BZ8IqZs8x7nhT+SW5r0ef6LL/+GmrkanoN+R9+YuKH2uJDyr0ISaACHv4duCO9rBf/AjJQBwQiDp4JCUmJ0uYkNCgyVUAQ28RoljfSqAdmBQ2GeUvTuLJW6i2V6zivT3BMu/d9//13yYRnnuiRJTNVj8P9a8xby9ddfg/9oGTpsqNx5+20GEqSOyf+KH36UZ57lr2mRJx6rhiML2lplHDf/PEPqrqKc+cBsQ5ZMMnP6NEmaBN9SC+A/DoeBdunWQ+mzFO6RChlSRsBZcQ//jz/5VPoP/AjzAYKTwTtKFQzg5tcdOQi5YPt36PCeTJmGV/lRfuOGDXEw5UvwsgQ4ZdK0P18iWLHiR8mOb+DdcEP4SdAefZPJ1EuzahFx8+8dB+DJCvP26IGlvTGjQDZCzKbvXCjsn+Xv89k41dwaLrffcbsMwREIbFNP/g4fPoJ9UPX023mk89mneDPvbrzppZRENm8xh5J68j8PBiW/SejxHx11BieXvyNz583XoFdwaOlzzz2j5bO8mPz/AJwoC6T/GA4U7dC+neZjWrog/kH+Pfq/Y1+cfiLGgsjWGz5iGA7kDBpSBmeWF5O+V6bHPxFkUZ6Li75uNn/tCZW/HLpHarTPf7D/czP55+8YgzIFNp43GIW3JJNCbkHg4PaNMqJhaBaq8ZgfJEXGLKBu6PONybmdX5Y/v5mp7Xpfwzfl3qea+XWLOnNWRj/zAL6Xt0WrWqXjcMl9fznkDumfn2YMl0X939Y82W8vJo/3mBgv/9E4JHVApdwoK0LS4KiFep8t0gM44+JfCQLIYP9TIuchfxcCf0cfCDj8nfwFxr/L1f9gSJ3EigYm1qFBqTi9Iw7YSalUedVJKGgSzmCYMKsvEatDHgMZGcMZZehNYSGvlsFQk98kZ7lXDv2aNevItu3bcPhhDT0fKQfOB0qGQWHVqlXy1dffyFR8T48uBWZrli78BkqY3BrUYvK/Dx/ILfPQwz7/tTGzwSWitDhdmy5durT4CHHeMPwbP/Oc/PjjSm2r4vffJ48/8QQ2fd+DIw92y/QZM/DduTGal63BF+3ffPM17JHC0gpcTPoMW4w3AF9+9XVtf9b5mWeflYI35ZcUOImctSZ/GbBEZPIaTljvylUfk2P2MzklsTG6UcP6+IxJLv1Y8lZ8LHjNmjUybtxE2bhpo/TCeVvlHiobJ31Kwn9p/+54a2+0PdlcDSk7I0XeziV/nLmr+tgTMJS2Kv0HShSTF3EeVDYYfX9t+Eu6wRhdh0MuWcpdRe+CITUY6Qz/LJv4GoNyutLJkiUjvoHYVm4uWFD24Kyt4ZixmjML3zRE66XEBv4vZn+OjxmnVlpxyf+B/fvkwYfK+/2Ps1z3o12vvz6tmgTp0qeVPLnzaJt49E054BKeP/7wvrXHWFO/0TCkihS5BU9MiesF7n/eZnPinLNoSWw2N7KnxEgP//RQDIA1rkl5nNH0KyrGWanOmJV62iaLli97tZTf55qjCVJmulH3OmXKd4sc27dbVk3+RH77Ep9JQt0T47MvjUZ/K0lTXa/4e/yv/WoKPjT8qkdWyr7eQ7LfVVKiz5yR9Utm4ZyqLiYOZTzRc4pkK3Kf5jeBseVvAk425wZ4lp/rnrJS4OEn9ZMwBDoR9iPy9HW2v0ef+KtwmAL9q8+/przw+Dv6lHMj/w5/SmS4c/Jn9c8l6H8Rx0+eVgsJF7QCuqberJ891YbzzXEzI8CTYRDBpLbtmIwC7aU1dzyGBZkHZuHcBfNCp2IAxwUPVwr9GjVr6abyWPxbyAzTUfjO3Qc4Cbu0gUJZj5v/TzAjNBAzQnHxnwsbnPnRYpbp4f/7779J7Tr1YuMfoF+j+uM4KRsbo0FSN5vjrT0F21IJ4s9a0Thb8eOPSgdJkM8Whkh+OqV1q1Y+fS6NsP2XLFsmPMyT3xxUzgL0/fUvjcDSWa/uUq4sNvDGQf+/tn+PHjCkxoxReZoOrHLnzq10cFH+DT8MMpVhNT3+//f9d/LGG2/iMzL8bqJlQG/Wjyzp8VbkYOyBKpgPe910xAzJ/44du+T5F5vIZhxDoX2BJBQN++PBkMSy7XtSuSKXbQ0Vj35M+R/8MWVhcBj+zMMyc+GcshnTuTQYoh/sf2ZGqk4Y/ZEjebJ5EYtDbP5j0teEMfj36HvyF6Sve6Ts8Qc57y4d+GgxC7FVsVCuw4zS3E5NlJuUnJXCXqlIfB+S7X9k9zaZ2qqWHNj6lyVnMyme1g9IH27TXwqWrQY0EIH/Hv/R2NQ++70X5K9lcy3RcPyZlu1/W7WGerJ6fPh7/G9dtVimtQKWMeirxQr8dWkwg10a9NlUIv4TPCa/rX5c8vdf8ff4N5QdfU9Wzd3hb+Tew8HIB8Xxn+Q/qP89TOPq/07+ACYckQ0df6BBCFC8gxPjJoJjaxSmrXTCHX7OImhaHRw4o4SpdGoGOm0t+PWAKA4eqvpMHK8ojBtumcxUw/j0KYHTH4NBexZmGn755Tfwb+pN/jz+ixa9W15+8UWdxThf/letXi1j8W02vibPWR5iwoUJ7qvhR4sVF5Dy8Ody2bsdOsnmzZs0zqOfLVt2adO6lc6QPfP8C4p/ixbcIxV4k8kWFsT/DJYzvv5moYxBHdZiZoNvq3kLI/xocWt8tDiu9j9wYJ9079EL+3vm+vzbCtFClgL58kv5R8phqeoxyZQxg0bp5QK2f298l+6zYaOU/rQpUyQ3Z6TYLJxiPQ/524qjLN7GPjU96wnZKH4e/g9ig/m77d/RbxbGxT/l/xg+xtulW0+ZOXN6LPnPmzuPdOncEcdg8FX9gDsH/6tW/4Tv9I3HJ3gWW1kw+XLju4HTZkxFOWCO/2P0v/V/rpUna9CQgrP8jx01QgoXvhmPF6f/7fz1Oz1HiuRy34OPFneyM1KWfhB/GjujGpeSQzs2A95oKd+ynxR4CG/8KTL4TiX2Ly3CxvPf5k3QMKM14IXjm3zlW/aVDAXMB5jj4j9SzsrKyXiDb3AHn3+PfuLkqTHL1VUKlDEnoJ+P/jmwY5OsmTVK63MMm9y5hcrrf43GrJAU6W+4JvVffPLn6T9tsDja/3zlX8cUyLanf7Q8XOLrf2xsT/9dC+OPwx/Cxf8x9N/llj9/j5Rv7ngSj0FI34yhZMP0ZDD7h+eY3swmhIebeBVtpLC/DBGoxRIAHeDwjJ7BfzZG/arurxD6Bw8dlO04+XovDujkl33TpEktN2TJYvbJgBuYVrhePP7PYGDaBiOAhkAynB+VL29efLw4rW2ei08/2P5cJiMW/EzJGSynZM6cSbJkySoZM6bz2zeht/+Ro0dk/Ya/hGdM8cT63Fim5PKmzkKdh/yfPn1a+eeyXrJkSXEcQn4sy+EoCSP5V538B9s/qBeMAP7/5Y+fc9m/Zb0c3bNTkiRLIWlzF5BkqdIqfkE68dHnnqrD2DB+cPsm/Vh32uz5cHgnjR5I4FWkf+Lj/7/ib8VVf4Q4/Q+zxY1/6Dfsz+HjvJO/cPsn4tjxU4oSjRiCQ8erDnzUPTCoaDDBADRWIGI9UK2M+Xl0ypBPTAAbgvuP0QYawLIZHHKGHn9pMMLRd/g7+XP9j/rB6R+jQqkXnf51448bfxO+/RFx/MQpzJLRxIH6UquHJo03qPtWTlgc06rK9zUe1Z9nDHEWxhy0qUtfUSiNBhUTcDqOeUmHM1O4KWVHn+DgP1G6evEfMmSYbm7ndwIjbPsbsTBy8U/8Z8bnVXp2N98mJFIqVBQg60wpTv5c/3P6R3+46noYeoXTv6oq3PhjNKQbfzF6XGD7I+IYvrXn/+pRs4ZTSRyZaOgAeAx6PIWcn9m25pPZG8AgJIlkvGZgI3EQM9YjJZfFaJwaCAxACP8zr43lzdG3v7oUk6sX/3bvdpTpM2eG2p9yQSXvzXr+A//8HM7XX+K7eEawnPwBB9f/nP5x+pcKwY0/bvy9fPaH2WyuAxqtG84XGePJt3ggohzf9DRmxCKVDnfaedUiogBzJY8xJk5HOD5jkAxk0HheTEovGrkdfY6IVz3+nw75TJYuW27bXyUN0hBf+5soyosnf9envV4+7MUzsihDuDr5U5khHq7/Of1ju4rKBHuI07+qKMyg5A06NohYmeEpPv1j9QsTqpe9zI1/hNEgYfHRVSanfyKOYmmPwOjPfBo0dnBikHZGvSOFRZDLgOZXsEbYYC8SYVqYBZt+W2QUDIVINdSYxqTnbJd9mRthpGETmxqZzLhqaR4JR9/hDzmhONAZsfCEAwFO/hQX7Xqu/zn9g65Bdev0rxt/3PjLiSKOEWa8uJD2hx7IydFHi8ZF7RmrihlKw4n2DRf2OEjR77kwZY3AQJSXRMc1M+FmgtROYyg9WgBzOfqKAiEhxgoVZ/oc/k7+XP9z+sfpXzf+cHBw42+CtT/4rT3fnvGW4nwzyLN1QiM8EzO9jQlPaayksCgaBf7iH6wENQYDueh19G0Hcfh7VqQvIUY2nPx5Frbrf0ZfhCkZlRYqJsiJUTi+HDn9Q6TYi7D46/SvG3/YIWI4N/7+9/HXLu0plKqbPENHd/YzWDuhuZo2MDMl3iyTzRneNLaxtAOjQLMbxizHaHpVePAhnRkYbCm4OfoGSoc/hINi4eRPBcL2EMWDM5Wu/xnJCOGiMJmL0z9WZoxCdfrXjFkUC5UXN/6YgdeNvxfM/sBbeye5fhRSQNZLkePxBXo4tInFlV0Sk6ycX1OJtJLpxxuPHraJMim4nGTxlL6fifR09oXl2NZkVmZw9IkEnMPfyZ/rf07/BFSi079u/HHjb4K0PzAjddqYPLGtHmsr6bwSujATGGfsHVx1qlh38pgIa1zpLyB/aolRJodJFP7s/VrSJOFWl6OvyDn8jVg5+fP6j+t/NC6c/nH6F7pRRy+rG9z4o0OtG3/NJITqSxUNozE9/Rm0Ry6U/WE+EWMFkISMWRQIoDlDowgHaxrLBne8gadBmt7G6y4w+K3RxOE/aHyxbK90PQtLp6ksg142P0UgwNF3+Dv5c/3P6R+nf3VYwMWNP278pUmi9gLkgePDZbY/9BMxERDMaBy4qUaQJ6zWIDKGkWceIYnvmNBbtPMMImM+MStX73jQIr/XRJMqyt/oyAiuJtJqZBFI4+g7/J38oTOg47BPsPO4/gcMPBxCaCDQOlUe8HtpcLe6xukfI0JO/7rxx42/l8b+0BkpawYZBUVdDp1kZpOopEKqykQwtXFGhcFMgkVojEIaRzTK8KNBy7ApOP3KNMjm5Q76GcZndXhw9B3+Tv5CvcLvK9oxvB7k9UvX/5z+cfrXjT8YMzDOuvH3MtkfPP7As2FowXAjOa7Q0pihUl3OitGqM0dnmo3miPMMIy83tL0KMwoLKX48+FNufnH6g5tp/HReBRx9h7+TP9f/nP6BcnT6140/HCTd+Hsl2B9mj5Q1ZGhAmXkjBKgRRWPHhKnRQ0OHKWhnISAKK3u8Mw9PCTVv4nlWkXdnTrsECK8xtqyHSTxDDF6PFoM1nMng0fIZ5OgbNBz+Tv7QN1z/c/rH6V83/rjxNwHYHzojBaWshotnv9hnbtUwRhPMGRo8eOAzHc0bY+ZY+ylQhiYIXMx8FpvbmETMyT9sjdLZKUQ4+gTEwkDlSIAc/k7+XP+DDPAHFPuH0z9O//p6UgXCjCNUl4ExBI9hzo0/XE9y4+/FtD/sjBRJGCOHI3i4TDImEmGhWSW+wWd+CWG5T5VcMAf93lSVDdeblwblax52BLvBXU0sR58d3uHv5M/rKWY0uPr7X9SZM3Lm9AmVfvIc4j9Crkuewukfp38hE2780Z7BzuHG3wRnf8CQwoGcVF2e9vKnQRCsZr6JooKj6RN0fGY246DwYSDxXA9NGYhUM43h2IEebW0sTaNJbUKbLTQNg/AERn//gQNSqkw55blG9Sfl7bfbJEj+Pxs6TPr06aeNM3nieLkpf178or/y8aek0EWdOS1H9uxUeaTYGGd+ClyXJJmkSJcRQYixkVeL/Hn8hzj2WUTQ5el/R3Zt1X19Sh+Aez8GIiMTSYoMmSUyUWKEoW7nkL/VUz+TxYPaKw+m/7P5TP+vM3iBZMxzs7KcEPn35O+HsX1l+bDuqv+e/HCKZC18j984/8Q/Ex72cCROOg1p+I9MlEhSpjc4Xm7+o6LOSv8KuVBbkQJlH5OHW/dXvzbOZZI/D//LJf+Ovmn9ax3/wB4pdlNPLNj1ubmcM0beN5oYhzT2RvisrqNP47yo8JLMtKIpibaUGfDMBrKgagjPlRDp79+/Tx586GGFoUqVStK5Y0dr6yUs/j8Z8pn07z+QTSQjRwyVIkWK2Ja8svH35G/P+t9k3IsPn1P+shS8XW6tXE8KlashkjjxVcU/uyFdQuh//R7JzprgLzSTGOzJ6bLnlXylH5U7H39GkqRJH2f/Xz11CAypdrYc3OCMloiU2h99IRny3QJerXbxlAzSJAT+tVrg//vRH8p3w3tq01TpNFJy31NG+aBhyWWVf9J//ctnI0eahxePf0//psuWT24qXUVuf+JZSZY6naa71PxHR52RARVzaTfMWbS0VOs0OkHqv6D8nS/+ypSPvxv/EuL4q22UQPu/GlJq1KCCBjyIHv3e6px2appUnFo1V3Zgs8GJ/RkPKrlagNUFHreMg1/PQggpWuYKuiuF/r79B6R0WQ7gEVKlakXpBEMqIfL/6ZCh0q9/f4V45PBhctvtt6GaVz7+nvztpSH1Ujkjd/HKH+VVJH3OglK97wxJkiKVqkmKakx3pcifx39C6n9qAMTZ/w3+wf5f+6P5kjFvoZjwy4nDB+XEof2+/lk9+WP5eeYI3QJQ66N5kiHvLQle/3w/po98O6yn6r9HO42SXPc8CD7PX/8NgEHq6V8VVHsGHw0q9lx8mEvvhLrOIMzS5ccsnQozaSBQlTbv+PMlnXEXTv/yXKp+FXKq/st5bympCkPK8EiSoKP1uHj0E6L8O/4vnfwl5PYPzUihH+gvHPYDdES+hcelOtM7GOb3EvVr5yaG/KnlOTwHbXmzQZSRzIuEJKAGmlEKXja9XwH0aUiVgSFFfipXqSxdOCOVAPn/GIbUAMxIEf+RI4fKbUVuvSrwp3TR7dnwq4x9sbyKU5psOaVYo1YaTkV/8tA+2Q1D6/cvxir/zJIfv+QrvD34ipc/j3/KX0Lpf30rZLetIvLQGx/IdUmSoItHyOmjh+Xgjs1qEJ0+fhjtEyFpsuaEETAPRm1Krf//tfcVgFoVzd9zCelS6Q4LkC6TLumQThVBEEQRRUVKREQBJZXuVhoE6ZIQUEApaQSpSzfc+/1+s7vPc26A+v3lfS++Z+Ge55yt2Zmd3Z0zOztHO81dPON/AzQ7myb0RxFqpBZB+MqJXJxDTP/HJPzd+N808QsVpDj/VYIglRUaqb8z/w2iZo8oIpR+u7/EjRsX828suX75glz4A3ScM1ZuXL2sFEiaNiPo8r3Ei5/4Pzr/hOOY6GBs7bGhGQuVkOrUSMXA+c/tpfwd+pOw/vrnWNBf//+u/ANByn5rD4ODA5d+ojg2+CLDcR1Lb3DHZwhWCoApvGc+vniCA/lk30E1nheTFym4t9m0TpbTCpVzWZKQYj78M+fOSqmSZZVGlatUkl49IUjFQPxHYmtvIAQp0nXsuDGSL8+T/wr6O/47BUFqymtGkEr5aF6pM2gecI3Ifyd2b5UZbSvrok5+bjF7tzyQgAu4ct59yX8Of4pRMWX8DSwDAYDjGPR/dfYuGIcbzR8edfxfvXRBpr5aRi6cOa7ZqvaeLJkKPHdX+m8a+5lshIaHtTYYCi1WVmixUF9MxN+N/00Tv5T1EAAZqmJrL3ORkn9r/qNmL0x9R4XLa7N2SZxEEJJQl5t/r10+L5NblpHLp44jPlyq9Z4imQo+9x+df8KA7JDymRR+JghS1T6BIBUD5z9dXyz/6cqE+3/D+hOT+T/y/OvG//8M/a9ev8EXeeDNmUpvdDLQiz4rW+qg1juObhMVzMc7CFwUmHSSD9TFjCzAH9yHKDvzAX+aWf3O3S/wz509KyUgSLHptJH6+KMeEhoaKj9v2y579+yTrFkzy+NPPCYZM2QEiqTl3fG/cP6C/LZ/n+zZ+5vcuH5DMmXMKNlhGJ4hfXoUJX1cHQGKeW5ETp06JTt37pLde/aiTAbJl/dJSZsurejW3sDBCn/8uFHQSD2JcqgP9D9y9HfAui6xYQScJXPmu9L/+LFjcuXqNfaepM+QXuLHixcBPuOvXLkiJ06e1Ppd/2fNkhXPru3sa4R/sP9PHdgpU2EjxZAKtlB1Bs6PAF87CPCnvv6CnNq7TfO9+OU8Sf1EXty7PiF98QQpKwwMeOnUMQk9uEfOHNwpceIlkIeweNPIOV6S5FqeWLCkY12N1OdwlNktZw/vk0tn/pCbVy9I8vTZJEXGRyQ57IPixItvsv4F/GlEf+HEETl75DfUt1fLJUubWVI+mkeSpM4YPXzbkFvo09DDaP+BX+UqbPmSpEonD2Z5HO3ILrFgI3Yn+l8+e0K31mgcniJDdtQWLueOHZTjOzbKldCT8iBokDZnIYmXNEW08AeVo40Ui4VIqzkQACCsOvo7/l83opdsmToU0WHyTIsPJf+LLW0eS3/2A2tXnhHZAEGKggmf633N7cCcQbIHOoJAPQHwyX8XTx1Ff+wF/X5D38aSh7I8Cjo8JgmTp1L4hEQc9Zdw2f+R4LPWyzjMwD44e3SfXLt0Xun/UOZHJWV2aHdZRaSwaQK29sZRkAoX3dqDoOHw16xo36XTR+XGlcuahwJnkpQY5xb+4HJuzhBpaQXS4BgyLf5B6QhNM+A/26Iz6NhKq3b1u/F36wZ4ATxJvrx69hTanh5b3OCFTNnAC3EV/t3wJx+exhg7uftnaMEuSdonCsrD4ME4KDu4fGaFnxk2UlV7TQzAv3LmFOh0TutOli6rxCYcNkhpzR/c2/n/GrTGV86e1qSEDz4M3nowQv8HKg3MIaYWJfuf9P+/ef3x8bfspIQIcIm5seP/v9X/qpFSNrVMyzaSV3Wg4U75FpGOp4360+Ti5MccQd7GnY5ml6IVaVVa3mYMwmAE9QX4vQ/gU5Di1h6l7MqVK8rjjz4mn/frrxTQhUApIVKtajX58INOus2hFHD08+A/Zdp06fVJbySTGggOf+QpUbK4dO/eVZIlTao1KkkRz1/SnxP/yFE0KB+qsNkDDn6tWjUkTep0MmQIJlxUS2PzPNBIOfpXqVFTjhw6rGkL58+WdOm4ECKng2+e5PbtMClTroKcgaBIuCuWLpEUDyZX+ITGMoQ5eepU6dX70wB8JMjPW7fg2fAFn/EQgM97U5oJbOHf7/+T+3dBkOLpyRBJ+VgeeRGCFOvU+jz8N7FFKQk9tEcB1uz7raTLVUTvvfAvh56SZX07yKGNy5BmarE1aZ1l3h0gj5ep6cgTAf8tUwbJNmy5XDx9TNti8GFpugsx+Ffo/JVuLTr6s1IvfIf/iV1b5fs+b8i5o/tZgVLG5WOzshQrLyXb9ZLED6VGmkkh/oTy+/b18t1HreTquVNa1gufwlzFrsPlwcyPadtZ1NVLKNOgteOCGTd+Imkybq3M6lhHzoBm7BmXj/ZlVT4aJ+nyFImAP+EPhCbF8V/L2TslbsIkqNa1zDRnzdfdZes3w7Vs0ZfelSL122r9Bsuo/b+eGikIUoRPG6mU2SFIoUGkw53mn9vXr6rB+i8LJqFUkP7aApQr3OgtKVy/nQqVDq/o4F8+fUJWDOgk+9d/H8BfWQrvgBR6UuV4Up5v85GkgXDpsCStfuTWHtrNUAVbXllgI8V4DQB4YP1Smd+5qZEnEFn5o7GSpWgp3Bn8B5WFsTkBIRhBCnRUyppo4r8WdPwZdOTW1VPN31F8SHvCMSXD5dj2DbIQvHDt3OkI8Fk+BQT8CuCFlBAsTdt4jUj/88cOytzOTSBA7o+Af5x4iaVW/xky7bUKCj9zoeelWq9JCp21rBr4AbZxx+BOpOy7A+Xx0hgz+oQLGufl/+8+fk1+WzkXCeGgAwzzSQfbwcTDlDN3vFf644a/d+p/5taSmtn1jEZGgR+Ewdoj4h9MM3c+fJ/+f4n/Ap+ICXAQbsjUyl820jIxXyoijA4qTAElcKIGI8Y4/goycCC/K8tfFAuHN85Y2GA30wDiXLobdTEQfii29kqUgCaEbdVLEH/iweHr8C9UqKAMHzYUdvZExGbXUSnSo/vHMmPWtxHwT5Q4oVy+dMVkBP1Tp00lE8eNlZQpU3rnB72nADZ12jfIe2f4BMkmjh9LGylopCx9x02YIH0//0Lp3/a1NtKixUua1aVrRsBf88M6adOmnaZVKFdO+nzaSxeBQH9qgTChQNj7k8+0Hx3+27b+GKlO0xYty3b8H/v/9H6e2iuH6sIk9eP5pO6ABajUENfRf+fiabK071smGqmvztwpDyTC4uSBf/KXLTLrvYbQIl0K0CdugiRy8wpsepT/UBChUL228hQEgMj8P/2NykIByCUQ/4QPp4E247gpaGleoG5refqV910To+C/ZfpQWTfiY9tWFAL942Jr5+YVtIvBjr9aMJpP83gBE2cR2b30W/n+0/aaydE/YfKHIVThjd/CZ4Hqn06RDPmfjYA/x9+UNhWgtduu8SkhJJzau0Phe/EnfApTzadtkbjxEkaAP6g8NSkGUCtoUmK7rT3mQrQ7YWkLSc2+30i63EXvOv43wI3ApsnUSAlsgRZDM5jTLKYefAKIYP65dfWqfNO+KmzndgXGHzU+N6+BfmQLG3jSrEqv8ZivMO9EM/8c3bJG5ndrEaX/48IW6RbqUjTBu0+3eF8K1GmDWoPjb6Oe2uur8HVrDzZSjv771iyQhT1edc3AlthkyVDo2QjjP2gjFSItZ0EgRf87uhKHM9AQTX4Ncw9Asl59MXiyMO7R65b+u5d8I4sgjJNMGnCTIJnlBReH3+rYFkxf8JkI8Fno7KG9EKyrRsBf6Qg+5GISBzxw87IZK9zaqwpaOvh/6FZ6FcU/Q96npMZn0wP4u7YQj2sXz8mImrmV/omSpZJmkzepiwxHKy3krz/++hsD1//I8793/AeMzTkJ0z6KmfHf8L4+e1YUxjIRA0J/OElpZvNmzKvWY/NoPtxzXOirhN7bgY9XC4XFNCbjX0yHfzYUglQZTGYe/D/s/L5UqVJZ4sSNI5t/3CxvvtVBLmG7i3n6f/6ZlC5dMgL+O37ZKQ0bNFV6EP8eXT6UihUrSLwH4mGLb690eOddOQyNEUOThvWlw9tv484SCXf79u+XmrXqKNlJ1969P5YypUvjbTlE1qxZI+3bdwjMvyymxua5KUjhAfBOnQqVMmUq6HOqNKlk0fx5EgtbIJHp/86778niRYtRVyz5+qvBUqxoETZJ6/DiP2XaNPmktxWk0CBuSf70EwQpNpkg70H/c3Hm1h7xTwCfUflrt0I78QAtGt/Ej+3aLH/8Cq0Y2wD4Zd8ZII+VqaH3ekIPhA+7fUMmtiwt54/sI1Y4Wl4N206dJRG2xMJv35LDP66QxR+3kRvX0JdARBd0Gj2jPof/9HZVobm7KXmqNZcMsPtJTL9JIbGhMbwt+9cukiV93gos5o1Gr5Dk2GZz8Nk49v+ZfbD3oisHSC7k/1xVGkPT0FYSP5wWcMKwVfWH/PrdJN3qqv0FBKlcEKRIVzTjxtUrMqpeAQiClxEVLnmrNpOizTpiOzIZthlPyqoBH8j+dQs1/8PZH4d2ZxFKxQZolLbwp7U2gpSDn7dWC4UfH1t5Z2CLNh8CwIXjh1BOpOQbn0quyg0D8El/FQDQGsIv2rSDxIEfL1Z/48I5aAN/kwM/AKb2Q7jkBm7F2/aOAF/7CHV7+W+j3dqjjWVd+pHynvQj4hZ/wichfvoG7hO+7qoJiZKnhAZumKTBdlT47XD04zKZ1+UlxZd5K3YdJdmfMvxvyYByAkHpqoxt/JRcOX+a2SRtrsJS4vWPJQW0N/TldPX8GWgtl8vKwZ2lcIN2UrBOazuuWToEGrT+qpEiHhTWMhcqqe3cvXymfP9J2wD8GtCMps9VTJ+98Lm15+a/Yk3fltiYD4j/NdiYhWKL8cA69p2CgluPxtBOfhIB/o1rl2VUnfzAA7wABPJWbS5Fm7wNVwmGF1YOel95gfyXEoJpXbiVwMAnG9hqQ2Rhz1ayd9VcxT89hKHyGDcJU6bDNtxJWf5lJ9MGEgdluLVHzZtmxoX9P7lFSfT5XoXfZMw6SZYmU5Txv33eRFn5xXuKf6FG7aUY2sjg7X+CYFAbW30RtY3USFzwqM1gtGY28HnVemwbNR/uDZ+YQpHHnxd/R3+t0ofv0x+Mw/VPGQ5XDZa39MfDf0aQ4sjT77W43KaoYygdbTrqkW7fiAwnB/PzzsLQSHOvbE1+tmnBHHoXSMDTfQCfGqmSAY2USOvXWkrLV1sovrwQp9Vrocl53WhycuXKJZMnjI2Af7s33pSVq1Zp3nc7dpT6DeqC2EH8afdUplzFQJklixdKylQPmzzI9mHnbjJn3jyF2ekdlK+P8jYQ/oLvFkmn9z4IxDgbKaZxmuG14zud5Pvvl+gEM3LE11KoYKEI9D8P263nSpTS3KlTp5LvFs5VAUEjIvX/lKkUpPooPFM7t/Z+tJDuTf/TfmMK387JP57g4LsoapfoHJELsRd/pv/87QhsBXXTTnukeHUp33lQhPpY9fEdG+Tbt2qhe8IlS6FSukB6+f/C8SOSNA00MjZ44fP+l4WTZVn/jtrMp5p0kELYXnJANC/2aL/tWFuObduo9C/W7F0pBCGKwQ0NfQD80/t2SWLYusRPmNQwGir46ZsRsuarbpol2zMVpRK2bRxJWP/t27dlejts3UHjxOmgYrdRku3pcppf4SPz1Ncryqk9OxQ+hcny7w/WdAf/0KblMqdzI0wBIfJE+TpS+q1+AfgEFrCRQimtU0u7i4lhXRVRb44S1XHHJ5vXAfHwP9O4Rea29lSAzQ5jc+ZhdZH47xa29EZCgKBWkcl1hnwnKXPkDvQ3F9f9EOYWdH0ZdyHgBQiUQxepptgJYqx748S+snEccEPIDG3SCz1Gqx2hRnC1tfCvhp7GSbrzKhRbVDQLT+05P1JVrB+pX3BydFk/0//xoCGr1meq0L8Zg1LGg/+gCtjaM6TRdJfEB/If6c8mVOg0WB4pWS0KsX8CP68FL7BckBeC448vB9Mg+J/a+zNyhEilbiMl61PlbT0hsIv7TSY0L05wkgAazSbjf4D2MYE+c/4Pu3lLJuHF49zh/VqG2j2vjRQz7pg7VlZgi4+hKPid26mkv8OF9J/WtiK2krcp/o1Gr5Fk6bMY2t4H8782OhL/KbL2on0a4T5If5MWzKF3AcLgycf/jvx/P8gfHo2UwcN0NVmeQyAYzFxiUs3VpmF0h8CIkCU0KHOwdDAuwC/IYHOZeckDwNVpfmMm/FB4Ni9Ryng25/Sw+LuFkjpV6gj4h0ErUqESFq8TJ5Qmy5YslgcfojEl3nqxsBUsVNSQCRFrVy6XJEmS6LMX/85dusrcufOV/p/27iUVypsTajy18fSzz8mVy1eQFi6rViyHHVWyCPBptF6idBnkwZspoDqHnN76f/hhvbRs87ryZ7WqVbDV2FXb5/pp+jffSM+eeONFy9q0fk1ebfGy5WVTi6uLDZ87d4H0/pR5GYuAQuvWrsbTvev/M9jamwwbKeWmSPznFkduGtOWhA4hX+g+Sh7MmEPxsa2U8S8/D20UFgWE5lO2SGJ4j3b4k7aO/2e9U1eO/rRW8Wr93SHVTnjxJyPfif/PHjskE5o9q/XmLFdHSr3dz1FJ+f/C7wdlvE1P5Fm8vPC1gbhEN/7mvN9QDm+CUI7xV63PNMmQ7xk7iIPjj1ucSz7ngibQJhlNButEs7XOqW2wsEHQYnrtL+fAsLgA2hvE/zYMl4dWhhE6iMOtwep9pmhe0ophUFkYwXvGf2T6O1rxl/2Q7SkjyDn4Wgku3nzrx2Jrb+IATXKawOjwZ4Y/ftks37xZVVtMLVKtfjNRWRB/5rkNIWI8tE0XseVKOM0mbZJEKdMq/kxnGFUnn1yBNpPp1NylhO8qhyPT7wTf9T8FP7ptIP5Ve02Qi8cPyPJBH2p9cSBE1e4/E/6wjEDP+iLj7wRSQwdC5p0naJRJrQw6ZrF0dPBnv98I2reVCr/GZ1MlY76nlSaswdX2K3hhGXiBgZrPkm0/0XtetkMIWgkhiBAK1MNW9EvvR8H/p1n0QN9F82SEjVRV2Eg5+OQYbtsNx7YdMyTFFneTCRugKY8dgH8G2ipqrRjS5XtKavbB9p8NBjODtZf/AulAgvMfsXF5Ne0u48/kDOLv6MBykenv6jS/Qf5XGLj8Wf87WAbZiPzn4LpfH/6/j/4QpK5DownFPjiIHe2OWLKzyVS8qhAOTuIkYeJMXsN0XEiQTWdQLRC4kJ24nLlSIVoHY015k5H13h/wQ7G1Z/xIiWTKnEnmws5Jh1wk/Lt07S6z5kCLA0wnTRorOZ/AlhDCyVMnpGy5SnpfpEghGf71V7iPiv+CefPl/c5mwmr/xhvStFkT0DhcLl68JM8+V0LL58yVE9qucdHC7/D2O/L90mUKf9y4kbCRyqNlHP3DINCVhiE58SH8NatWStIk5rg1+79hw8byyy+/aj99twCn3dJi0YlB/U8bqcm6HSYwNs8rdQctMPwHHryKE0Hnjx2SbbNHyt5lc4BdGI7kJ5GmE9ZLAgid5LVwfNtt8AuZgbvhxEdK1gjwv57gQj3h2FZjKhfqC1yAgX+D4ctx+ukRpSXHiikdIqd+2yYnft2Mbbhjevrv9s0bgIuAt/j967klEyI5nq8sFT/E4QDAN+VEDm9eKXPea6BxBbCl9kyrrn9r/I1v+rT6amKNrRceMLYmhGsD48+fOCTjGj+tMZkK04nipAB8Rk6FjdRJaKQ4/lvAjixu4qRYNLT1mo9tH1rtcWwZXYT2IJs0HrVK63L4D8SpPYdR4LQZctyA/yMabu9e9o38OBnaPgbQsAYWzwx5uci7EJX/N9JGyhqb01/Sg9hSvRP/7Vk5R7dgycfFmr0jhbDt5gLb5eYfaoZ+XWQW/hchMKaGwGhCOE7SXZHh1Y0BNrfyGg5bqknsJ+L/V+a/TRP6QZDqqyV4kvQEDPg5/gn/xYELVBPlxp/rf82MHOSJIeqQE1hg/LWijRSEL+a7AZsk8t/e5d/KpkkDNY7lqn8GwVnpCCyRcVyTp7AFe1irbL3woPKCF38mXDh5WMY1srzgBCELf/2oXrJ5Kk8EhsCIfAJcKxS3sIL4n7Jb6qwrIzRS1XBqL/L8xwMTtNVi/9aEcJ8eAhNpyLB+9CfgBaPxLPfeQHkU4479dr/M/xwWBhO22txHxp94uhCZ/nfrf3/9NTS9X+WPkKvXb5KTyc7of7CJ/th75Rpzz5OrRJK6dTKIZmUSAmPJULaw/Q0k2AwmnUW4zUCmxPyBCRyX+wQ+HXKWoD0S/hUpWliGfTUUmETF/8sBA2TU6LGa8EW/vlISp/CI7Lbt26RRk+aKf6VKL0Dr0yNa/Ndv3CAtW8GYFaSpW6e2vP9eJz05/Nv+A1Kzdm2Fzzr7o+7o4Pf+tLdMnmKMPdXYHKf2lNi2l0n/r4eNlEFDaQwv0r1rF6lWrYpish8watSqrfdPP/OUDB1MzQAwjkH9fwZGxdzaIw9x0aqLU3vR8d93vXA6aAVOBwHHoo3fxlZDe2XvC8egCWoKTRHiiT8j/4z/uZrW6j9L0uYuqPRnnbQHWTWkqxzZAuECdTDOXHTpNbc2PsdzVaRCZwhSyOH4f9vcMbIaNjeMfP71j+RJ2LWYemwhrc/cR6Z/OOywBpXPTIA42v+wvDSNWza2nP7iEeVp+/NVVQh/QJaOHBuPXReAT/yn69bedpQIl9cX/x4tfG6dcUuLNl6NRq0I4E/6O00KQbaE+wMKraYSA5/xO+aPlxVfwtgeD2mfLCq1YXDOsob+aAQevPTfMM5qpJBkHHLiEzF34L8t04KG+qXf/hzbj/WjwCcdNoztByef/dgceQEnKbM/VzkA/zTs1JyGM9vTFeWFbsNM41HO4PLn/L9RT+19bsoZ0SvQ/zkr1pdSbzLNYOn634s/Tz9qAaUjBSnQMRL87fMmYOvsXaV/ujxFpcbn36AMAr+BVz6z5k8AG7GXp2018SxPhPUXRvnXr8jQKo/oY1LYLzUeB16w8+/Cj1vhJN08zV93KMwJcPAgMvxLOOE6un4+hZ+psLWRctUbIDg1uFG+7UABKUQeK1tLynb8UusJu3UbZQuq1u8BCIkvT90qseMnCMD39r+qf1hfJPz/19cfH38yRMyUP6CRgiClow1tRFBZCSM8uDFj45ErDKsO37H0P/JoXjxwEYuFmY5vFho4eLlCmdd7Tbcpgcp0z1+fmMICJsRk+GfO07O5+TRJ6VKlpV9f2gZFxf/rr4fLkK8xGQP/Hj26SNWqVXVOWL16jbzeDiesqN2oW1feffcdlI+K/44dO6V+o8aaUq5sGfmsDw10RbZs2ybNmr+k5KpYoSJOy/WMFv7gwUNlGJxyEv748aPwrb08WpehMEGGyx/HT0j5ipUVfr58eWTs6JGaTEeeI0eO1v7v93kfGLKX0njCjyn9T2PzyS2x3YlGUZDiG390/AgXHKwAACAWSURBVHcCBuc8WUf+5JYVt64Y/ti5Sb55o4ZyXdK08P1VppbG60W7g1xuRDPGKTvj8mi5FyUZhBFGXDp9Uqa2Lqen4zQdbcn2bCX1DRQvcTLYdGPhgqZj89RBWlO2YmWlUo/RBg7ykv83TxuC03rcXglX26RHSlT7y+Pv2sWLMqKW+dxKMmxfNhm98o7jbyAMmYkWtRzUGrH/3fjj1h5P7bm06MbfSGx7XYPfn6SZskMjtVLxV80aKqUjSYf/q7N2az02IjD+aas1tGIWgzuuLefCOWo84xw1Ov5fj0+tUDBhm71be9Hx37qRH6smhd/wrNB5GAQkaHxNgwLw2ZP87Myar3toG4q36yl5KjfTbIRPQXh2JwpgIk9i+7NEu95/e/7bPKmfrB/TV+tgxclBq8vQQN+EJo/wK3wwBAcaqpp0D/0d/gGBFDlawXlsbPjjIv4uoIjcgvA81H7rjvRvNXcP3FYkUIP0keAFxtHdRaORq+44/yocVPZA/CTqQNXBn92pgXkhAMCGI3AwIlOOKPCv37gqw1Qoh0aqoHHISWITv8D4g1A8rukz6g+N80+Lmb/IAxgPR1T72lDRyVO9mRRv3ZNkQiCW5k6f9NFff/z1l1wVDOT/6MZ/FP5jEbLTf1j+CNhImeGAprvWYxDwBJZKwRgcyt9BvNBWuC/grItGB4eBy6BDC/H2zRzRWi3zKoJ4BmX4zwG8H+CHwtFhiVLGxiN/gXwydtSIaPH/4ssvZcyYCYr/kMED5Zmnn1b8f/11p9SDgESyVKhQTj7Fibvo8F+7bi0M2dsp/es3qCfvdnxbyx8+cgTf+OPbHjQYzz8ngwb0jxZ+z497yYwZMxX++HH41h7cH0RH/zbt3pDVq9dqfbNmzlCHoDR0J56JEiSQlcuXwuA0HmDErP43W3tllP/Uszk0UhGD4T86mxxV12zhUGvz8tSflP8u/nEUJ7Roq0ZBLJ869Py7/MdTWpvG9SVp4AenNHznDBAVoLQhBv754wd1UWGUClLdR0fg/x0LJsryL97VEs+0hKPKWi0dO6gQcNfxh63HIfjuGeE7IUgr0ktw/PFE39fYmmP/01FowzGrlf/c+Jvahk5Lt6sjTS7ghlGQ2TP+R76YVwVGXaQDW3tm/A8smyEANri1F4TvKpz40vNyDjZp8DwgjUasgqPQbKB+9ON/A2ykNo7/Uvu3Lh1ywjkq28/cLrAs55+tHoP7ku1xqvAFLtZR4a8f1Vs2Y4uR8Ct2HiE5nquAXAY+HW9OeKUEyoVIVvRl5Z5jI+D/V/hfPxFjPZuneSK/nmg7tv0HmQ8jdwZqYfh5nCTpM0egv6OP00gRz5ZzoJGC36bo+n8C6QgfT2x7k9Gr0Kc8CRoOjRQEfATDCzuBibESdPWzXrrT+KrG4wqf9G9Iodh2+JLP35Sdi6frU53B8+AvK28U+PSXNqZBEYLB1t7zUv0TbpVG7BembZ3xlawdxrktTEq99bnkrFBfvu/9uuxZOkvpX3fQQkn1yJOKg4NPfPiabpvzt+lPuMEQtf+Jv7b1Pl5/ouP/6OgfHf/7+N/b/g+5cvUGuU6Z2EwsZmAo4XGh23NOWFQ26VuoMrzNo3GGfdnJmKPYr2YwQFjgyUFO9IwwA4X3Ltg4pqMeo+vSzFoHojQ+JsEPPQONFAy5KR2nz5heFsybbfEzeDv83/ugsyyY/53iP2PaVMmRg4bO4RJ65oyUKlNeCZAvXz4ZM3qE1hUZ/5mz50i3bj0U/w5vtpemjRsp/a9duyFFi0EoA/xHHn1EZkyfHC38199oL6tXrlH448bSj1SeaOm/bMUKeRPuEgi/ZYtXJH/+fNKqdRvkDVGYHTpgK+xP+v8qPJ+fPn0GZYL9nwG0obB4r/rf+JGCywC02wlSXvjEh/CvXwyV4bVpH2Z4re3io0r7cGyFDK6QRWmSEH52Xp7+E3KYPMzAuv6M/6a2rYTTbj8r/V+Zvk3iJXswCv//vm2tzOxYV2vLUqyMVO4xmtXbECJHf4YDzLfrKLAnKzeR4nC4yfBX4DPPRBjMn7UG8y3n7oWWJ4GW1cZb+p89egCnsZ5XXLOhDZV6jCEIBIPvtNbQSP22HQs9NRQ7NSUy/NF186tbgGRYtKmRIm00D26cIMXn16DtomG1F74b/xNhZHz2EAQ1JL44EHZ3j+XXNpGXmd9L//UQUH/Ub+3RAH6epIWvsDvNP7+tXggfTS20PUUbvyVF8Bcd/MV92smeJTMUWJ1B8yXVo6gT/wj/9s3r8lVlM0bN9ucPWgUvf8b/Bj9RDRpP7TGo+4OCJZX/V8AFBT/ATFip4Ty2dv85xtM8KnfwCUfdHyCGlH1VP2dk6BgZvnExsEfh8NNIxINhPASs8xCwGFrN2wt3LAmijL/zv5MXntM8WYuVw8nEUYH5Z9N42Hjhj/ArwVlo1qLQvEfC/49d2/DZpRe0PE/t6Sdi2GQE/rj5j+4SRtUpoPBTw+8ZPb0Pqwk7N+Sil3ravbFyL/7e/mddAB0F/v/6+uPjb7iEvKE8Qv6Mhv+Uee7h+hMd/JCr126gf2yStoqNNUxum2u42pPGeG1/gOPJ9czGcsBA34YwSXGWCkMsBSpmwGyoNbMuvhngRyHfJ/DP6keLyxERxWfmjGmSLXs2YqaB2F2/cQ1aq7JyCSfriOualSskabIkmj8Mfm0KFCyMl33QBvgvWYQ3MzjcjEz/tu3elFWroTlAqb7wRVWmTCnckoIhUqp0eRiJG8Fl0YL5kiZtagNcU0PkAvzOPPtcSYVH+OPHjpG8+HRMdPS/eeOmFC9ZWi6jrTxZWLhgAVm0eAmghEBImwIBkLihh7STDHymOfxZqbo/+BRbnLjnG3QY/m2DZ3OdJO9R/+u39viJGMBM9bj9RIzF38t/v/+0Bp666yn/8ZMv9b4ibmgZaMlv9VEgY+CWX5qc0FxZGlsuRYrBOTr8x8LQ+8Kxw/DkbbfLkNuUC/L/ii/ekV/mw7gb/J+lKLf2xgTgk/8v4btpYxoUNlBA1ldg5xQ/2UO2HsK+M3ymzIOn7IMbl+IOWpYuwyQHtha9+HP8/TR9uKwd3kNrylP1JSneBvfE044/d2qPDjfpCNJgoVTCvYE/sm4+/dRIcnxCpvEow5dMYbLxI2XuqdGKkzAhHqgNCY7/W9ehCYFWzI3/l2Zsh6PIFFpeuSnS+P8V3smXgXbMUAkn1LI+jZcPT98w3sE/AWF2OoRaRvBzOA1HLgcKPCkWhH/71jUZUTuf+tsiZs0mb5ZED2PcoIyDP64pjLWPHQLMEHVYmaHAswYp5tBMhMge1gcW1fL6iFvj/oAOOcNg0D9RMhUuofPfLbxoTG1TXj2FE/9COBFXrHmnAP21NuDPLVKHo9IRW3sBABY+tYvDqmELz0CXV2bskPhJk7Mlygv0zk/4L3QZgW3milHm359mgBfgHZ3zT97qL6mHdgd/56IpslRP9IVge9MJ9QZng3I4tITQwuKP8DPRWB0HFxz+bIOX/xf2bCn74JOKOOet0Vx+nj1a70viZSFXpUZR8FdcPX1scIwI/270jwzf2///lvXHx//O4++/3f8hV/CtvcBbj44KinKmWTrxgbnpBZg6WcPcSNbRp+MC7i+UZe0w4iKCqcqmmx9cdYCgDhbkf1anQBiHe6f10LiYC99s7RlNCBCQWrVrStcP3rO4sJPDZObsudK1ew8iKKVKwCC8P97yPPh36/GRzJoJTRZyN2/aSNq/+UYE/Hfv2SV16jVQOiZKmEi+mz9XkiaH4aml/5cDBsnoMWO0/ubNm8qb7V6PAH/sOHgu/wIGnoa0Mm4ctvZy50Z9jIhKf9pEDR8x0mgdLf1z5c4pkyaMRxHg9Cf9P20KPxHzGepnVwIGrs4hJ6CZtnnwJ4j/a//Ty/OUljA2R11p8A0w2kgRLumvrUD8ZTiy5Ik4Hrkm/XNWqCelOkBjYOHvWgpHib3bcs2H88Ui2KaYKLHVa3dU/gv9fS9OT13WbUAAUDLOgUf0Q7D7IP/XH74Cn2B5NAJ8bpdR26N8jjxZqQ36aEwAvuN/GsTvXQ4tBfrmiQoNpMQbHwc0Fl76H/xhuTyU4wl11OnG365l38pS4MC6iEONPpMldtx4gfF3A0L1FNhAGQEhXGr2w2dyYKTspb8KUnugUUtIjRQ1RlHxH1EPW3vY7k2WISuMzeluAdnQ1aT/EHzaxOBC2x5jJO0d/zdg7L4Czhx3UxuEgonhdqD5xE22jGHSyOP/8BaeZsRii4pywOapQpehuI9+/pFbN6GNKa4n1sh/lfEpm8zFSmv7TDNDZPucMTja/77C5ykyHrt39Cc/EP6v8yfI8gHIA/wfht+q6sgTPwnclqDvvPMfDxhcv3QGnxsqpvi7+c8IUp9pvfQjRV9UDv7pfb+o01U3/qrTs3mB5w0RLfwh2JozbQoLGu0Dfwf/JgSy5fh0DU/Ekf6JH0orTekVnO0DJHq4X/Kp5YXcheHJfiq0Ug+YOpHnOr4XSJ9hF/44rLQxntGxTWfhX8dp1xEvUrtl+r/55C2S6ME0AfjXzp/X7U96zCd8nuqrgjHj4LMi7/ijK4a5GCOKE+CbDgmRV77dIQkSJ7e4Rt//bJNpWBD/O/X/neADgFYTGT4jvfzP58j858P36f93+c8Ym5PRVVjiVGSYVysix1ma0jiVg4Ex5s5xJAcQh5/Jy/vATI5FylOAKRpsrVYVjBL3CfyAIAUsdICCPg3q1Zc6EKjiJYgvq9eslV69egfwHzdhlOTNja0lEsUifQR2TpXUzglbpkho3LixVIcvp6TJE8vWrdsghH0kVy5dVjq1aWN8OLG8o/9JOOwsqw47NVJefaWFVMUHlGl79v33S2XAgIEB+Fh7ZAK39vTUnlapFy/9Dx0+IlXYHk//d/vwA6lZA3F/of+n4HRgbzjk9Pb/z1s2G4TvUf8bP1LQDOqMGIJj7x0NfC4Y50OxqB7Ft80W6wJIulFrVHfwQtiTZA3gT/cGM+Fs8/gvP4Je4ZI0fUZ55pUu8lD2XJjok2HBOSKhR/bKLtiNHN66SvJBm/M8tTmogd25cQK+rTYeghnqp6+qJ2u8DAeHEO5u3oQ/n1X6vTYuwNpvKJBVNVKjA/B5Q/JcOHlMxjbEgmbpn/bJYlKkwRsqmFG7xI/v7lw8Fa4cZkNzNluP7RM++S8s7KY6Ubx4/LDiz+2Woo07wKN0ZvWGvfqrD/UTLWxw+jz2sx1aFhcEwp9CGykIUnETJYJGarfWa9wfoJDtf2qkrp09A0PmrLCrgSCFco7/1Y8Untn/Beu1gfEzNFKgyc3LF+XS2WPwhr004N0d2WAQjhNzcAXBYNgDtUUa/2HXrwn9a106c1zzZS9RRbLCIWoc2OuR/qnQR8ky5Aj0/x4IEYsgRDCwbaXafy4ZoVG6BfocwNbfOhzt14JI4ydqeHKQwQs/LPwmBF/QYv8uoB2uTimLt+2pzj3j4tNCF38/qILzRmx/PYPP/eTnJ2Is/xHmBvVs/rnCr9JzAgSpEg6ANsrrPDU+7PXqf71YEqeg7zKDv3HIaebfQvikUBzSEUn8JAvpcPCHpfBkf5HNRjQOJ8CwPkdxauLM/HsLHvZpP0VeYBw1RkWavmV4AR/BXj0YvGA1sOnsJ1y8+JP/1gztIVvh2JP4J02bCfZNnykfnvt9v6yGTyxqgh38jPDcXvWTCQH43vFP+GFoz+iGBSGAn1E8SP9HS1WXcp14+MKEyPBZjvSIzH+kg5v/WJb0dvzn8I8MnzlsB7sCFqqm6L0P39Ix0vjz6W+57C+sf47/Qi5ja4+Mqa8ZJKidHAzXsUIG5LB1cxvKvAWYFBPtEk1WW4IwtByrDMNAjaUDhXlMfnaYPcx4X8A/C8/mxUuXi4g/UNEtTA+NiH+DejiV16ljtPiPwTf0+n8BnzB3wT9fvrxqTG4cdkakv9ECYTsNQbvM0tP1UaJECY3TThSj+4O8+ETM3ej/SouW8uPmLbaycFm9YrkkxQeTtfEKJSJ8b/9PnjINDjk/Ra5gnoBnc0SxTf90/4fqcXVs7bH6O9Bf0wD/AXwnreIHQyVj0RJR+O8CbEb4CRQKZlH5nzzqQojkgWsCuihw/H/j6iXYKJWE7yjjY8qLvyvF7ZOf4cSQNMjyVBmpgq09rTUS/+9fs1CdZuo3/pjmBo6ryNK2Nr61lzpnwQj8dwTfh1vQ/WXdtnL974qxGlZHO7AqfSZJKnwaJDL8yRCkTvPUHjRSurUXgM9aNLd6Dr+KU3vJaaA8enUE+LSRio7/tbSFz2ooVD7VFJ7b6ecpEv5kk8j037/2O8WLSV7akv4l8dHg3FWbaQpbGI5Fmx/qPYDP8pBULjj8HXwKw8+h7J3gnzmwC/W8AqP4A6zVVYNfVMpH/gD+sy+/B0Gqtaab6HD1e7UBpw2Zx3k2d91IdG+H3JZ57zdRp5mEn7kwPOVDQxmObUg22XyzEBkD9GfNLkSE/3TTjlLQ+sty8AlYvxXY/RX18s6SkfGnMEKv5dU+naS2SpHnnytnTsisTnUl9CC0uNHgz/4/izHD8U8/UvRs7oXvaETYxGkDvpe4cTS01cjE/q8OB54Zocm6E/3NYGZmlmZg7QwR8ffOP8xB8cubx5Yw1SCJJL3b/KfQ0K8+fEssn/5kIQTyFcOf85865AywIuloyzCODMqJg4sVFetan6vbVB9kVjx7kghdA5kUymIW1aDzBJ94w0hWjhu9MgpxvGdcTIOvglRJs4DXqllDShR/Xjp98IF+bNiDirzTsQO+p1ffYhE9/vQV1aVrNzlx4oTi6sWfW3ZtWreWuHFg63EH+i9fvkI++LCLXMYRe9s1SspOEN5uQivSt98XCn/CuNGS253aIyQACrzN2UZPmTod23N9NK0StFu9evbQNv0V+k+dPkM+hhbOiz8FKRcY/0/3f+ihPTKpRSkDQgGTWwwrUftEFwVJ4Ccnc6ES8kTZ2hILRthMZ4iMfxicZ9IR4eZpX8FdwSVTkcmJKzQTKVLCcWB1eQKeyVNiy0fZVdOhTYLWahX8QB3csDQAnzf8yG1B2MLkr90SRszZFX/n/iAyfMf/l7CIrRrY2XwbzwOfAyJO/ESSr1pTKVC3DT68TAHXBMUZF9pqLYEjxGM7Nnnab/IQbgloFnhqkSEy/Kn6rb0daiTeaha0Magv8vgbC2ePF48fkofgrLL+sGWmYtaFP9o+uc+z2KEcSOcpv+RpM8vDOBlJtwKJ4D0+MnyHv5f/HfwTu3+SH6cMVK3htXOn0DYzFxV/vSd8bjUzNFciEK9wc4JvWPcAfN4wmR9SLtW+t/bjn8G/ffMatI39ZfOUISiJlihMjhj84f7R0rX0W3u0F1PQFv6WKYNk3Uhoo/FcpSe29oqUJHjN4/j/cuhJmdjsebkOWycKn6U6fCY5y9fTXKRjdPxH+MmgSU0ODVHqx/PDvsjQ0dWtax6biQjSjU456RTz+C/gBQTGO/hZwQul3/xM4sPXlHaEFmIpYmeiKMwv/qw9NImLEcOKSXNjKF+5+2h827Eg4rG1R2NzClIWsIOvifZCDRi/iUn45L/mk3+U2LHikJJ3hA9w2ha2ia260/xHEArTArY/FnLwh/EOf8b+Wf/78H36cyz8bf67YjVSOgkaXadW4y7KoEy0HMaBwzhzNSBNXibgmVFayMSaR0ZA+Yo6mCVy0OyMvw/hc5I5cPCgHD/+h6RKlVKyZc0qsSEA2dnAkuPO+PPE2/79+7BNA3sfGI5nzJAB3/hCeRsMbUCcaOjP7SluFf7++zFJnjyFPPpYDkxUKKuFTAV/hf5v0xP6kmVabjicjNLZqAt3gx9AUjMj533e/5dDT0AbsU+9oyd6KLUkfCiNJMP37ZQw0dDf4X/h5O/Cz72wP5Kly6KOL/9q/5N0hsa4Af+Hwev6+eOH9Ig7F+6kqTJonbHjxVdwdxt/N7AIUsjkt+C4cKXAZ3FiqxBJCP/O8Uf6mWD4LxwD6cKJo8ITarFix1G7riQPpVPe/FvzD8b1xTN/yHlsrV6Hl/YkqdEPabPIA/gIMKlpe82Ads8xiP/pEZ28cA22UYnwMkB3B7GxXfhX598beKmgbRcnphTwKcUXCvL03fgv8vinbdqKQZ1BLzgwbtxeCjfp8JfhO8KasRH9/KcNchnZKzGI/v+/49+Vc2j5+KOX7wP5w27taXfp3OAGmmk8u5Np3mnDvCk4Kd+W1DyBC1dvBOYkc/MNRN8uNI6D0Y7IwMD04eukYMiltPtP0f/osWNSqXI1wMRbZ5pUsmj+PHwUHvpHZV42hX3j97/lUKUEednnf8MTQboom5iLP/6VDv/L818Yvm84uUVpbAXu0zHTdOxaSZI2k84m/vzvr38qkf+L1n+c2rtO/WlwArS3nCapfsaBFruUMgtFIs8iywkzkN9UwSvL0ecFk6lkcouOyWypp9onVm6fWZAFAvX58O81/c+GhkrnLl1kzZofSH15+803pXGThnrPjrjX8MEkfv/7/I9x788/Ouj+JfPf7ZtX8U29IbpFymk+E5ycVoFvKjO52/nen//B9/78929Z/6GRumlEHg7iiFKPyjRGm0QZhxlM4J2KSbpV53RNGqnCkJbhAsGgP6aEiXCRZvJ02irN58P3Sp33jP7vvf+BnDt/Qdat+0EFXgpMD6Z4UObO/VYSw8ZIAaOb2EN+/6teAXSw/Kw08fnfH//gB3/+wzoYnP+3wNbw+M7NcmTrWnzjEfaGDCATT5umecLYVgUi7STjz/+cX0AkTi/++vcfWf8Msf9Z+cN8IsasmMrjZlh4IsjwFIrgWNOsrPjFCQyNQgldZvhA6dpksLHBAaYV68XEqS9AVVPZMh5wPnwu2R6C8P4fpn/+AoXgO4XdZOhPZ5yjRwyXLFkyA9q9h+/3P4aLh/7e7vbp7/PfvR7/92r8ze/+Kk5OLtD53835L3QbKdnoUFWDP/+Tu+8V/f31162blEoMrzk+vNf8p5+ICYFgFE6nQxSLtS3BBhnpzVwZGwx8cpt2TiAKStfU1tPRGQ1miVKYvr2xNBMAj89aBfL48P+j9P/oo4/lBoyakyZNLHlyPQnj8gKSIgVPdfn97/M/2YAD045p/Q0+IcEGHby49+S1Y51F/PEPGvyPzX8/zxwlZ/btgEPZuJISHxNPl7uIHnjw539//fu3r/+qkXJTps6QXEsxN1JyNpNkcKo0CYw3wUyhGCbQbBilFIUjCmVQWmkdNgfVv8yDYq609z4IyWTw4fv09/kvOCoCY0UHhhtBblz648+ff/z5119/sGZgnfXX3/+S/EH3B1YuUgmKp7X4BqEfCNO5nA2jVsm4zjSnuaC9coKRK43ZXpkZlQUnfgpGWomCsNXp2yrzBPJpKiMA2Yfv09/nP4wFjDF//IEO/vzjz7/++uOvvzFb/jA2UlaQoQBl9EaIsPKPi1Ohh4IOcyCNL8dwMaK/LEOHeGosx3IRAkvaLUDcGmHL3jCfJ7+DpcUZz2wGIm8hgPnwffr7/OePPzPv+POPoYM///rrj7/+/pflD9VIqZSi4ovKNRSSeEM7BzNpQ4BRwcYsYszJBd2IOVZ+8tTBdG8w7xMc7jrktSRLwzRKYRgpyZTQWn34Pv0tb/j8x8XSH3/+/IP5EYOB44HBn391pdC1RK17/fVH1wzDHRGv/vpLfd69lT+sRspqeqxEE5EnOWT5ed2gVokn+Chs0S2hmeS9JXjvVFU2Xn9cHiCkCwMHgjVwVxHLCFms1eU07ODD9+nv858//vz5hy+uOjn686+//oAV/PU35sgfEKTgkNMNUMo2ATUUHniPYK7suIiBzy6NqeYTDIxh2WCiimmsCxboPPatGi9m0Kw2oy3mwwchVA1DGpIoQRqTUt5gKWejfPr7/MctDjuQPMzhjz+MDX/+8edff/3x1997JH94bKQ8My8kHJV2rYewCAuUE3iwfHO9N2u9iXRJEWsyajXqnvhOGQuFVMmGgoQSDBFL+fBpXGeo5tPfIyA4JgPj+Pznjz9//uEM6s+/fHN3U0PElcRff7it5a+/91b+UEHKHJskKxrLeN22s5IbmZIsGsuIQXrlAmYMnDiI8aCcCzbWX8Z5WNq+CdLIysUyhzf48D1bpaCST3+wks9/dvuCw8off/78o6+h/vyLhcNff0AENTDmKuqvvzFB/ghqpCDl6Bs++4aLOQQfakKMdMS4gJSk9zq5sw8p6rqAZ68uyxiIMpFlkZEAdIE0WilXTH99+D79yU+WGXz+88efP//486+bEcwv6cFg1g+VJfz1x5DEkMVff8Ebbi/nPyl/QJCy39ojc8J3Df04kTepSFLxR29wx2cIVrrAMYX3zMcXJQhIfOItg7I7LiYvUnBvs2mdms5cKrmxJCH58H36+/znjz9//vHnX641XBGoeOGNv/5wufTXX8gK4AX+i3Hyx9XrN/glA/RTkGEpDGlQBkY8Apla7wI3Gh28gOEpMCmSgbpYggX4g/sQFaf4gD/NrH4Hffg+/X3+43jAuOCQccEff6CHIUhg2gncOCLZX3/+8edfXVLc2sKxRN7hM39w768/IISjiRLLX3/x1vJPyB+qkVJms5O2I7MjuLIlaW750mz/mVxc/Kx8aOd/m4mTmqYoC2tVWl4rczUrd+Oi718BAD587Y0Aw/v0B7/4/OePP3/+0XHgz7+cH/31x1DBX39jjPwR+ERMQIKxq5bTL1Oit5MYhXrem8AHaJiwygWOXIPBjeMrTxaX35W1xcKxwR0LBlZGg4X8Lp03lLp8+KCDJYpPfyNMBXiE/MUHn//88efPP/786yYGf/3x118jZnOFCMoUnnu7bPzT8kfA2Fx1SBBgVAOqrUA79NlqjGyca5yyLoUk3uBCgYhXrcfxtRMANB8fKCPZiQ+vVgqLaVoDSvvwffqDR5SlyBM+/4Ef/PHneXszzGGmEn3fMszizz/+/OuvP/76+9+TP/4f5xGdbffITG8AAAAASUVORK5CYII=;" vertex="1" parent="1">
          <mxGeometry x="130" y="285" width="259.28" height="110" as="geometry" />
        </mxCell>
        <mxCell id="xSvWMtBVdoCeq4DZCb4L-8" value="Text" style="text;html=1;strokeColor=none;fillColor=none;align=center;verticalAlign=middle;whiteSpace=wrap;rounded=0;fontSize=16;" vertex="1" parent="1">
          <mxGeometry x="229.64000000000001" y="400" width="60" height="30" as="geometry" />
        </mxCell>
      </root>
    </mxGraphModel>
  </diagram>
</mxfile>
